<?xml version="1.0" encoding="utf-8"?>
<!-- Generator: Adobe Illustrator 17.0.0, SVG Export Plug-In . SVG Version: 6.00 Build 0)  -->
<!DOCTYPE svg PUBLIC "-//W3C//DTD SVG 1.1//EN" "http://www.w3.org/Graphics/SVG/1.1/DTD/svg11.dtd">
<svg version="1.1" id="Capa_1" xmlns="http://www.w3.org/2000/svg" xmlns:xlink="http://www.w3.org/1999/xlink" x="0px" y="0px"
	 width="64px" height="64px" viewBox="0 0 64 64" enable-background="new 0 0 64 64" xml:space="preserve">
<g>
	<path d="M54.401,31.096l-14.297-7.273c-0.641-0.326-1.216-1.315-1.184-2.033l0.482-10.591c0.011-1.349-0.505-2.618-1.453-3.573
		c-0.947-0.954-2.211-1.481-3.56-1.481h-4.427c-2.779,0-5.041,2.262-5.04,5.099l0.393,10.423c0.027,0.722-0.557,1.716-1.201,2.045
		L9.599,31.096c-2.267,1.153-3.976,3.824-3.976,6.214c0,2.396,1.858,4.201,4.323,4.201c0.306,0,0.618-0.028,0.929-0.084
		l14.456-2.608c0.37-0.072,0.639,0.13,0.653,0.525l0.076,2.009c0.031,0.821-0.552,2.076-1.201,2.583l-4.093,3.197
		c-1.92,1.498-3.368,4.466-3.368,6.903c0,2.249,1.403,3.82,3.414,3.82c0.631,0,1.279-0.159,1.926-0.474l6.036-2.922
		c1.041-0.504,2.463-0.854,3.111-0.854c0.626,0.01,2.11,0.401,3.16,0.909l5.92,2.867c0.649,0.314,1.297,0.474,1.928,0.474
		c2.01,0,3.414-1.571,3.414-3.82c0-2.438-1.448-5.405-3.368-6.903l-3.741-2.922c-0.646-0.505-1.221-1.755-1.184-2.572l0.104-2.262
		c0.02-0.396,0.29-0.611,0.673-0.537l14.336,2.587c0.31,0.056,0.623,0.084,0.929,0.084h0.001c1.168,0,2.249-0.413,3.043-1.162
		c0.825-0.778,1.279-1.857,1.279-3.039C58.378,34.92,56.669,32.249,54.401,31.096z M55.04,38.167
		c-0.312,0.293-0.823,0.408-1.381,0.307l-14.336-2.587c-2.228-0.399-4.104,1.183-4.202,3.354l-0.104,2.262
		c-0.082,1.788,0.921,3.969,2.333,5.073l3.742,2.923c1.18,0.92,2.214,3.041,2.214,4.538c0,0.544-0.14,0.82-0.414,0.82
		c-0.169,0-0.389-0.062-0.62-0.173l-5.92-2.867c-1.386-0.672-3.285-1.191-4.49-1.21c-1.146,0-3.036,0.496-4.396,1.154l-6.037,2.923
		c-0.23,0.111-0.45,0.173-0.618,0.173c-0.274,0-0.414-0.276-0.414-0.82c0-1.497,1.034-3.618,2.215-4.539l4.093-3.197
		c1.409-1.1,2.421-3.275,2.353-5.062l-0.076-2.007c-0.082-2.178-1.941-3.767-4.184-3.366l-14.456,2.608
		c-0.136,0.025-0.268,0.037-0.395,0.037c-0.61,0-1.323-0.314-1.323-1.201c0-1.253,1.092-2.907,2.336-3.54l14.518-7.385
		c1.69-0.862,2.911-2.94,2.839-4.833l-0.392-10.365c0-1.126,0.916-2.042,2.041-2.042h4.427c0.543,0,1.051,0.211,1.431,0.594
		c0.38,0.383,0.586,0.893,0.584,1.38l-0.48,10.534c-0.087,1.899,1.125,3.98,2.819,4.844l14.298,7.273
		c1.244,0.633,2.336,2.287,2.336,3.54C55.378,37.667,55.265,37.955,55.04,38.167z"/>
</g>
</svg>
