<?xml version="1.0" encoding="utf-8"?>
<!-- Generator: Adobe Illustrator 17.0.0, SVG Export Plug-In . SVG Version: 6.00 Build 0)  -->
<!DOCTYPE svg PUBLIC "-//W3C//DTD SVG 1.1//EN" "http://www.w3.org/Graphics/SVG/1.1/DTD/svg11.dtd">
<svg version="1.1" id="Capa_1" xmlns="http://www.w3.org/2000/svg" xmlns:xlink="http://www.w3.org/1999/xlink" x="0px" y="0px"
	 width="64px" height="64px" viewBox="0 0 64 64" enable-background="new 0 0 64 64" xml:space="preserve">
<path d="M32,53c1.657,0,3-1.343,3-3v-25.66c0-2.761,1.541-3.376,3.443-1.374l7.045,7.419c0.616,0.649,1.445,0.976,2.274,0.976
	c0.774,0,1.553-0.286,2.158-0.861c1.258-1.193,1.308-3.177,0.115-4.434L34.541,9.753c-0.585-0.618-1.397-0.97-2.247-0.977
	c-0.851,0.002-1.665,0.33-2.261,0.938L14.002,26.03c-1.215,1.234-1.197,3.22,0.036,4.433c1.235,1.214,3.221,1.195,4.434-0.039
	l7.024-7.148C27.431,21.306,29,21.948,29,24.709V50C29,51.657,30.343,53,32,53z"/>
</svg>
