<?xml version="1.0" encoding="utf-8"?>
<!-- Generator: Adobe Illustrator 17.0.0, SVG Export Plug-In . SVG Version: 6.00 Build 0)  -->
<!DOCTYPE svg PUBLIC "-//W3C//DTD SVG 1.1//EN" "http://www.w3.org/Graphics/SVG/1.1/DTD/svg11.dtd">
<svg version="1.1" id="Capa_1" xmlns="http://www.w3.org/2000/svg" xmlns:xlink="http://www.w3.org/1999/xlink" x="0px" y="0px"
	 width="64px" height="64px" viewBox="0 0 64 64" enable-background="new 0 0 64 64" xml:space="preserve">
<path d="M24.871,41.165c-0.436-0.039-0.888-0.079-1.337-0.114c-2.673-0.201-5.835,2.274-7.187,5.628
	c-0.706,1.751-0.205,4.301,1.276,6.496c1.851,2.743,4.735,4.315,7.913,4.316h0c0.267,0,0.539-0.011,0.816-0.034
	c7.355-0.601,10.29-7.978,10.373-8.202l11.947-25.742c0.161-0.295,3.901-7.3-0.386-13.305c-1.733-2.428-4.336-3.765-7.328-3.765
	c-3.263,0-6.402,1.661-7.464,3.949c-1.508,3.249-1.812,7.59,0.595,9.235l2.546,1.742L27.368,41.33
	C26.841,41.327,25.874,41.253,24.871,41.165z M30.022,42.737l9.391-20.226c0.568-1.225,0.14-2.781-0.974-3.543l-2.657-1.817
	c-0.567-0.388-0.833-2.768,0.433-5.495c0.494-1.064,2.448-2.213,4.744-2.213c1.413,0,3.407,0.435,4.887,2.508
	c3.183,4.458,0.223,10.071,0.151,10.21L33.968,48.078c-0.023,0.06-2.399,5.942-7.859,6.388c-0.194,0.016-0.385,0.024-0.572,0.024h0
	c-3.074,0-4.819-2.094-5.426-2.994c-1.005-1.489-1.255-3.015-0.981-3.696c0.906-2.25,2.835-3.762,4.068-3.762l0.1,0.004
	c0.439,0.034,0.88,0.074,1.307,0.111c1.023,0.091,1.989,0.177,2.681,0.177c0.607,0,1.01-0.066,1.35-0.224
	C29.255,43.818,29.748,43.331,30.022,42.737z"/>
</svg>
