<?xml version="1.0" encoding="utf-8"?>
<!-- Generator: Adobe Illustrator 17.0.0, SVG Export Plug-In . SVG Version: 6.00 Build 0)  -->
<!DOCTYPE svg PUBLIC "-//W3C//DTD SVG 1.1//EN" "http://www.w3.org/Graphics/SVG/1.1/DTD/svg11.dtd">
<svg version="1.1" id="Capa_1" xmlns="http://www.w3.org/2000/svg" xmlns:xlink="http://www.w3.org/1999/xlink" x="0px" y="0px"
	 width="64px" height="64px" viewBox="0 0 64 64" enable-background="new 0 0 64 64" xml:space="preserve">
<path d="M51.731,8.5c-0.04,0-0.077,0.01-0.116,0.012C51.576,8.509,51.539,8.5,51.5,8.5H9.974c-0.242,0-0.468,0.063-0.67,0.165
	C6.365,9.619,5.01,14.976,5.01,20v24c0,6.341,5.159,11.5,11.5,11.5h28.961c6.341,0,11.5-5.159,11.5-11.5V20
	C56.971,14.461,55.331,8.5,51.731,8.5z M48,11.5c-0.995,2.055-1.509,4.908-1.509,7.75c0,4.273-3.813,7.75-8.5,7.75h-14
	c-4.687,0-8.5-3.477-8.5-7.75c0-2.842-0.515-5.695-1.51-7.75H48z M53.971,44c0,4.687-3.813,8.5-8.5,8.5H16.51
	c-4.687,0-8.5-3.813-8.5-8.5V20c0-5.273,1.578-8.349,2.24-8.5c0.576,0,2.241,2.665,2.241,7.75c0,5.928,5.159,10.75,11.5,10.75h14
	c6.341,0,11.5-4.822,11.5-10.75c0-5.085,1.665-7.75,2.229-7.751c0.673,0.151,2.251,3.227,2.251,8.501V44z"/>
<path d="M42.999,33.475H20.333c-3.584,0-6.5,2.916-6.5,6.5v0.358c0,3.584,2.916,6.5,6.5,6.5h22.666c3.584,0,6.5-2.916,6.5-6.5
	v-0.358C49.499,36.391,46.583,33.475,42.999,33.475z M46.499,40.333c0,1.93-1.57,3.5-3.5,3.5H20.333c-1.93,0-3.5-1.57-3.5-3.5
	v-0.358c0-1.93,1.57-3.5,3.5-3.5h22.666c1.93,0,3.5,1.57,3.5,3.5V40.333z"/>
<path d="M23.25,23.108c1.267,0,2.294-1.581,2.294-3.529v-1.412c0-1.949-1.027-3.529-2.294-3.529c-1.267,0-2.294,1.581-2.294,3.529
	v1.412C20.956,21.528,21.983,23.108,23.25,23.108z"/>
</svg>
