<?xml version="1.0" encoding="utf-8"?>
<!-- Generator: Adobe Illustrator 17.0.0, SVG Export Plug-In . SVG Version: 6.00 Build 0)  -->
<!DOCTYPE svg PUBLIC "-//W3C//DTD SVG 1.1//EN" "http://www.w3.org/Graphics/SVG/1.1/DTD/svg11.dtd">
<svg version="1.1" id="Capa_1" xmlns="http://www.w3.org/2000/svg" xmlns:xlink="http://www.w3.org/1999/xlink" x="0px" y="0px"
	 width="64px" height="64px" viewBox="0 0 64 64" enable-background="new 0 0 64 64" xml:space="preserve">
<g>
	<path d="M49.247,13.75c-2.567,0-5.054,0.82-7.105,2.328c-3.313-1.579-6.987-2.379-10.938-2.379c-4.727,0-8.539,1.149-10.099,1.701
		c-1.838-1.082-3.924-1.65-6.076-1.65c-6.617,0-12,5.383-12,12c0,2.822,0.994,5.536,2.811,7.699l0.872,7.269
		c0.608,5.064,4.084,9.032,7.914,9.032c3.793,0,7.439-3.935,8.301-8.957l1.107-6.454c2.379,0.988,5.029,1.487,7.902,1.487
		c3.417,0,6.396-0.708,8.176-1.25l1.234,6.842c0.861,5.022,4.508,8.957,8.301,8.957c3.83,0,7.307-3.968,7.914-9.032
		c0.407-3.392,0.756-6.704,0.88-7.898c1.814-2.162,2.807-4.874,2.807-7.694C61.247,19.133,55.864,13.75,49.247,13.75z
		 M55.882,31.813c-0.252,0.274-0.385,0.626-0.391,0.984c-0.073,0.711-0.455,4.4-0.909,8.188c-0.415,3.464-2.676,6.39-4.936,6.39
		c-2.045,0-4.681-2.598-5.346-6.478l-1.548-8.579c-0.081-0.446-0.36-0.832-0.76-1.05c-0.223-0.122-0.47-0.183-0.718-0.183
		c-0.195,0-0.392,0.038-0.576,0.114c-0.039,0.017-3.969,1.626-8.764,1.626c-2.999,0-5.691-0.621-8.002-1.847
		c-0.636-0.338-1.422-0.174-1.873,0.387c-0.089,0.111-0.186,0.215-0.284,0.318l-0.12,0.131c-0.229,0.249-0.359,0.562-0.386,0.885
		l-1.302,7.585c-0.663,3.867-3.299,6.465-5.344,6.465c-2.26,0-4.521-2.926-4.936-6.39l-0.9-7.509
		c0.006-0.376-0.13-0.748-0.394-1.036c-1.526-1.668-2.367-3.822-2.367-6.065c0-4.963,4.037-9,9-9c1.803,0,3.543,0.531,5.06,1.557
		c0.422,0.287,0.959,0.342,1.431,0.144c0.042-0.018,4.233-1.751,9.684-1.751c3.817,0,7.327,0.835,10.433,2.482
		c0.568,0.301,1.262,0.201,1.729-0.238c0.017-0.015,0.032-0.03,0.048-0.047c1.625-1.385,3.692-2.146,5.835-2.146
		c4.963,0,9,4.037,9,9C58.247,27.992,57.407,30.146,55.882,31.813z"/>
	<path d="M18.621,26.312c0,0-0.183-0.146-0.406-0.326c-0.225-0.181-0.225-0.472,0-0.652l0.405-0.326
		c0.44-0.354,0.716-0.829,0.81-1.32c0.162-0.857-0.858-2.128-1.73-2.155c-0.499-0.015-1.023,0.151-1.464,0.505
		c0,0-0.329,0.264-0.735,0.59c-0.406,0.326-1.065,0.326-1.471,0l-0.735-0.59c-0.44-0.354-0.965-0.52-1.464-0.505
		c-0.872,0.027-1.893,1.298-1.731,2.155c0.094,0.491,0.369,0.967,0.81,1.32c0,0,0.182,0.146,0.405,0.326
		c0.225,0.181,0.225,0.472,0,0.652l-0.406,0.326c-0.44,0.354-0.716,0.829-0.809,1.32c-0.163,0.858,0.857,2.128,1.731,2.155
		c0.499,0.015,1.023-0.151,1.464-0.505c0,0,0.329-0.264,0.735-0.59c0.406-0.326,1.064-0.326,1.471,0l0.735,0.59
		c0.44,0.354,0.965,0.52,1.464,0.505c0.873-0.027,1.894-1.298,1.73-2.155C19.337,27.141,19.06,26.665,18.621,26.312z"/>
	<path d="M54.121,26.312c0,0-0.183-0.146-0.406-0.326c-0.225-0.181-0.225-0.472,0-0.652l0.405-0.326
		c0.44-0.354,0.716-0.829,0.81-1.32c0.162-0.857-0.858-2.128-1.73-2.155c-0.499-0.015-1.023,0.151-1.464,0.505
		c0,0-0.329,0.264-0.735,0.59c-0.406,0.326-1.065,0.326-1.471,0l-0.735-0.59c-0.44-0.354-0.965-0.52-1.464-0.505
		c-0.872,0.027-1.893,1.298-1.73,2.155c0.094,0.491,0.369,0.967,0.81,1.32c0,0,0.182,0.146,0.405,0.326
		c0.225,0.181,0.225,0.472,0,0.652l-0.406,0.326c-0.44,0.354-0.716,0.829-0.809,1.32c-0.163,0.858,0.857,2.128,1.73,2.155
		c0.499,0.015,1.023-0.151,1.464-0.505c0,0,0.329-0.264,0.735-0.59c0.406-0.326,1.064-0.326,1.471,0l0.735,0.59
		c0.44,0.354,0.965,0.52,1.464,0.505c0.873-0.027,1.894-1.298,1.73-2.155C54.837,27.141,54.56,26.665,54.121,26.312z"/>
</g>
</svg>
