<?xml version="1.0" encoding="utf-8"?>
<!-- Generator: Adobe Illustrator 17.0.0, SVG Export Plug-In . SVG Version: 6.00 Build 0)  -->
<!DOCTYPE svg PUBLIC "-//W3C//DTD SVG 1.1//EN" "http://www.w3.org/Graphics/SVG/1.1/DTD/svg11.dtd">
<svg version="1.1" id="Capa_1" xmlns="http://www.w3.org/2000/svg" xmlns:xlink="http://www.w3.org/1999/xlink" x="0px" y="0px"
	 width="64px" height="64px" viewBox="0 0 64 64" enable-background="new 0 0 64 64" xml:space="preserve">
<path d="M46.75,20.757h-2.567c0.058-0.414,0.087-0.832,0.087-1.25c0-5.652-5.159-10.25-11.5-10.25H31.23
	c-6.341,0-11.5,4.598-11.5,10.25c0,0.418,0.029,0.836,0.087,1.25H17.25c-6.341,0-11.5,5.159-11.5,11.5v9
	c0,6.341,5.159,11.5,11.5,11.5h29.5c6.341,0,11.5-5.159,11.5-11.5v-9C58.25,25.916,53.091,20.757,46.75,20.757z M31.23,12.257h1.539
	c4.687,0,8.5,3.252,8.5,7.25c0,0.418-0.055,0.835-0.142,1.25H22.872c-0.087-0.415-0.142-0.832-0.142-1.25
	C22.73,15.51,26.544,12.257,31.23,12.257z M55.25,41.257c0,4.687-3.813,8.5-8.5,8.5h-29.5c-4.687,0-8.5-3.813-8.5-8.5v-9
	c0-4.687,3.813-8.5,8.5-8.5h4.492h20.516h4.492c4.687,0,8.5,3.813,8.5,8.5V41.257z"/>
<path d="M30.808,18.796h2.385c2.761,0,4.991-2.19,3.18-3.673c-1.028-0.842-2.41-1.358-3.93-1.358h-0.885
	c-1.52,0-2.901,0.516-3.93,1.358C25.817,16.606,28.046,18.796,30.808,18.796z"/>
</svg>
