<?xml version="1.0" encoding="utf-8"?>
<!-- Generator: Adobe Illustrator 17.0.0, SVG Export Plug-In . SVG Version: 6.00 Build 0)  -->
<!DOCTYPE svg PUBLIC "-//W3C//DTD SVG 1.1//EN" "http://www.w3.org/Graphics/SVG/1.1/DTD/svg11.dtd">
<svg version="1.1" id="Capa_1" xmlns="http://www.w3.org/2000/svg" xmlns:xlink="http://www.w3.org/1999/xlink" x="0px" y="0px"
	 width="64px" height="64px" viewBox="0 0 64 64" enable-background="new 0 0 64 64" xml:space="preserve">
<g>
	<path d="M30.737,7.62C17.293,7.62,6.356,18.557,6.356,32s10.937,24.38,24.38,24.38c13.443,0,24.38-10.937,24.38-24.38
		S44.18,7.62,30.737,7.62z M40.147,12.831c2.12,1.045,4.055,2.411,5.708,4.066c-2.271,1.101-4.459,1.917-6.554,2.506
		C39.57,16.663,39.89,14.409,40.147,12.831z M30.737,10.62c2.287,0,4.487,0.37,6.554,1.038c-0.319,1.815-0.77,4.764-1.106,8.475
		c-3.593,0.667-6.852,0.68-9.697,0.339c-0.358-4.098-0.861-7.296-1.19-9.123C27.039,10.889,28.855,10.62,30.737,10.62z M26.857,33.5
		h8.931c0.082,2.475,0.261,5.046,0.565,7.669c-3.688-0.681-7.049-0.721-10.014-0.403C26.616,38.282,26.78,35.848,26.857,33.5z
		 M26.713,23.514c1.12,0.116,2.289,0.187,3.514,0.187c1.801,0,3.715-0.146,5.722-0.475c-0.141,2.245-0.226,4.69-0.216,7.274h-8.82
		C26.922,28.025,26.844,25.68,26.713,23.514z M22.413,12.308c0.284,1.675,0.678,4.315,0.987,7.631
		c-3.643-0.819-6.341-2.121-7.84-2.977C17.507,14.997,19.829,13.404,22.413,12.308z M21.377,51.193
		c-2.111-1.034-4.037-2.386-5.688-4.025c1.43-0.787,3.867-1.923,7.103-2.695C22.431,46.712,21.969,48.962,21.377,51.193z
		 M23.247,41.241c-4.566,0.929-7.878,2.603-9.561,3.604C11.265,41.64,9.729,37.743,9.433,33.5h14.393
		C23.744,36.002,23.562,38.599,23.247,41.241z M9.433,30.5c0.293-4.187,1.792-8.037,4.158-11.218
		c1.693,1.018,5.192,2.809,10.055,3.769c0.15,2.287,0.243,4.795,0.235,7.449H9.433z M30.737,53.38c-2.29,0-4.493-0.371-6.563-1.041
		c0.767-2.815,1.34-5.648,1.758-8.446c3.128-0.411,6.787-0.398,10.849,0.455c0.392,2.52,0.911,5.067,1.584,7.6
		C35.992,52.86,33.427,53.38,30.737,53.38z M41.136,50.665c-0.467-1.824-0.853-3.658-1.166-5.487
		c1.799,0.555,3.661,1.271,5.584,2.201C44.231,48.653,42.75,49.761,41.136,50.665z M47.622,45.066
		c-2.835-1.436-5.561-2.48-8.146-3.187c-0.364-2.861-0.565-5.675-0.653-8.379h13.218C51.738,37.84,50.14,41.821,47.622,45.066z
		 M38.768,30.5c-0.008-2.834,0.098-5.5,0.266-7.911c2.792-0.703,5.745-1.781,8.826-3.338c2.379,3.188,3.888,7.048,4.181,11.249
		H38.768z"/>
</g>
</svg>
