<?xml version="1.0" encoding="utf-8"?>
<!-- Generator: Adobe Illustrator 17.0.0, SVG Export Plug-In . SVG Version: 6.00 Build 0)  -->
<!DOCTYPE svg PUBLIC "-//W3C//DTD SVG 1.1//EN" "http://www.w3.org/Graphics/SVG/1.1/DTD/svg11.dtd">
<svg version="1.1" id="Capa_1" xmlns="http://www.w3.org/2000/svg" xmlns:xlink="http://www.w3.org/1999/xlink" x="0px" y="0px"
	 width="64px" height="64px" viewBox="0 0 64 64" enable-background="new 0 0 64 64" xml:space="preserve">
<path d="M34.571,7.294c0.121-0.288,0.198-0.593,0.198-0.917c0-1.517-1.443-2.745-3.221-2.745c-1.78,0-3.222,1.228-3.222,2.745
	c0,0.313,0.074,0.609,0.189,0.89c-4.197,1.339-7.26,5.42-7.26,10.238v29.659c0,5.902,4.596,10.704,10.244,10.704
	c5.648,0,10.244-4.802,10.244-10.704V17.505C41.744,12.721,38.724,8.661,34.571,7.294z M38.744,47.164
	c0,4.248-3.25,7.704-7.244,7.704c-3.994,0-7.244-3.456-7.244-7.704V17.505c0-4.248,3.25-7.704,7.244-7.704
	c3.994,0,7.244,3.456,7.244,7.704V47.164z"/>
<path d="M31.5,36.257c-2.445,0-4.43,2.06-4.43,4.602v6.948c0,2.542,1.984,4.602,4.43,4.602c2.446,0,4.43-2.06,4.43-4.602v-6.948
	C35.93,38.317,33.946,36.257,31.5,36.257z"/>
</svg>
