<?xml version="1.0" encoding="utf-8"?>
<!-- Generator: Adobe Illustrator 17.0.0, SVG Export Plug-In . SVG Version: 6.00 Build 0)  -->
<!DOCTYPE svg PUBLIC "-//W3C//DTD SVG 1.1//EN" "http://www.w3.org/Graphics/SVG/1.1/DTD/svg11.dtd">
<svg version="1.1" id="Capa_1" xmlns="http://www.w3.org/2000/svg" xmlns:xlink="http://www.w3.org/1999/xlink" x="0px" y="0px"
	 width="64px" height="64px" viewBox="0 0 64 64" enable-background="new 0 0 64 64" xml:space="preserve">
<path d="M35.757,6.908c0.121-0.288,0.198-0.593,0.198-0.916c0-1.517-1.443-2.745-3.221-2.745c-1.78,0-3.222,1.229-3.222,2.745
	c0,0.313,0.074,0.609,0.189,0.89c-4.197,1.339-7.26,5.42-7.26,10.238v29.659c0,5.902,4.596,10.704,10.244,10.704
	c5.649,0,10.244-4.802,10.244-10.704V17.119C42.93,12.335,39.909,8.275,35.757,6.908z M39.93,46.778c0,4.248-3.25,7.704-7.244,7.704
	c-3.994,0-7.244-3.456-7.244-7.704V17.119c0-4.248,3.25-7.704,7.244-7.704c3.994,0,7.244,3.456,7.244,7.704V46.778z"/>
<path d="M32.685,11.872c-2.445,0-4.43,2.06-4.43,4.602v30.948c0,2.542,1.984,4.602,4.43,4.602c2.446,0,4.43-2.06,4.43-4.602V16.474
	C37.115,13.932,35.132,11.872,32.685,11.872z"/>
</svg>
