<?xml version="1.0" encoding="utf-8"?>
<!-- Generator: Adobe Illustrator 17.0.0, SVG Export Plug-In . SVG Version: 6.00 Build 0)  -->
<!DOCTYPE svg PUBLIC "-//W3C//DTD SVG 1.1//EN" "http://www.w3.org/Graphics/SVG/1.1/DTD/svg11.dtd">
<svg version="1.1" id="Capa_1" xmlns="http://www.w3.org/2000/svg" xmlns:xlink="http://www.w3.org/1999/xlink" x="0px" y="0px"
	 width="64px" height="64px" viewBox="0 0 64 64" enable-background="new 0 0 64 64" xml:space="preserve">
<g>
	<path d="M56.71,41.95c-1.667-2.192-4.477-3.45-7.71-3.45H20c-3.233,0-6.043,1.258-7.71,3.45c-1.561,2.054-2,4.7-1.235,7.451
		C12.628,55.064,18.753,59.5,25,59.5h19c6.247,0,12.372-4.436,13.945-10.099C58.71,46.65,58.27,44.004,56.71,41.95z M55.055,48.599
		C53.845,52.955,48.885,56.5,44,56.5H25c-4.885,0-9.845-3.545-11.055-7.901c-0.508-1.827-0.247-3.543,0.733-4.833
		c1.11-1.461,3-2.266,5.321-2.266h29c2.321,0,4.211,0.805,5.321,2.266C55.302,45.056,55.562,46.771,55.055,48.599z"/>
	<path d="M19.333,35.5H27c3.584,0,6.5-2.916,6.5-6.5V8.001c0-3.288-1.474-3.779-2.353-3.779c-1.056,0-2.013,0.778-2.926,2.38
		L15.506,28.913c-0.924,1.62-1.025,3.285-0.28,4.568C15.971,34.764,17.468,35.5,19.333,35.5z M18.111,30.399L30.5,8.662V29
		c0,1.93-1.57,3.5-3.5,3.5h-7.667c-0.757,0-1.322-0.196-1.514-0.526C17.628,31.645,17.737,31.056,18.111,30.399z"/>
	<path d="M43.332,35.5h7.667c2.614,0,3.621-1.252,3.989-1.999c0.368-0.746,0.747-2.308-0.846-4.38L42.567,14.052
		c-1.003-1.306-2.04-1.968-3.081-1.968c-0.622,0-2.654,0.283-2.654,3.917V29C36.832,32.584,39.748,35.5,43.332,35.5z M39.832,16.001
		c0-0.204,0.009-0.376,0.022-0.519c0.098,0.104,0.21,0.235,0.334,0.398l11.575,15.069c0.57,0.741,0.565,1.162,0.533,1.227
		c-0.031,0.064-0.362,0.324-1.298,0.324h-7.667c-1.93,0-3.5-1.57-3.5-3.5V16.001z"/>
</g>
</svg>
