<?xml version="1.0" encoding="utf-8"?>
<!-- Generator: Adobe Illustrator 17.0.0, SVG Export Plug-In . SVG Version: 6.00 Build 0)  -->
<!DOCTYPE svg PUBLIC "-//W3C//DTD SVG 1.1//EN" "http://www.w3.org/Graphics/SVG/1.1/DTD/svg11.dtd">
<svg version="1.1" id="Capa_1" xmlns="http://www.w3.org/2000/svg" xmlns:xlink="http://www.w3.org/1999/xlink" x="0px" y="0px"
	 width="64px" height="64px" viewBox="0 0 64 64" enable-background="new 0 0 64 64" xml:space="preserve">
<path d="M36.144,9.093l-6.877,4.679c-2.283,1.553-2.473,2.586-0.423,2.308c2.05-0.278,3.528,0.539,3.303,1.825
	c-0.226,1.285,1.413,1.027,3.66-0.578l7.422-5.302"/>
<g>
	<path d="M56.632,29.067L53.309,27.5c0.517-1.142,0.816-2.271,0.816-3.243l0.018-4.074c1.008-1.028,1.475-2.243,1.296-3.432
		c-0.217-1.441-1.355-2.64-3.121-3.286L36.46,7.655c-3.044-1.117-7.51-0.531-10.166,1.33L7.735,21.993
		c-2.141,1.5-2.129,3.538-2.124,4.509v12.216c0,3.365,2.324,7.09,5.301,8.483l12.63,5.793c1.106,0.518,2.387,0.766,3.692,0.766
		c2.255,0,4.579-0.741,6.185-2.114l21.321-15.904c0.03-0.022,0.059-0.046,0.087-0.07c1.21-1.053,3.207-3.095,2.982-4.943
		C57.724,30.012,57.31,29.415,56.632,29.067z M52.9,33.371L31.583,49.272c-0.03,0.022-0.059,0.046-0.087,0.07
		c-1.646,1.431-4.706,1.858-6.691,0.93l-12.63-5.793c-1.932-0.904-3.563-3.543-3.563-5.762V26.493
		c-0.006-0.983,0.076-1.504,0.845-2.043l18.559-13.008c1.243-0.871,3.157-1.36,4.931-1.36c0.898,0,1.76,0.126,2.481,0.39
		l15.858,5.81c0.819,0.3,1.151,0.682,1.187,0.917c0.027,0.183-0.09,0.502-0.467,0.883c-0.231,0.109-0.43,0.276-0.577,0.481
		L32.446,32.995c-1.772,1.348-4.987,1.721-7.049,0.799l-13.06-5.559c-0.463-0.197-0.995-0.15-1.415,0.129
		c-0.42,0.277-0.673,0.747-0.673,1.251v5.285c0,3.344,2.381,7.054,5.455,8.462l7.416,3.176c3.035,1.393,7.408,0.789,9.902-1.33
		l16.76-13.002c0.723-0.612,1.393-1.338,1.98-2.118l2.859,1.349C54.355,31.881,53.816,32.568,52.9,33.371z M51.132,22.556
		l-0.007,1.694c0,0.736-0.393,1.852-1.051,2.974c-0.078,0.094-0.145,0.199-0.199,0.314c-0.007,0.014-0.013,0.027-0.019,0.042
		c-0.532,0.835-1.204,1.651-1.963,2.296l-16.76,13.002c-1.672,1.42-4.768,1.846-6.796,0.917l-7.416-3.176
		c-1.99-0.912-3.67-3.531-3.67-5.72v-3.017l10.947,4.66c3.016,1.35,7.437,0.838,10.064-1.16L51.132,22.556z"/>
</g>
</svg>
