<?xml version="1.0" encoding="utf-8"?>
<!-- Generator: Adobe Illustrator 17.0.0, SVG Export Plug-In . SVG Version: 6.00 Build 0)  -->
<!DOCTYPE svg PUBLIC "-//W3C//DTD SVG 1.1//EN" "http://www.w3.org/Graphics/SVG/1.1/DTD/svg11.dtd">
<svg version="1.1" id="Capa_1" xmlns="http://www.w3.org/2000/svg" xmlns:xlink="http://www.w3.org/1999/xlink" x="0px" y="0px"
	 width="64px" height="64px" viewBox="0 0 64 64" enable-background="new 0 0 64 64" xml:space="preserve">
<path d="M42.796,9.47c-0.481-0.141-0.971-0.212-1.457-0.212c-2.977,0-5.399,2.668-5.399,5.948v12.538c0,0.829,0.671,1.5,1.5,1.5
	h12.538c1.97,0,3.811-0.888,4.925-2.375c0.984-1.313,1.271-2.904,0.811-4.479C53.911,16.224,48.961,11.273,42.796,9.47z
	 M52.503,25.069c-0.542,0.724-1.51,1.174-2.524,1.174H38.941V15.206c0-1.844,1.456-3.313,3.013-2.857
	c5.193,1.52,9.363,5.689,10.882,10.883C53.078,24.06,52.789,24.688,52.503,25.069z"/>
<path d="M32.575,57.562c9.496,0,18.221-5.566,22.227-14.181c1.147-2.465,0.987-5.063-0.45-7.316
	c-1.745-2.736-5.19-4.504-8.776-4.504H34.075V20.059c0-5.409-3.907-9.979-8.531-9.979c-1.108,0-2.215,0.253-3.29,0.753
	C13.64,14.839,8.073,23.565,8.073,33.061C8.073,46.571,19.064,57.562,32.575,57.562z M23.519,13.553
	c0.675-0.314,1.356-0.473,2.024-0.473c2.998,0,5.531,3.196,5.531,6.979v13.001c0,0.829,0.671,1.5,1.5,1.5h13.001
	c2.587,0,5.039,1.224,6.247,3.118c0.613,0.961,1.155,2.511,0.259,4.438c-3.517,7.561-11.174,12.446-19.508,12.446
	c-11.856,0-21.501-9.646-21.501-21.501C11.073,24.727,15.958,17.069,23.519,13.553z"/>
</svg>
