<?xml version="1.0" encoding="utf-8"?>
<!-- Generator: Adobe Illustrator 17.0.0, SVG Export Plug-In . SVG Version: 6.00 Build 0)  -->
<!DOCTYPE svg PUBLIC "-//W3C//DTD SVG 1.1//EN" "http://www.w3.org/Graphics/SVG/1.1/DTD/svg11.dtd">
<svg version="1.1" id="Capa_1" xmlns="http://www.w3.org/2000/svg" xmlns:xlink="http://www.w3.org/1999/xlink" x="0px" y="0px"
	 width="64px" height="64px" viewBox="0 0 64 64" enable-background="new 0 0 64 64" xml:space="preserve">
<path d="M22.326,60.208h22.75c6.341,0,11.5-5.159,11.5-11.5V15.292c0-6.341-5.159-11.5-11.5-11.5h-22.75
	c-6.341,0-11.5,5.159-11.5,11.5v33.415C10.826,55.049,15.984,60.208,22.326,60.208z M13.826,15.292c0-4.687,3.813-8.5,8.5-8.5h22.75
	c4.687,0,8.5,3.813,8.5,8.5v33.415c0,4.687-3.813,8.5-8.5,8.5h-22.75c-4.687,0-8.5-3.813-8.5-8.5V15.292z"/>
<path d="M28.201,26.969h11c6.449,0,11.5-3.233,11.5-7.36c0-4.127-5.051-7.359-11.5-7.359h-11c-6.449,0-11.5,3.232-11.5,7.359
	C16.701,23.736,21.752,26.969,28.201,26.969z M28.201,15.25h11c5.009,0,8.5,2.297,8.5,4.359s-3.491,4.36-8.5,4.36h-11
	c-5.009,0-8.5-2.298-8.5-4.36S23.191,15.25,28.201,15.25z"/>
<path d="M26.013,29.5c-3.515,0-6.375,2.58-6.375,5.75S22.498,41,26.013,41c3.515,0,6.375-2.58,6.375-5.75S29.528,29.5,26.013,29.5z
	 M26.013,38c-1.861,0-3.375-1.233-3.375-2.75s1.514-2.75,3.375-2.75c1.861,0,3.375,1.233,3.375,2.75S27.874,38,26.013,38z"/>
<path d="M41.388,29.5c-3.515,0-6.375,2.58-6.375,5.75S37.873,41,41.388,41c3.515,0,6.375-2.58,6.375-5.75S44.903,29.5,41.388,29.5z
	 M41.388,38c-1.861,0-3.375-1.233-3.375-2.75s1.514-2.75,3.375-2.75c1.861,0,3.375,1.233,3.375,2.75S43.249,38,41.388,38z"/>
<path d="M26.013,42.977c-3.515,0-6.375,2.579-6.375,5.75c0,3.17,2.86,5.75,6.375,5.75c3.515,0,6.375-2.58,6.375-5.75
	C32.388,45.557,29.528,42.977,26.013,42.977z M26.013,51.477c-1.861,0-3.375-1.233-3.375-2.75c0-1.517,1.514-2.75,3.375-2.75
	c1.861,0,3.375,1.233,3.375,2.75C29.388,50.244,27.874,51.477,26.013,51.477z"/>
<path d="M41.388,42.977c-3.515,0-6.375,2.579-6.375,5.75c0,3.17,2.86,5.75,6.375,5.75c3.515,0,6.375-2.58,6.375-5.75
	C47.763,45.557,44.903,42.977,41.388,42.977z M41.388,51.477c-1.861,0-3.375-1.233-3.375-2.75c0-1.517,1.514-2.75,3.375-2.75
	c1.861,0,3.375,1.233,3.375,2.75C44.763,50.244,43.249,51.477,41.388,51.477z"/>
</svg>
