<?xml version="1.0" encoding="utf-8"?>
<!-- Generator: Adobe Illustrator 17.0.0, SVG Export Plug-In . SVG Version: 6.00 Build 0)  -->
<!DOCTYPE svg PUBLIC "-//W3C//DTD SVG 1.1//EN" "http://www.w3.org/Graphics/SVG/1.1/DTD/svg11.dtd">
<svg version="1.1" id="Capa_1" xmlns="http://www.w3.org/2000/svg" xmlns:xlink="http://www.w3.org/1999/xlink" x="0px" y="0px"
	 width="64px" height="64px" viewBox="0 0 64 64" enable-background="new 0 0 64 64" xml:space="preserve">
<path d="M47,13.138h-4.5V10c0-0.829-0.671-1.5-1.5-1.5c-0.829,0-1.5,0.671-1.5,1.5v3.138H23.833V10c0-0.829-0.671-1.5-1.5-1.5
	s-1.5,0.671-1.5,1.5v3.138H16.5c-6.341,0-11.5,5.159-11.5,11.5V44c0,6.341,5.159,11.5,11.5,11.5H47c6.341,0,11.5-5.159,11.5-11.5
	V24.638C58.5,18.296,53.341,13.138,47,13.138z M55.5,44c0,4.687-3.813,8.5-8.5,8.5H16.5C11.813,52.5,8,48.688,8,44V24.638
	c0-4.687,3.813-8.5,8.5-8.5h4.333v3.971c0,0.829,0.671,1.5,1.5,1.5s1.5-0.671,1.5-1.5v-3.971H39.5v3.971c0,0.829,0.671,1.5,1.5,1.5
	c0.829,0,1.5-0.671,1.5-1.5v-3.971H47c4.687,0,8.5,3.813,8.5,8.5V44z"/>
<path d="M25.171,26.777c-0.423,0-0.711,0.081-0.864,0.243c-0.153,0.162-0.482,0.595-0.986,1.297
	c-0.504,0.702-1.083,1.337-1.735,1.904c-0.653,0.567-1.524,1.107-2.613,1.621c-0.729,0.342-1.238,0.622-1.526,0.837
	c-0.288,0.216-0.432,0.554-0.432,1.013c0,0.396,0.146,0.745,0.439,1.046c0.292,0.302,0.628,0.453,1.006,0.453
	c0.793,0,2.332-0.878,4.619-2.634v12.291c0,0.721,0.167,1.265,0.5,1.634c0.333,0.369,0.774,0.554,1.324,0.554
	c1.233,0,1.85-0.905,1.85-2.714V28.856c0-0.648-0.144-1.157-0.432-1.526C26.031,26.961,25.648,26.777,25.171,26.777z"/>
<path d="M41.608,26.777c-0.423,0-0.711,0.081-0.865,0.243c-0.153,0.162-0.481,0.595-0.986,1.297
	c-0.504,0.702-1.083,1.337-1.735,1.904c-0.653,0.567-1.524,1.107-2.613,1.621c-0.729,0.342-1.238,0.622-1.526,0.837
	c-0.288,0.216-0.432,0.554-0.432,1.013c0,0.396,0.146,0.745,0.439,1.046c0.292,0.302,0.628,0.453,1.006,0.453
	c0.792,0,2.332-0.878,4.619-2.634v12.291c0,0.721,0.166,1.265,0.5,1.634c0.333,0.369,0.774,0.554,1.324,0.554
	c1.233,0,1.85-0.905,1.85-2.714V28.856c0-0.648-0.144-1.157-0.432-1.526C42.468,26.961,42.085,26.777,41.608,26.777z"/>
</svg>
