<?xml version="1.0" encoding="utf-8"?>
<!-- Generator: Adobe Illustrator 17.0.0, SVG Export Plug-In . SVG Version: 6.00 Build 0)  -->
<!DOCTYPE svg PUBLIC "-//W3C//DTD SVG 1.1//EN" "http://www.w3.org/Graphics/SVG/1.1/DTD/svg11.dtd">
<svg version="1.1" id="Capa_1" xmlns="http://www.w3.org/2000/svg" xmlns:xlink="http://www.w3.org/1999/xlink" x="0px" y="0px"
	 width="64px" height="64px" viewBox="0 0 64 64" enable-background="new 0 0 64 64" xml:space="preserve">
<g>
	<path d="M47.25,13.138h-4.5V10c0-0.828-0.671-1.5-1.5-1.5c-0.829,0-1.5,0.672-1.5,1.5v3.138H24.083V10c0-0.828-0.671-1.5-1.5-1.5
		c-0.829,0-1.5,0.672-1.5,1.5v3.138H16.75c-6.341,0-11.5,5.159-11.5,11.5V44c0,6.341,5.159,11.5,11.5,11.5h30.5
		c6.341,0,11.5-5.159,11.5-11.5V24.638C58.75,18.297,53.591,13.138,47.25,13.138z M55.75,44c0,4.687-3.813,8.5-8.5,8.5h-30.5
		c-4.687,0-8.5-3.813-8.5-8.5V24.638c0-4.686,3.813-8.5,8.5-8.5h4.333v3.971c0,0.828,0.671,1.5,1.5,1.5c0.829,0,1.5-0.672,1.5-1.5
		v-3.971H39.75v3.971c0,0.828,0.671,1.5,1.5,1.5c0.829,0,1.5-0.672,1.5-1.5v-3.971h4.5c4.687,0,8.5,3.814,8.5,8.5V44z"/>
	<path d="M17.429,25.642c-2.955,0-5.359,2.403-5.359,5.358s2.404,5.358,5.359,5.358c2.955,0,5.358-2.403,5.358-5.358
		S20.383,25.642,17.429,25.642z M17.429,33.358c-1.301,0-2.359-1.058-2.359-2.358s1.058-2.358,2.359-2.358
		c1.3,0,2.358,1.058,2.358,2.358S18.729,33.358,17.429,33.358z"/>
	<path d="M32,25.642c-2.955,0-5.359,2.403-5.359,5.358s2.404,5.358,5.359,5.358c2.955,0,5.358-2.403,5.358-5.358
		S34.955,25.642,32,25.642z M32,33.358c-1.301,0-2.359-1.058-2.359-2.358s1.058-2.358,2.359-2.358c1.3,0,2.358,1.058,2.358,2.358
		S33.3,33.358,32,33.358z"/>
	<path d="M46.571,25.642c-2.955,0-5.359,2.403-5.359,5.358s2.404,5.358,5.359,5.358c2.955,0,5.358-2.403,5.358-5.358
		S49.526,25.642,46.571,25.642z M46.571,33.358c-1.301,0-2.359-1.058-2.359-2.358s1.058-2.358,2.359-2.358
		c1.3,0,2.358,1.058,2.358,2.358S47.872,33.358,46.571,33.358z"/>
	<path d="M17.429,38.654c-2.955,0-5.359,2.403-5.359,5.358s2.404,5.358,5.359,5.358c2.955,0,5.358-2.403,5.358-5.358
		S20.383,38.654,17.429,38.654z M17.429,46.371c-1.301,0-2.359-1.058-2.359-2.358s1.058-2.358,2.359-2.358
		c1.3,0,2.358,1.058,2.358,2.358S18.729,46.371,17.429,46.371z"/>
	<path d="M32,38.654c-2.955,0-5.359,2.403-5.359,5.358s2.404,5.358,5.359,5.358c2.955,0,5.358-2.403,5.358-5.358
		S34.955,38.654,32,38.654z M32,46.371c-1.301,0-2.359-1.058-2.359-2.358s1.058-2.358,2.359-2.358c1.3,0,2.358,1.058,2.358,2.358
		S33.3,46.371,32,46.371z"/>
	<path d="M46.571,38.654c-2.955,0-5.359,2.403-5.359,5.358s2.404,5.358,5.359,5.358c2.955,0,5.358-2.403,5.358-5.358
		S49.526,38.654,46.571,38.654z M46.571,46.371c-1.301,0-2.359-1.058-2.359-2.358s1.058-2.358,2.359-2.358
		c1.3,0,2.358,1.058,2.358,2.358S47.872,46.371,46.571,46.371z"/>
</g>
</svg>
