<?xml version="1.0" encoding="utf-8"?>
<!-- Generator: Adobe Illustrator 17.0.0, SVG Export Plug-In . SVG Version: 6.00 Build 0)  -->
<!DOCTYPE svg PUBLIC "-//W3C//DTD SVG 1.1//EN" "http://www.w3.org/Graphics/SVG/1.1/DTD/svg11.dtd">
<svg version="1.1" id="Capa_1" xmlns="http://www.w3.org/2000/svg" xmlns:xlink="http://www.w3.org/1999/xlink" x="0px" y="0px"
	 width="64px" height="64px" viewBox="0 0 64 64" enable-background="new 0 0 64 64" xml:space="preserve">
<g>
	<path d="M47.918,24.531h-3.854l-1.809-6.287c-0.247-0.857-1.03-1.447-1.922-1.447h-15c-0.855,0-1.616,0.544-1.893,1.354
		l-2.18,6.381h-3.93c-6.617,0-12,5.383-12,12V48.67c0,6.617,5.383,12,12,12h30.587c6.617,0,12-5.383,12-12V36.531
		C59.918,29.914,54.535,24.531,47.918,24.531z M26.764,20.797h12.064l1.075,3.734H25.488L26.764,20.797z M55.918,48.67
		c0,4.411-3.589,8-8,8H17.331c-4.411,0-8-3.589-8-8V36.531c0-4.411,3.589-8,8-8h5.349c0.004,0,0.008,0.001,0.012,0.001
		c0.002,0,0.004-0.001,0.006-0.001h25.221c4.411,0,8,3.589,8,8V48.67z"/>
	<path d="M32.625,30.667c-6.58,0-11.934,5.354-11.934,11.934s5.354,11.934,11.934,11.934c6.58,0,11.934-5.354,11.934-11.934
		S39.205,30.667,32.625,30.667z M32.625,50.534c-4.375,0-7.934-3.559-7.934-7.934s3.559-7.934,7.934-7.934
		c4.374,0,7.934,3.559,7.934,7.934S36.999,50.534,32.625,50.534z"/>
	<path d="M32.56,12.328c0.829,0,1.5-0.672,1.5-1.5V4.695c0-0.828-0.671-1.5-1.5-1.5c-0.829,0-1.5,0.672-1.5,1.5v6.133
		C31.06,11.656,31.732,12.328,32.56,12.328z"/>
	<path d="M26.133,14.49c0.293,0.293,0.677,0.439,1.061,0.439c0.384,0,0.768-0.146,1.06-0.439c0.586-0.586,0.586-1.535,0-2.121
		l-4.337-4.336c-0.586-0.586-1.536-0.586-2.121,0c-0.586,0.586-0.586,1.535,0,2.121L26.133,14.49z"/>
	<path d="M38.057,14.93c0.384,0,0.768-0.146,1.061-0.439l4.337-4.336c0.586-0.586,0.586-1.535,0-2.121
		c-0.585-0.586-1.535-0.586-2.121,0l-4.337,4.336c-0.586,0.586-0.586,1.535,0,2.121C37.289,14.783,37.673,14.93,38.057,14.93z"/>
</g>
</svg>
