<?xml version="1.0" encoding="utf-8"?>
<!-- Generator: Adobe Illustrator 17.0.0, SVG Export Plug-In . SVG Version: 6.00 Build 0)  -->
<!DOCTYPE svg PUBLIC "-//W3C//DTD SVG 1.1//EN" "http://www.w3.org/Graphics/SVG/1.1/DTD/svg11.dtd">
<svg version="1.1" id="Capa_1" xmlns="http://www.w3.org/2000/svg" xmlns:xlink="http://www.w3.org/1999/xlink" x="0px" y="0px"
	 width="64px" height="64px" viewBox="0 0 64 64" enable-background="new 0 0 64 64" xml:space="preserve">
<g>
	<path d="M34.48,59.158c-2.864,0-5.195-2.331-5.195-5.195c0-2.864,2.331-5.195,5.195-5.195c2.864,0,5.195,2.331,5.195,5.195
		C39.676,56.827,37.345,59.158,34.48,59.158z M34.48,51.768c-1.211,0-2.195,0.984-2.195,2.195c0,1.211,0.984,2.195,2.195,2.195
		c1.211,0,2.195-0.984,2.195-2.195C36.676,52.752,35.691,51.768,34.48,51.768z"/>
</g>
<g>
	<path d="M47.13,59.158c-2.864,0-5.195-2.331-5.195-5.195c0-2.864,2.331-5.195,5.195-5.195c2.864,0,5.195,2.331,5.195,5.195
		C52.325,56.827,49.994,59.158,47.13,59.158z M47.13,51.768c-1.211,0-2.195,0.984-2.195,2.195c0,1.211,0.984,2.195,2.195,2.195
		c1.211,0,2.195-0.984,2.195-2.195C49.325,52.752,48.341,51.768,47.13,51.768z"/>
</g>
<g>
	<path d="M51.535,25.6h-31.44l-1.227-3.611c-1.697-5.215-5.6-9.147-9.076-9.147H4.781c-0.828,0-1.5,0.672-1.5,1.5s0.672,1.5,1.5,1.5
		h5.011c1.854,0,4.866,2.905,6.229,7.094l6.441,18.941c1.669,5.129,7.201,9.146,12.594,9.146h11.3c5.451,0,10.683-4.16,11.91-9.472
		l1.34-5.804c0.617-2.674,0.11-5.211-1.428-7.146C56.64,26.665,54.28,25.6,51.535,25.6z M56.683,35.07l-1.34,5.804
		c-0.91,3.941-4.941,7.147-8.986,7.147h-11.3c-4.032,0-8.493-3.239-9.747-7.093L21.116,28.6h30.419c1.812,0,3.337,0.663,4.295,1.868
		C56.788,31.672,57.091,33.307,56.683,35.07z"/>
</g>
</svg>
