<?xml version="1.0" encoding="utf-8"?>
<!-- Generator: Adobe Illustrator 17.0.0, SVG Export Plug-In . SVG Version: 6.00 Build 0)  -->
<!DOCTYPE svg PUBLIC "-//W3C//DTD SVG 1.1//EN" "http://www.w3.org/Graphics/SVG/1.1/DTD/svg11.dtd">
<svg version="1.1" id="Capa_1" xmlns="http://www.w3.org/2000/svg" xmlns:xlink="http://www.w3.org/1999/xlink" x="0px" y="0px"
	 width="64px" height="64px" viewBox="0 0 64 64" enable-background="new 0 0 64 64" xml:space="preserve">
<g>
	<path d="M12.894,17.583v35.402c0,3.958,3.221,7.179,7.179,7.179h23.854c3.958,0,7.179-3.221,7.179-7.179V17.583
		c0-3.958-3.204-7.179-7.141-7.179c-0.878,0-1.523-0.032-1.992-0.075c0.208-0.491,0.315-1.005,0.315-1.524
		c0-3.404-4.423-5.971-10.288-5.971c-5.865,0-10.288,2.566-10.288,5.971c0,0.519,0.107,1.033,0.315,1.524
		c-0.469,0.043-1.114,0.075-1.992,0.075C16.098,10.404,12.894,13.625,12.894,17.583z M48.106,17.583v35.402
		c0,2.304-1.875,4.179-4.179,4.179H20.073c-2.304,0-4.179-1.875-4.179-4.179V17.583c0-2.304,1.858-4.179,4.141-4.179
		c0.13,0,0.237-0.005,0.362-0.006c-0.476,0.783-0.547,1.67-0.144,2.488c0.786,1.595,3.224,2.625,6.21,2.625H38.04
		c2.987,0,5.425-1.03,6.211-2.625c0.399-0.811,0.332-1.688-0.131-2.467C46.329,13.504,48.106,15.332,48.106,17.583z M32,5.834
		c4.449,0,7.288,1.76,7.288,2.971c0,0.267-0.14,0.555-0.414,0.857c-0.575,0.633-0.733,1.429-0.423,2.128
		c0.199,0.449,0.529,0.789,1.052,1.038c0.154,0.127,1.07,0.892,1.882,1.892c-0.447,0.32-1.618,0.792-3.346,0.792H26.463
		c-1.728,0-2.899-0.472-3.345-0.793c0.88-1.084,1.903-1.908,1.914-1.917c0.365-0.292,0.55-0.721,0.556-1.154
		c0.231-0.664,0.075-1.395-0.461-1.984c-0.275-0.304-0.415-0.592-0.415-0.858C24.712,7.594,27.551,5.834,32,5.834z"/>
	<ellipse cx="32" cy="9.117" rx="5.467" ry="1.89"/>
	<path d="M44.171,25.056c-0.715-0.415-1.634-0.174-2.051,0.542l-2.333,4.01c-0.116,0.2-0.42,0.661-0.744,0.661
		c-0.003,0-0.004,0-0.007,0c-0.373-0.007-1.041-0.514-1.623-1.61c-0.967-1.819-2.383-2.839-3.989-2.871
		c-1.612-0.009-3.151,0.995-4.214,2.819c-0.959,1.645-1.874,2.489-2.337,2.768c-1.409-1.202-3.667-1.157-5.253,0.172l-2,1.677
		c-0.635,0.532-0.718,1.479-0.185,2.113c0.297,0.354,0.722,0.536,1.15,0.536c0.34,0,0.682-0.115,0.963-0.351l1.999-1.677
		c0.507-0.427,1.168-0.429,1.419-0.149c0.51,0.57,1.223,0.844,2.008,0.761c2.203-0.223,4.109-3.108,4.828-4.338
		c0.492-0.843,1.081-1.304,1.564-1.331c0.455,0.009,0.978,0.487,1.399,1.279c1.065,2.004,2.602,3.171,4.215,3.202
		c1.396,0.021,2.578-0.738,3.401-2.151l2.333-4.01C45.129,26.391,44.887,25.473,44.171,25.056z"/>
	<path d="M44.171,40.331c-0.715-0.415-1.634-0.174-2.051,0.542l-2.333,4.01c-0.116,0.2-0.42,0.661-0.744,0.661
		c-0.003,0-0.004,0-0.007,0c-0.373-0.007-1.041-0.514-1.623-1.61c-0.967-1.819-2.383-2.839-3.989-2.871
		c-1.612,0.005-3.151,0.995-4.214,2.819c-0.959,1.645-1.874,2.489-2.337,2.768c-1.409-1.202-3.667-1.158-5.253,0.172l-2,1.677
		c-0.635,0.532-0.718,1.479-0.185,2.113c0.297,0.354,0.722,0.536,1.15,0.536c0.34,0,0.682-0.115,0.963-0.351l1.999-1.677
		c0.507-0.426,1.168-0.429,1.419-0.149c0.51,0.57,1.223,0.844,2.008,0.761c2.203-0.223,4.109-3.107,4.828-4.338
		c0.487-0.835,1.065-1.331,1.55-1.331c0.005,0,0.009,0,0.014,0c0.455,0.009,0.978,0.487,1.399,1.279
		c1.065,2.004,2.602,3.171,4.215,3.202c1.396-0.004,2.578-0.738,3.401-2.151l2.333-4.01C45.129,41.666,44.887,40.748,44.171,40.331z
		"/>
</g>
</svg>
