<?xml version="1.0" encoding="utf-8"?>
<!-- Generator: Adobe Illustrator 17.0.0, SVG Export Plug-In . SVG Version: 6.00 Build 0)  -->
<!DOCTYPE svg PUBLIC "-//W3C//DTD SVG 1.1//EN" "http://www.w3.org/Graphics/SVG/1.1/DTD/svg11.dtd">
<svg version="1.1" id="Capa_1" xmlns="http://www.w3.org/2000/svg" xmlns:xlink="http://www.w3.org/1999/xlink" x="0px" y="0px"
	 width="64px" height="64px" viewBox="0 0 64 64" enable-background="new 0 0 64 64" xml:space="preserve">
<path d="M18.787,60.665h23.853c3.958,0,7.179-3.221,7.179-7.179V18.084c0-3.958-3.204-7.179-7.141-7.179
	c-0.878,0-1.523-0.032-1.992-0.075c0.208-0.492,0.315-1.005,0.315-1.525c0-3.404-4.423-5.971-10.288-5.971
	c-5.865,0-10.288,2.567-10.288,5.971c0,0.52,0.107,1.033,0.315,1.525c-0.469,0.042-1.114,0.075-1.992,0.075
	c-3.938,0-7.141,3.221-7.141,7.179v35.401C11.608,57.444,14.829,60.665,18.787,60.665z M23.746,13.302
	c0.365-0.292,0.55-0.72,0.556-1.154c0.231-0.663,0.075-1.393-0.462-1.985c-0.274-0.302-0.414-0.59-0.414-0.857
	c0-1.211,2.839-2.971,7.288-2.971c4.449,0,7.288,1.759,7.288,2.971c0,0.267-0.139,0.555-0.415,0.858
	c-0.574,0.633-0.732,1.428-0.423,2.127c0.199,0.45,0.53,0.79,1.054,1.039c0.156,0.128,1.073,0.898,1.88,1.89
	c-0.447,0.321-1.618,0.792-3.346,0.792H25.177c-1.728,0-2.899-0.472-3.345-0.792C22.711,14.136,23.735,13.311,23.746,13.302z
	 M14.608,18.084c0-2.304,1.858-4.179,4.141-4.179c0.13,0,0.237-0.005,0.362-0.006c-0.476,0.784-0.547,1.671-0.144,2.489
	c0.786,1.594,3.224,2.624,6.21,2.624h11.577c2.987,0,5.425-1.03,6.211-2.625c0.399-0.811,0.332-1.688-0.131-2.467
	c2.21,0.084,3.987,1.913,3.987,4.164v35.401c0,2.304-1.875,4.179-4.179,4.179H18.787c-2.304,0-4.179-1.875-4.179-4.179V18.084z"/>
<ellipse cx="30.714" cy="9.618" rx="5.467" ry="1.889"/>
</svg>
