<?xml version="1.0" encoding="utf-8"?>
<!-- Generator: Adobe Illustrator 17.0.0, SVG Export Plug-In . SVG Version: 6.00 Build 0)  -->
<!DOCTYPE svg PUBLIC "-//W3C//DTD SVG 1.1//EN" "http://www.w3.org/Graphics/SVG/1.1/DTD/svg11.dtd">
<svg version="1.1" id="Capa_1" xmlns="http://www.w3.org/2000/svg" xmlns:xlink="http://www.w3.org/1999/xlink" x="0px" y="0px"
	 width="64px" height="64px" viewBox="0 0 64 64" enable-background="new 0 0 64 64" xml:space="preserve">
<path d="M31.625,2.833c-15.164,0-27.5,12.336-27.5,27.5s12.336,27.5,27.5,27.5c15.164,0,27.5-12.336,27.5-27.5
	S46.789,2.833,31.625,2.833z M31.625,54.833c-13.509,0-24.5-10.991-24.5-24.5s10.991-24.5,24.5-24.5c13.509,0,24.5,10.991,24.5,24.5
	S45.134,54.833,31.625,54.833z"/>
<path d="M43.118,35.628l-6.447-3.957c-2.077-1.275-4.578-4.271-5.461-6.541l-5.062-13.007c-0.301-0.771-1.169-1.153-1.942-0.854
	c-0.772,0.3-1.154,1.17-0.854,1.942l5.062,13.007c1.12,2.876,4.057,6.395,6.688,8.01l6.447,3.957
	c0.245,0.15,0.516,0.222,0.783,0.222c0.504,0,0.997-0.254,1.28-0.715C44.045,36.985,43.824,36.061,43.118,35.628z"/>
</svg>
