<?xml version="1.0" encoding="utf-8"?>
<!-- Generator: Adobe Illustrator 17.0.0, SVG Export Plug-In . SVG Version: 6.00 Build 0)  -->
<!DOCTYPE svg PUBLIC "-//W3C//DTD SVG 1.1//EN" "http://www.w3.org/Graphics/SVG/1.1/DTD/svg11.dtd">
<svg version="1.1" id="Capa_1" xmlns="http://www.w3.org/2000/svg" xmlns:xlink="http://www.w3.org/1999/xlink" x="0px" y="0px"
	 width="64px" height="64px" viewBox="0 0 64 64" enable-background="new 0 0 64 64" xml:space="preserve">
<path d="M16.018,48.557c1.864,0,3.658-0.4,5.334-1.188c2.188-1.029,5.165-1.264,7.4-0.558c2.811,0.889,5.832,1.104,8.775,0.589
	c1.104-0.192,3.261,0.071,5.054,0.616c1.18,0.359,2.408,0.541,3.651,0.541c6.92,0,12.549-5.629,12.549-12.548
	c0-2.296-0.626-4.541-1.812-6.493c-0.336-0.553-0.73-1.259-1.184-2.067c-1.903-3.396-4.78-8.529-8.576-12.118
	c-3.483-3.294-8.043-5.108-12.838-5.108c-4.334,0-8.558,1.517-11.896,4.272c-3.717,3.069-5.515,6.909-6.379,8.754
	c-0.031,0.068-0.066,0.14-0.099,0.211c-6.911,0.01-12.53,5.635-12.53,12.548C3.469,42.928,9.098,48.557,16.018,48.557z
	 M16.018,26.461c0.226,0,0.448,0.011,0.666,0.029l0.068,0.006l0.063,0c1.076-0.001,1.463-0.829,1.999-1.974
	c0.83-1.773,2.376-5.074,5.572-7.713c2.801-2.312,6.347-3.585,9.985-3.585c4.025,0,7.852,1.523,10.777,4.288
	c3.463,3.274,6.205,8.167,8.02,11.405c0.473,0.843,0.886,1.579,1.236,2.157c0.9,1.483,1.376,3.19,1.376,4.937
	c0,5.265-4.283,9.548-9.549,9.548c-0.947,0-1.882-0.138-2.778-0.411c-1.672-0.508-3.55-0.812-5.023-0.812
	c-0.519,0-0.997,0.037-1.42,0.111c-2.473,0.431-5.001,0.249-7.355-0.495c-2.945-0.932-6.729-0.639-9.582,0.704
	c-1.272,0.599-2.638,0.903-4.057,0.903c-5.266,0-9.549-4.283-9.549-9.548C6.469,30.745,10.752,26.461,16.018,26.461z"/>
</svg>
