<?xml version="1.0" encoding="utf-8"?>
<!-- Generator: Adobe Illustrator 17.0.0, SVG Export Plug-In . SVG Version: 6.00 Build 0)  -->
<!DOCTYPE svg PUBLIC "-//W3C//DTD SVG 1.1//EN" "http://www.w3.org/Graphics/SVG/1.1/DTD/svg11.dtd">
<svg version="1.1" id="Capa_1" xmlns="http://www.w3.org/2000/svg" xmlns:xlink="http://www.w3.org/1999/xlink" x="0px" y="0px"
	 width="64px" height="64px" viewBox="0 0 64 64" enable-background="new 0 0 64 64" xml:space="preserve">
<path d="M34.619,21.745l-2.558,1.715c-2.498,1.674-3.927,3.993-3.92,6.362c0.002,0.586,0.096,1.155,0.264,1.704
	c-2.964,0.304-5.283,2.794-5.997,6.52l-0.579,3.025c-0.459,2.399-0.17,4.31,0.836,5.526c0.715,0.865,1.725,1.322,2.92,1.322h0.001
	c1.274,0,2.7-0.523,4.24-1.555l2.558-1.715c2.498-1.674,3.927-3.993,3.92-6.361c-0.002-0.586-0.096-1.156-0.264-1.705
	c2.964-0.304,5.283-2.794,5.997-6.521l0.579-3.024c0.459-2.399,0.17-4.311-0.836-5.527C40.305,19.726,37.605,19.743,34.619,21.745z"
	/>
<path d="M36.542,10.38c0.377-0.696,0.61-1.48,0.61-2.326c0-2.718-2.212-4.93-4.93-4.93c-2.718,0-4.93,2.211-4.93,4.93
	c0,0.845,0.233,1.629,0.61,2.326C16.685,12.422,8.152,22.257,8.152,34.055c0,13.272,10.798,24.07,24.07,24.07
	c13.272,0,24.07-10.798,24.07-24.07C56.293,22.257,47.76,12.422,36.542,10.38z M30.293,8.055c0-1.064,0.865-1.93,1.93-1.93
	c1.064,0,1.93,0.866,1.93,1.93c0,1.064-0.865,1.93-1.93,1.93C31.158,9.984,30.293,9.119,30.293,8.055z M32.223,55.125
	c-11.618,0-21.07-9.452-21.07-21.07s9.452-21.07,21.07-21.07c11.618,0,21.07,9.452,21.07,21.07S43.841,55.125,32.223,55.125z"/>
</svg>
