<?xml version="1.0" encoding="utf-8"?>
<!-- Generator: Adobe Illustrator 17.0.0, SVG Export Plug-In . SVG Version: 6.00 Build 0)  -->
<!DOCTYPE svg PUBLIC "-//W3C//DTD SVG 1.1//EN" "http://www.w3.org/Graphics/SVG/1.1/DTD/svg11.dtd">
<svg version="1.1" id="Capa_1" xmlns="http://www.w3.org/2000/svg" xmlns:xlink="http://www.w3.org/1999/xlink" x="0px" y="0px"
	 width="64px" height="64px" viewBox="0 0 64 64" enable-background="new 0 0 64 64" xml:space="preserve">
<g>
	<path d="M31.115,61.005C47.108,61.005,60.12,47.993,60.12,32S47.108,2.995,31.115,2.995C15.122,2.995,2.11,16.007,2.11,32
		S15.122,61.005,31.115,61.005z M30.02,6.023v5.44c0,1.008-0.562,1.232-1.258,0.502l-2.571-2.709
		c-0.225-0.237-0.527-0.357-0.83-0.357c-0.283,0-0.566,0.104-0.788,0.314c-0.459,0.436-0.478,1.16-0.042,1.618l5.657,5.957
		c0.214,0.225,0.51,0.353,0.819,0.356c0.312-0.001,0.608-0.121,0.826-0.343l5.852-5.956c0.443-0.451,0.437-1.176-0.014-1.619
		c-0.451-0.442-1.176-0.436-1.618,0.015l-2.564,2.609c-0.706,0.719-1.279,0.485-1.279-0.523V6.023
		c13.469,0.562,24.32,11.414,24.882,24.884h-5.69c-1.008,0-1.232-0.562-0.502-1.258l2.709-2.572c0.237-0.225,0.356-0.527,0.356-0.83
		c0-0.283-0.104-0.566-0.314-0.787c-0.436-0.459-1.16-0.479-1.618-0.043l-5.957,5.658c-0.225,0.213-0.354,0.51-0.356,0.818
		c0.001,0.313,0.121,0.609,0.343,0.826l5.956,5.854c0.451,0.443,1.176,0.436,1.619-0.014c0.442-0.451,0.436-1.176-0.015-1.619
		l-2.609-2.564c-0.719-0.705-0.485-1.279,0.523-1.279h5.555C56.53,46.564,45.679,57.416,32.21,57.978V52.04
		c0-1.008,0.562-1.232,1.258-0.502l2.571,2.709c0.225,0.237,0.527,0.356,0.83,0.356c0.283,0,0.566-0.104,0.788-0.314
		c0.459-0.436,0.478-1.16,0.042-1.618l-5.657-5.957c-0.214-0.225-0.51-0.354-0.819-0.357c-0.312,0.001-0.608,0.121-0.826,0.343
		l-5.853,5.956c-0.443,0.451-0.437,1.176,0.014,1.619c0.451,0.442,1.176,0.436,1.618-0.015l2.564-2.609
		c0.706-0.719,1.279-0.485,1.279,0.523v5.803C16.551,57.416,5.699,46.564,5.138,33.096h5.688c1.008,0,1.232,0.562,0.502,1.258
		l-2.709,2.57c-0.237,0.225-0.356,0.527-0.356,0.83c0,0.283,0.104,0.566,0.314,0.789c0.436,0.459,1.16,0.477,1.618,0.041
		l5.957-5.656c0.225-0.215,0.354-0.51,0.357-0.82c-0.001-0.31-0.121-0.607-0.343-0.826L10.21,25.43
		c-0.451-0.443-1.176-0.438-1.619,0.014c-0.442,0.451-0.435,1.176,0.015,1.617l2.609,2.565c0.719,0.707,0.485,1.279-0.523,1.279
		H5.138C5.7,17.435,16.552,6.584,30.02,6.023z"/>
</g>
</svg>
