<?xml version="1.0" encoding="utf-8"?>
<!-- Generator: Adobe Illustrator 17.0.0, SVG Export Plug-In . SVG Version: 6.00 Build 0)  -->
<!DOCTYPE svg PUBLIC "-//W3C//DTD SVG 1.1//EN" "http://www.w3.org/Graphics/SVG/1.1/DTD/svg11.dtd">
<svg version="1.1" id="Capa_1" xmlns="http://www.w3.org/2000/svg" xmlns:xlink="http://www.w3.org/1999/xlink" x="0px" y="0px"
	 width="64px" height="64px" viewBox="0 0 64 64" enable-background="new 0 0 64 64" xml:space="preserve">
<path d="M58.5,24.801h-53c-0.829,0-1.5,0.671-1.5,1.5v13.585c0,6.341,5.159,11.5,11.5,11.5h33c6.341,0,11.5-5.159,11.5-11.5V26.301
	C60,25.472,59.329,24.801,58.5,24.801z M57,39.886c0,4.687-3.813,8.5-8.5,8.5h-33c-4.687,0-8.5-3.813-8.5-8.5V27.801h50V39.886z"/>
<path d="M5.908,22.801h52.184c0.473,0,0.917-0.223,1.201-0.601c0.283-0.378,0.372-0.868,0.239-1.321
	c-1.425-4.867-5.961-8.266-11.031-8.266h-33c-5.07,0-9.606,3.399-11.031,8.266c-0.133,0.453-0.044,0.943,0.239,1.321
	C4.991,22.578,5.436,22.801,5.908,22.801z M15.5,15.613h33c3.036,0,5.812,1.649,7.317,4.188H8.183
	C9.688,17.262,12.464,15.613,15.5,15.613z"/>
<path d="M15.389,40.491h14.918c2.577,0,4.674-1.937,4.674-4.316c0-2.38-2.097-4.316-4.674-4.316H15.389
	c-2.577,0-4.674,1.936-4.674,4.316C10.715,38.555,12.812,40.491,15.389,40.491z M15.389,34.858h14.918
	c0.907,0,1.674,0.603,1.674,1.316c0,0.713-0.767,1.316-1.674,1.316H15.389c-0.907,0-1.674-0.603-1.674-1.316
	C13.715,35.461,14.482,34.858,15.389,34.858z"/>
<path d="M48.283,41.533c2.955,0,5.358-2.404,5.358-5.358c0-2.955-2.404-5.358-5.358-5.358c-2.955,0-5.359,2.404-5.359,5.358
	C42.924,39.129,45.328,41.533,48.283,41.533z M48.283,33.816c1.3,0,2.358,1.058,2.358,2.358s-1.058,2.358-2.358,2.358
	c-1.301,0-2.359-1.058-2.359-2.358S46.982,33.816,48.283,33.816z"/>
</svg>
