<?xml version="1.0" encoding="utf-8"?>
<!-- Generator: Adobe Illustrator 17.0.0, SVG Export Plug-In . SVG Version: 6.00 Build 0)  -->
<!DOCTYPE svg PUBLIC "-//W3C//DTD SVG 1.1//EN" "http://www.w3.org/Graphics/SVG/1.1/DTD/svg11.dtd">
<svg version="1.1" id="Capa_1" xmlns="http://www.w3.org/2000/svg" xmlns:xlink="http://www.w3.org/1999/xlink" x="0px" y="0px"
	 width="64px" height="64px" viewBox="0 0 64 64" enable-background="new 0 0 64 64" xml:space="preserve">
<path d="M13.846,33.911c-2.286,1.834-3.833,4.365-4.356,7.127c-0.441,2.328,0.514,5.237,2.557,7.782
	c2.043,2.544,4.677,4.107,7.045,4.18c2.786,0.087,5.625-0.884,7.899-2.711l3.474-2.789c1.307-1.049,3.767-1.049,5.071,0l3.475,2.789
	c2.182,1.751,4.865,2.716,7.555,2.716c0.115,0,0.23-0.001,0.345-0.005c2.368-0.073,5.002-1.635,7.045-4.18
	c2.043-2.545,2.998-5.454,2.557-7.782c-0.523-2.761-2.07-5.292-4.355-7.126l-1.919-1.541c-0.151-0.121-0.234-0.252-0.234-0.37
	c0-0.118,0.083-0.25,0.234-0.371l1.917-1.54c2.286-1.834,3.833-4.365,4.356-7.126c0.441-2.328-0.514-5.237-2.557-7.782
	c-2.043-2.545-4.677-4.107-7.045-4.18c-2.772-0.082-5.624,0.885-7.9,2.711l-3.473,2.788c-1.307,1.048-3.765,1.048-5.069,0
	l-3.475-2.789c-2.274-1.826-5.113-2.792-7.899-2.711c-2.368,0.073-5.002,1.635-7.045,4.18c-2.043,2.545-2.998,5.454-2.557,7.782
	c0.524,2.761,2.07,5.292,4.357,7.126l1.917,1.54c0.151,0.121,0.234,0.252,0.234,0.371c0,0.118-0.083,0.25-0.234,0.37L13.846,33.911z
	 M17.643,29.29l-1.919-1.541c-1.729-1.387-2.896-3.286-3.286-5.346c-0.271-1.433,0.493-3.531,1.949-5.345
	c1.456-1.813,3.339-3.014,4.797-3.059l0.253-0.004c2.009,0,4.025,0.73,5.677,2.056l3.475,2.789c1.193,0.958,2.76,1.485,4.412,1.485
	c1.652,0,3.219-0.527,4.412-1.485l3.474-2.789c1.652-1.326,3.669-2.056,5.678-2.056L46.816,14c1.458,0.044,3.341,1.245,4.797,3.059
	c1.456,1.814,2.221,3.912,1.949,5.345c-0.391,2.06-1.558,3.958-3.287,5.346l-1.918,1.54c-0.861,0.692-1.355,1.68-1.355,2.71
	c0,1.03,0.494,2.018,1.355,2.71l1.92,1.541c1.729,1.387,2.896,3.286,3.286,5.346c0.272,1.433-0.493,3.531-1.949,5.345
	c-1.456,1.813-3.339,3.014-4.797,3.059l-0.253,0.004c-2.01,0-4.025-0.73-5.677-2.056l-3.475-2.789
	c-1.193-0.958-2.761-1.485-4.413-1.485c-1.652,0-3.22,0.528-4.414,1.486l-3.473,2.788c-1.652,1.326-3.669,2.056-5.678,2.056
	L19.183,50c-1.458-0.044-3.341-1.245-4.797-3.059c-1.456-1.813-2.221-3.912-1.949-5.345c0.391-2.06,1.558-3.958,3.287-5.345
	l1.919-1.541c0.861-0.692,1.355-1.68,1.355-2.71C18.998,30.969,18.504,29.981,17.643,29.29z"/>
</svg>
