<?xml version="1.0" encoding="utf-8"?>
<!-- Generator: Adobe Illustrator 17.0.0, SVG Export Plug-In . SVG Version: 6.00 Build 0)  -->
<!DOCTYPE svg PUBLIC "-//W3C//DTD SVG 1.1//EN" "http://www.w3.org/Graphics/SVG/1.1/DTD/svg11.dtd">
<svg version="1.1" id="Capa_1" xmlns="http://www.w3.org/2000/svg" xmlns:xlink="http://www.w3.org/1999/xlink" x="0px" y="0px"
	 width="64px" height="64px" viewBox="0 0 64 64" enable-background="new 0 0 64 64" xml:space="preserve">
<path d="M53.344,19.917h-6.021c-1.755,0-3.182-1.427-3.182-3.181v-6.022c0-3.258-2.65-5.909-5.908-5.909H26.869
	c-3.258,0-5.908,2.651-5.908,5.909v6.022c0,1.754-1.427,3.181-3.182,3.181h-6.022c-3.258,0-5.908,2.651-5.908,5.909v11.362
	c0,3.258,2.65,5.909,5.908,5.909h6.022c1.755,0,3.182,1.427,3.182,3.181V52.3c0,3.258,2.65,5.909,5.908,5.909h11.363
	c3.258,0,5.908-2.651,5.908-5.909v-6.022c0-1.754,1.427-3.181,3.182-3.181h6.021c3.258,0,5.908-2.651,5.908-5.909V25.826
	C59.252,22.568,56.602,19.917,53.344,19.917z M56.525,37.188c0,1.754-1.428,3.182-3.182,3.182h-6.021
	c-3.258,0-5.909,2.65-5.909,5.908V52.3c0,1.754-1.427,3.182-3.181,3.182H26.869c-1.754,0-3.181-1.427-3.181-3.182v-6.022
	c0-3.258-2.651-5.908-5.909-5.908h-6.022c-1.754,0-3.182-1.428-3.182-3.182V25.826c0-1.754,1.428-3.182,3.182-3.182h6.022
	c3.258,0,5.909-2.65,5.909-5.908v-6.022c0-1.754,1.427-3.182,3.181-3.182h11.363c1.754,0,3.181,1.427,3.181,3.182v6.022
	c0,3.258,2.651,5.908,5.909,5.908h6.021c1.754,0,3.182,1.428,3.182,3.182V37.188z"/>
</svg>
