<?xml version="1.0" encoding="utf-8"?>
<!-- Generator: Adobe Illustrator 17.0.0, SVG Export Plug-In . SVG Version: 6.00 Build 0)  -->
<!DOCTYPE svg PUBLIC "-//W3C//DTD SVG 1.1//EN" "http://www.w3.org/Graphics/SVG/1.1/DTD/svg11.dtd">
<svg version="1.1" id="Capa_1" xmlns="http://www.w3.org/2000/svg" xmlns:xlink="http://www.w3.org/1999/xlink" x="0px" y="0px"
	 width="64px" height="64px" viewBox="0 0 64 64" enable-background="new 0 0 64 64" xml:space="preserve">
<g>
	<path d="M10.001,31.196c-1.563,2.191-1.855,5.049-0.822,8.045l2.189,6.351c2.021,5.869,8.469,10.466,14.676,10.466h5.088
		c4.679,0,9.347-2.643,12.11-6.494l4.164-0.007c3.058-0.006,6.677-3.16,8.239-7.182c2.727-7.015,1.814-8.175,1.515-8.556
		c-1.023-1.301-4.544-1.441-6.011-1.441H47c-0.166,0-0.323,0.033-0.473,0.083c-0.219-0.434-0.463-0.855-0.76-1.249
		c-1.663-2.201-4.315-3.413-7.468-3.413H17.339C14.17,27.799,11.563,29.006,10.001,31.196z M45.305,45.347l1.708-6.019
		c0.388-1.364,0.496-2.694,0.363-3.95h3.772c1.516,0,2.723,0.177,3.38,0.338c-0.147,0.952-0.654,2.932-1.681,5.573
		c-1.204,3.1-3.838,5.265-5.447,5.267l-2.513,0.004C45.046,46.162,45.187,45.758,45.305,45.347z M12.443,32.938
		c0.984-1.38,2.723-2.14,4.896-2.14H38.3c2.189,0,3.991,0.789,5.074,2.222c1.083,1.433,1.35,3.382,0.752,5.489l-1.708,6.019
		c-1.334,4.703-6.398,8.529-11.287,8.529h-5.088c-4.841,0-10.263-3.866-11.84-8.442l-2.188-6.351
		C11.308,36.21,11.459,34.318,12.443,32.938z"/>
	<path d="M23.032,9.058c-3.504-2.092-5.689,1.595-5.908,4.414c-0.209,2.709,1.49,5.441,2.916,6.977
		c0.875,0.941,0.821,1.883,0.436,2.679c-0.702,1.446,0.235,2.77,1.723,1.092c0.957-1.08,1.293-2.672,0.743-3.771
		c-1.024-2.048-1.194-3.072,0.512-8.192C24.081,10.373,23.724,9.47,23.032,9.058z"/>
	<path d="M33.933,9.058c-3.504-2.092-5.689,1.595-5.908,4.414c-0.209,2.709,1.49,5.441,2.916,6.977
		c0.875,0.941,0.821,1.883,0.436,2.679c-0.702,1.446,0.235,2.77,1.723,1.092c0.957-1.08,1.293-2.672,0.743-3.771
		c-1.024-2.048-1.194-3.072,0.512-8.192C34.981,10.373,34.624,9.47,33.933,9.058z"/>
</g>
</svg>
