<?xml version="1.0" encoding="utf-8"?>
<!-- Generator: Adobe Illustrator 17.0.0, SVG Export Plug-In . SVG Version: 6.00 Build 0)  -->
<!DOCTYPE svg PUBLIC "-//W3C//DTD SVG 1.1//EN" "http://www.w3.org/Graphics/SVG/1.1/DTD/svg11.dtd">
<svg version="1.1" id="Capa_1" xmlns="http://www.w3.org/2000/svg" xmlns:xlink="http://www.w3.org/1999/xlink" x="0px" y="0px"
	 width="64px" height="64px" viewBox="0 0 64 64" enable-background="new 0 0 64 64" xml:space="preserve">
<g>
	<path d="M45.308,21.77c-0.645,0.521-0.746,1.465-0.226,2.109c2.942,3.647,4.497,8.058,4.496,12.754
		c0,11.209-9.119,20.328-20.329,20.328c-11.21,0-20.329-9.119-20.329-20.328c0-7.799,4.537-14.767,11.219-18.149
		c2.463-1.247,4.161,0.491,3.503,3.173l-1.262,5.14c-0.198,0.804,0.294,1.616,1.099,1.814c0.12,0.029,0.241,0.043,0.359,0.043
		c0.675,0,1.288-0.458,1.456-1.143l3.316-13.497c0.185-0.752-0.234-1.522-0.967-1.775L13.649,7.402
		c-0.392-0.135-0.801-0.1-1.146,0.068c-0.585,0.285-0.977,1.42-0.693,2.006c0.168,0.346,0.468,0.627,0.859,0.762l6.18,2.136
		c2.61,0.901,2.517,2.134,0.047,3.369c-7.725,3.865-12.975,11.9-12.975,20.89c0,12.863,10.465,23.328,23.329,23.328
		c12.863,0,23.329-10.465,23.329-23.328c0-5.312-1.833-10.51-5.161-14.637C46.897,21.351,45.954,21.25,45.308,21.77z"/>
</g>
</svg>
