<?xml version="1.0" encoding="utf-8"?>
<!-- Generator: Adobe Illustrator 17.0.0, SVG Export Plug-In . SVG Version: 6.00 Build 0)  -->
<!DOCTYPE svg PUBLIC "-//W3C//DTD SVG 1.1//EN" "http://www.w3.org/Graphics/SVG/1.1/DTD/svg11.dtd">
<svg version="1.1" id="Capa_1" xmlns="http://www.w3.org/2000/svg" xmlns:xlink="http://www.w3.org/1999/xlink" x="0px" y="0px"
	 width="64px" height="64px" viewBox="0 0 64 64" enable-background="new 0 0 64 64" xml:space="preserve">
<path d="M40.146,46.667c7.439-3.274,12.652-10.706,12.652-19.341c0-11.651-9.48-21.131-21.131-21.131s-21.131,9.479-21.131,21.131
	c0,8.781,5.387,16.324,13.027,19.509l-6.664,10.851c-0.434,0.706-0.213,1.629,0.493,2.063c0.245,0.151,0.515,0.222,0.784,0.222
	c0.504,0,0.996-0.254,1.28-0.715l7.042-11.465c1.658,0.419,3.383,0.666,5.169,0.666c1.937,0,3.806-0.284,5.589-0.774
	c0.011,0.019,0.017,0.04,0.029,0.06l7.072,11.514c0.283,0.461,0.775,0.715,1.279,0.715c0.268,0,0.539-0.072,0.785-0.222
	c0.706-0.433,0.927-1.357,0.493-2.063L40.146,46.667z M13.536,27.326c0-9.997,8.134-18.131,18.131-18.131
	s18.131,8.134,18.131,18.131s-8.134,18.131-18.131,18.131S13.536,37.323,13.536,27.326z M31.667,13.42
	c-7.669,0-13.907,6.238-13.907,13.906c0,7.669,6.238,13.907,13.907,13.907c7.668,0,13.906-6.238,13.906-13.907
	C45.573,19.658,39.335,13.42,31.667,13.42z M31.667,38.233c-6.015,0-10.907-4.893-10.907-10.907c0-6.014,4.892-10.906,10.907-10.906
	c6.014,0,10.906,4.893,10.906,10.906C42.573,33.341,37.681,38.233,31.667,38.233z M31.667,20.933c-3.526,0-6.395,2.868-6.395,6.394
	s2.868,6.394,6.395,6.394c3.526,0,6.394-2.868,6.394-6.394S35.193,20.933,31.667,20.933z M31.667,30.721
	c-1.872,0-3.395-1.522-3.395-3.394c0-1.871,1.522-3.394,3.395-3.394c1.872,0,3.394,1.522,3.394,3.394
	C35.061,29.198,33.539,30.721,31.667,30.721z"/>
</svg>
