<?xml version="1.0" encoding="utf-8"?>
<!-- Generator: Adobe Illustrator 17.0.0, SVG Export Plug-In . SVG Version: 6.00 Build 0)  -->
<!DOCTYPE svg PUBLIC "-//W3C//DTD SVG 1.1//EN" "http://www.w3.org/Graphics/SVG/1.1/DTD/svg11.dtd">
<svg version="1.1" id="Capa_1" xmlns="http://www.w3.org/2000/svg" xmlns:xlink="http://www.w3.org/1999/xlink" x="0px" y="0px"
	 width="64px" height="64px" viewBox="0 0 64 64" enable-background="new 0 0 64 64" xml:space="preserve">
<g>
	<path d="M46.98,5.249H36.646c-0.038,0-0.074,0.008-0.111,0.011c-0.074-0.001-0.146-0.011-0.222-0.011h-14.5
		c-6.341,0-11.5,5.159-11.5,11.5v0.519H6.938c-0.828,0-1.5,0.671-1.5,1.5c0,0.829,0.672,1.5,1.5,1.5h3.375v10.25H6.938
		c-0.828,0-1.5,0.671-1.5,1.5c0,0.829,0.672,1.5,1.5,1.5h3.375v10.25H6.938c-0.828,0-1.5,0.671-1.5,1.5c0,0.829,0.672,1.5,1.5,1.5
		h3.487c0.747,5.624,5.562,9.981,11.388,9.981h14.5c6.341,0,11.5-5.159,11.5-11.5v-0.008h4.167c0.828,0,1.5-0.671,1.5-1.5v-9.185
		v-0.084v-9.185V11.75C53.48,8.165,50.564,5.249,46.98,5.249z M44.813,25.288v9.185v0.084v9.185v1.508c0,4.687-3.813,8.5-8.5,8.5
		h-14.5c-4.167,0-7.637-3.018-8.356-6.981h3.231c0.828,0,1.5-0.671,1.5-1.5c0-0.829-0.672-1.5-1.5-1.5h-3.375v-10.25h3.375
		c0.828,0,1.5-0.671,1.5-1.5c0-0.829-0.672-1.5-1.5-1.5h-3.375v-10.25h3.375c0.828,0,1.5-0.671,1.5-1.5c0-0.829-0.672-1.5-1.5-1.5
		h-3.375V16.75c0-4.687,3.814-8.5,8.5-8.5h14.5c4.687,0,8.5,3.813,8.5,8.5V25.288z M50.48,42.241h-2.667v-6.185h2.667V42.241z
		 M50.48,32.972h-2.667v-6.185h2.667V32.972z M50.48,23.788h-2.667V16.75c0-3.369-1.465-6.395-3.781-8.5h2.948
		c1.93,0,3.5,1.57,3.5,3.5V23.788z"/>
</g>
</svg>
