<?xml version="1.0" encoding="utf-8"?>
<!-- Generator: Adobe Illustrator 17.0.0, SVG Export Plug-In . SVG Version: 6.00 Build 0)  -->
<!DOCTYPE svg PUBLIC "-//W3C//DTD SVG 1.1//EN" "http://www.w3.org/Graphics/SVG/1.1/DTD/svg11.dtd">
<svg version="1.1" id="Capa_1" xmlns="http://www.w3.org/2000/svg" xmlns:xlink="http://www.w3.org/1999/xlink" x="0px" y="0px"
	 width="64px" height="64px" viewBox="0 0 64 64" enable-background="new 0 0 64 64" xml:space="preserve">
<path d="M48.166,4.333H16.5c-6.341,0-11.5,5.159-11.5,11.5v32.333c0,6.341,5.159,11.5,11.5,11.5h31.666
	c6.341,0,11.5-5.159,11.5-11.5V15.833C59.666,9.492,54.507,4.333,48.166,4.333z M56.666,48.167c0,4.687-3.814,8.5-8.5,8.5H16.5
	c-4.687,0-8.5-3.813-8.5-8.5V15.833c0-4.687,3.813-8.5,8.5-8.5h31.666c4.686,0,8.5,3.813,8.5,8.5V48.167z M17.667,10.5
	C14.542,10.5,12,13.042,12,16.167s2.542,5.667,5.667,5.667s5.667-2.542,5.667-5.667S20.792,10.5,17.667,10.5z M17.667,18.834
	c-1.471,0-2.667-1.196-2.667-2.667s1.196-2.667,2.667-2.667s2.667,1.196,2.667,2.667S19.138,18.834,17.667,18.834z M17.667,26.333
	C14.542,26.333,12,28.875,12,32s2.542,5.667,5.667,5.667s5.667-2.542,5.667-5.667S20.792,26.333,17.667,26.333z M17.667,34.667
	C16.196,34.667,15,33.471,15,32s1.196-2.667,2.667-2.667s2.667,1.196,2.667,2.667S19.138,34.667,17.667,34.667z M17.667,42.166
	c-3.125,0-5.667,2.542-5.667,5.667s2.542,5.667,5.667,5.667s5.667-2.542,5.667-5.667S20.792,42.166,17.667,42.166z M17.667,50.5
	C16.196,50.5,15,49.304,15,47.833s1.196-2.667,2.667-2.667s2.667,1.196,2.667,2.667S19.138,50.5,17.667,50.5z M46.834,11
	c-3.125,0-5.667,2.542-5.667,5.667s2.542,5.667,5.667,5.667s5.667-2.542,5.667-5.667S49.959,11,46.834,11z M46.834,19.334
	c-1.471,0-2.667-1.196-2.667-2.667S45.363,14,46.834,14s2.667,1.196,2.667,2.667S48.305,19.334,46.834,19.334z M46.834,26.833
	c-3.125,0-5.667,2.542-5.667,5.667s2.542,5.667,5.667,5.667s5.667-2.542,5.667-5.667S49.959,26.833,46.834,26.833z M46.834,35.167
	c-1.471,0-2.667-1.196-2.667-2.667s1.196-2.667,2.667-2.667s2.667,1.196,2.667,2.667S48.305,35.167,46.834,35.167z M46.834,42.667
	c-3.125,0-5.667,2.542-5.667,5.667S43.709,54,46.834,54s5.667-2.542,5.667-5.667S49.959,42.667,46.834,42.667z M46.834,51
	c-1.471,0-2.667-1.196-2.667-2.667s1.196-2.667,2.667-2.667s2.667,1.196,2.667,2.667S48.305,51,46.834,51z"/>
</svg>
