<?xml version="1.0" encoding="utf-8"?>
<!-- Generator: Adobe Illustrator 17.0.0, SVG Export Plug-In . SVG Version: 6.00 Build 0)  -->
<!DOCTYPE svg PUBLIC "-//W3C//DTD SVG 1.1//EN" "http://www.w3.org/Graphics/SVG/1.1/DTD/svg11.dtd">
<svg version="1.1" id="Capa_1" xmlns="http://www.w3.org/2000/svg" xmlns:xlink="http://www.w3.org/1999/xlink" x="0px" y="0px"
	 width="64px" height="64px" viewBox="0 0 64 64" enable-background="new 0 0 64 64" xml:space="preserve">
<path d="M23.333,58.665h19c6.341,0,11.5-5.159,11.5-11.5V16.25c0-0.407-0.165-0.796-0.458-1.079L42.292,4.462
	c-0.28-0.271-0.654-0.421-1.042-0.421H23.333c-6.341,0-11.5,5.159-11.5,11.5v31.624C11.833,53.506,16.992,58.665,23.333,58.665z
	 M42.75,9.076l5.873,5.674h-1.831c-2.228,0-4.041-1.729-4.041-3.854V9.076z M14.833,15.541c0-4.687,3.813-8.5,8.5-8.5H39.75v3.854
	c0,3.78,3.159,6.854,7.041,6.854h4.042v29.415c0,4.687-3.813,8.5-8.5,8.5h-19c-4.687,0-8.5-3.813-8.5-8.5V15.541z"/>
</svg>
