<?xml version="1.0" encoding="utf-8"?>
<!-- Generator: Adobe Illustrator 17.0.0, SVG Export Plug-In . SVG Version: 6.00 Build 0)  -->
<!DOCTYPE svg PUBLIC "-//W3C//DTD SVG 1.1//EN" "http://www.w3.org/Graphics/SVG/1.1/DTD/svg11.dtd">
<svg version="1.1" id="Capa_1" xmlns="http://www.w3.org/2000/svg" xmlns:xlink="http://www.w3.org/1999/xlink" x="0px" y="0px"
	 width="64px" height="64px" viewBox="0 0 64 64" enable-background="new 0 0 64 64" xml:space="preserve">
<g>
	<path d="M30.638,5.249c-14.76,0-26.769,12.008-26.769,26.769c0,14.761,12.009,26.769,26.769,26.769s26.769-12.008,26.769-26.769
		C57.406,17.258,45.397,5.249,30.638,5.249z M30.638,55.788c-13.106,0-23.769-10.663-23.769-23.769
		c0-13.107,10.662-23.769,23.769-23.769s23.769,10.663,23.769,23.769C54.406,45.125,43.744,55.788,30.638,55.788z"/>
	<path d="M30.638,22.81c-5.077,0-9.208,4.131-9.208,9.208c0,5.077,4.131,9.208,9.208,9.208c5.077,0,9.208-4.131,9.208-9.208
		C39.846,26.941,35.715,22.81,30.638,22.81z M30.638,38.227c-3.423,0-6.208-2.785-6.208-6.208c0-3.423,2.785-6.208,6.208-6.208
		c3.423,0,6.208,2.785,6.208,6.208C36.846,35.442,34.06,38.227,30.638,38.227z"/>
</g>
</svg>
