<?xml version="1.0" encoding="utf-8"?>
<!-- Generator: Adobe Illustrator 17.0.0, SVG Export Plug-In . SVG Version: 6.00 Build 0)  -->
<!DOCTYPE svg PUBLIC "-//W3C//DTD SVG 1.1//EN" "http://www.w3.org/Graphics/SVG/1.1/DTD/svg11.dtd">
<svg version="1.1" id="Capa_1" xmlns="http://www.w3.org/2000/svg" xmlns:xlink="http://www.w3.org/1999/xlink" x="0px" y="0px"
	 width="64px" height="64px" viewBox="0 0 64 64" enable-background="new 0 0 64 64" xml:space="preserve">
<g>
	<path d="M30.354,43.269c0.494,0.522,1.181,0.819,1.898,0.825c0.719-0.001,1.406-0.279,1.909-0.792L47.704,29.52
		c1.026-1.042,1.011-2.72-0.031-3.745c-1.043-1.024-2.72-1.009-3.744,0.033l-5.934,6.038c-1.635,1.663-2.96,1.121-2.96-1.211V9.271
		c0-1.399-1.135-2.533-2.534-2.533c-1.399,0-2.534,1.134-2.534,2.533v21.675c0,2.332-1.302,2.852-2.908,1.16l-5.951-6.267
		c-0.52-0.548-1.221-0.824-1.921-0.824c-0.654,0-1.311,0.242-1.823,0.728c-1.062,1.009-1.104,2.684-0.098,3.745L30.354,43.269z"/>
	<path d="M47.704,41.27h-3.261c-2.219,0-5.36,1.495-7.307,3.477l-2.976,3.029c-0.5,0.509-1.178,0.79-1.896,0.791
		c-0.725-0.006-1.421-0.307-1.914-0.828l-2.851-3.001c-1.878-1.977-4.919-3.468-7.072-3.468h-3.134
		c-5.484,0-9.946,4.083-9.946,9.103c0,5.02,4.462,9.103,9.946,9.103h30.409c5.485,0,9.947-4.083,9.947-9.103
		C57.651,45.353,53.189,41.27,47.704,41.27z M47.704,56.475H17.295c-3.83,0-6.946-2.737-6.946-6.103
		c0-3.365,3.116-6.103,6.946-6.103h3.134c1.178,0,3.479,1.041,4.896,2.534l2.849,2.999c1.05,1.108,2.532,1.752,4.083,1.764
		c1.542-0.003,2.979-0.602,4.045-1.688l2.975-3.029c1.492-1.519,3.921-2.579,5.166-2.579h3.261c3.831,0,6.947,2.737,6.947,6.103
		C54.651,53.737,51.535,56.475,47.704,56.475z"/>
</g>
</svg>
