<?xml version="1.0" encoding="utf-8"?>
<!-- Generator: Adobe Illustrator 17.0.0, SVG Export Plug-In . SVG Version: 6.00 Build 0)  -->
<!DOCTYPE svg PUBLIC "-//W3C//DTD SVG 1.1//EN" "http://www.w3.org/Graphics/SVG/1.1/DTD/svg11.dtd">
<svg version="1.1" id="Capa_1" xmlns="http://www.w3.org/2000/svg" xmlns:xlink="http://www.w3.org/1999/xlink" x="0px" y="0px"
	 width="64px" height="64px" viewBox="0 0 64 64" enable-background="new 0 0 64 64" xml:space="preserve">
<path d="M60.377,20.636c-0.778-5.589-5.576-9.909-11.377-9.909H16c-5.8,0-10.598,4.32-11.376,9.909
	c-0.125,0.291-0.151,0.605-0.089,0.902C4.521,21.767,4.5,21.995,4.5,22.227V38c0,3.689,1.753,6.969,4.461,9.075
	c0.013,0.012,0.022,0.025,0.035,0.037c0.02,0.017,0.044,0.022,0.064,0.038C10.993,48.617,13.393,49.5,16,49.5h33
	c6.341,0,11.5-5.159,11.5-11.5V22.227c0-0.233-0.021-0.46-0.035-0.689C60.528,21.241,60.502,20.927,60.377,20.636z M16,13.727h33
	c4.111,0,7.548,2.933,8.331,6.817L42.403,30.621c-0.143,0.059-0.281,0.135-0.405,0.241c-0.033,0.028-0.058,0.062-0.087,0.091
	l-1.96,1.323c-4.038,2.726-10.861,2.726-14.899,0L7.669,20.544C8.453,16.661,11.89,13.727,16,13.727z M7.5,38V24.049l12.226,8.252
	L9.833,43.832C8.392,42.309,7.5,40.258,7.5,38z M16,46.5c-1.346,0-2.614-0.323-3.747-0.882l9.976-11.627l1.143,0.771
	c2.559,1.728,5.843,2.591,9.127,2.591s6.568-0.864,9.128-2.591l1.101-0.743l9.971,11.622C51.58,46.186,50.328,46.5,49,46.5H16z
	 M55.134,43.869l-9.901-11.54l12.268-8.28V38C57.5,40.276,56.596,42.342,55.134,43.869z"/>
</svg>
