<?xml version="1.0" encoding="utf-8"?>
<!-- Generator: Adobe Illustrator 17.0.0, SVG Export Plug-In . SVG Version: 6.00 Build 0)  -->
<!DOCTYPE svg PUBLIC "-//W3C//DTD SVG 1.1//EN" "http://www.w3.org/Graphics/SVG/1.1/DTD/svg11.dtd">
<svg version="1.1" id="Capa_1" xmlns="http://www.w3.org/2000/svg" xmlns:xlink="http://www.w3.org/1999/xlink" x="0px" y="0px"
	 width="64px" height="64px" viewBox="0 0 64 64" enable-background="new 0 0 64 64" xml:space="preserve">
<path d="M45.414,4.333h-24c-6.341,0-11.5,5.159-11.5,11.5V48.25c0,6.341,5.159,11.5,11.5,11.5h24c6.341,0,11.5-5.159,11.5-11.5
	V15.833C56.914,9.492,51.755,4.333,45.414,4.333z M53.914,48.25c0,4.687-3.813,8.5-8.5,8.5h-9.556
	c0.213-0.142,0.423-0.289,0.623-0.466c1-0.889,1.5-2.112,1.5-3.667c0-1.4-0.478-2.578-1.434-3.534
	c-0.955-0.956-2.133-1.434-3.533-1.434c-1.423,0-2.622,0.478-3.6,1.434c-0.979,0.956-1.468,2.134-1.468,3.534
	c0,1.578,0.506,2.806,1.518,3.684c0.197,0.171,0.406,0.312,0.617,0.45h-8.667c-4.687,0-8.5-3.813-8.5-8.5V15.833
	c0-4.687,3.813-8.5,8.5-8.5h9.484c-2.278,0.293-4.343,0.937-6.185,1.945c-2.601,1.423-4.578,3.217-5.934,5.384
	c-1.356,2.167-2.033,4.307-2.033,6.418c0,1.023,0.427,1.972,1.282,2.85c0.856,0.878,1.906,1.317,3.15,1.317
	c2.112,0,3.545-1.256,4.301-3.767c0.8-2.4,1.778-4.217,2.934-5.451c1.156-1.233,2.957-1.851,5.401-1.851
	c2.088,0,3.794,0.612,5.117,1.834c1.322,1.222,1.983,2.723,1.983,4.5c0,0.911-0.217,1.756-0.65,2.534
	c-0.433,0.778-0.967,1.484-1.6,2.117c-0.634,0.633-1.661,1.572-3.084,2.817c-1.622,1.422-2.911,2.65-3.867,3.684
	c-0.955,1.034-1.723,2.233-2.3,3.6c-0.579,1.367-0.867,2.983-0.867,4.851c0,1.489,0.395,2.611,1.183,3.367
	c0.789,0.755,1.762,1.133,2.918,1.133c2.223,0,3.545-1.156,3.967-3.467c0.245-1.089,0.428-1.85,0.55-2.284
	c0.122-0.433,0.295-0.867,0.517-1.3c0.223-0.433,0.562-0.911,1.018-1.433c0.456-0.522,1.062-1.128,1.817-1.817
	c2.733-2.445,4.628-4.184,5.684-5.217c1.055-1.033,1.967-2.261,2.733-3.684c0.767-1.423,1.149-3.079,1.149-4.968
	c0-2.4-0.672-4.623-2.017-6.668c-1.344-2.044-3.25-3.661-5.718-4.85c-1.707-0.823-3.609-1.342-5.681-1.595h8.747
	c4.687,0,8.5,3.813,8.5,8.5V48.25z"/>
</svg>
