<?xml version="1.0" encoding="utf-8"?>
<!-- Generator: Adobe Illustrator 17.0.0, SVG Export Plug-In . SVG Version: 6.00 Build 0)  -->
<!DOCTYPE svg PUBLIC "-//W3C//DTD SVG 1.1//EN" "http://www.w3.org/Graphics/SVG/1.1/DTD/svg11.dtd">
<svg version="1.1" id="Capa_1" xmlns="http://www.w3.org/2000/svg" xmlns:xlink="http://www.w3.org/1999/xlink" x="0px" y="0px"
	 width="64px" height="64px" viewBox="0 0 64 64" enable-background="new 0 0 64 64" xml:space="preserve">
<path d="M57.875,45.25H49.5v-25.5h8.375c0.828,0,1.5-0.672,1.5-1.5s-0.672-1.5-1.5-1.5h-8.451c-0.291-2.898-1.437-6.47-2.852-8.684
	l-0.366-0.573c-0.99-1.549-2.432-2.438-3.956-2.438s-2.966,0.889-3.957,2.438l-0.364,0.571c-1.416,2.214-2.562,5.786-2.853,8.685
	h-6.402c-0.291-2.898-1.436-6.47-2.851-8.684l-0.366-0.573c-0.99-1.549-2.432-2.438-3.956-2.438c-1.524,0-2.966,0.889-3.957,2.438
	L17.18,8.063c-1.416,2.214-2.561,5.786-2.852,8.685H5.875c-0.828,0-1.5,0.672-1.5,1.5s0.672,1.5,1.5,1.5h8.375V45.25H5.875
	c-0.828,0-1.5,0.672-1.5,1.5s0.672,1.5,1.5,1.5h8.375v0.835c0,3.584,2.916,6.5,6.5,6.5h1.5c3.584,0,6.5-2.916,6.5-6.5V48.25H35
	v0.837c0,3.584,2.916,6.5,6.5,6.5H43c3.584,0,6.5-2.916,6.5-6.5V48.25h8.375c0.828,0,1.5-0.672,1.5-1.5S58.703,45.25,57.875,45.25z
	 M25.75,49.087c0,1.93-1.57,3.5-3.5,3.5h-1.5c-1.93,0-3.5-1.57-3.5-3.5v-31c0-2.474,1.125-6.323,2.457-8.407l0.364-0.571
	c0.428-0.669,0.948-1.053,1.429-1.053c0.48,0,1.001,0.384,1.428,1.052l0.366,0.573c1.331,2.083,2.456,5.933,2.456,8.406V49.087z
	 M28.75,45.25v-25.5H35v25.5H28.75z M46.5,49.087c0,1.93-1.57,3.5-3.5,3.5h-1.5c-1.93,0-3.5-1.57-3.5-3.5v-31
	c0-2.474,1.125-6.323,2.457-8.407l0.364-0.571c0.428-0.669,0.948-1.053,1.429-1.053c0.48,0,1.001,0.384,1.428,1.052l0.366,0.573
	c1.331,2.083,2.456,5.933,2.456,8.406V49.087z M23.5,46.75c0,1.105-0.895,2-2,2s-2-0.895-2-2s0.895-2,2-2S23.5,45.645,23.5,46.75z
	 M44.25,46.75c0,1.105-0.895,2-2,2s-2-0.895-2-2s0.895-2,2-2S44.25,45.645,44.25,46.75z M23.5,18.25c0,1.105-0.895,2-2,2
	s-2-0.895-2-2s0.895-2,2-2S23.5,17.145,23.5,18.25z M44.25,18.25c0,1.105-0.895,2-2,2s-2-0.895-2-2s0.895-2,2-2
	S44.25,17.145,44.25,18.25z"/>
</svg>
