<?xml version="1.0" encoding="utf-8"?>
<!-- Generator: Adobe Illustrator 17.0.0, SVG Export Plug-In . SVG Version: 6.00 Build 0)  -->
<!DOCTYPE svg PUBLIC "-//W3C//DTD SVG 1.1//EN" "http://www.w3.org/Graphics/SVG/1.1/DTD/svg11.dtd">
<svg version="1.1" id="Capa_1" xmlns="http://www.w3.org/2000/svg" xmlns:xlink="http://www.w3.org/1999/xlink" x="0px" y="0px"
	 width="64px" height="64px" viewBox="0 0 64 64" enable-background="new 0 0 64 64" xml:space="preserve">
<path d="M41.494,13.631l0.433-3H22.745c-0.514-2.347-2.221-4.038-4.325-4.038c-2.522,0-4.499,2.416-4.499,5.5v40.481
	c0,3.084,1.977,5.5,4.499,5.5c2.524,0,4.5-2.416,4.5-5.5V34.094h15.627l0.432-3H22.92V13.631H41.494z M19.92,52.575
	c0,1.431-0.792,2.5-1.5,2.5s-1.499-1.069-1.499-2.5V12.093c0-1.431,0.791-2.5,1.499-2.5s1.5,1.069,1.5,2.5V52.575z"/>
<path d="M52.697,25.559c-1.208-1.784-1.193-4.788,0.031-6.559l1.315-1.902c1.473-2.132,1.033-3.708,0.64-4.458
	c-0.393-0.75-1.439-2.008-4.031-2.008h-5.694l-0.433,3h6.127c0.921,0,1.302,0.263,1.375,0.401c0.072,0.139,0.072,0.602-0.452,1.359
	l-1.313,1.902c-1.922,2.779-1.942,7.148-0.047,9.948l1.392,2.054c0.45,0.665,0.541,1.184,0.435,1.383
	c-0.105,0.2-0.586,0.416-1.389,0.416h-8.643l-0.432,3h9.074c1.89,0,3.361-0.732,4.039-2.009c0.678-1.277,0.459-2.907-0.602-4.472
	L52.697,25.559z"/>
</svg>
