<?xml version="1.0" encoding="utf-8"?>
<!-- Generator: Adobe Illustrator 17.0.0, SVG Export Plug-In . SVG Version: 6.00 Build 0)  -->
<!DOCTYPE svg PUBLIC "-//W3C//DTD SVG 1.1//EN" "http://www.w3.org/Graphics/SVG/1.1/DTD/svg11.dtd">
<svg version="1.1" id="Capa_1" xmlns="http://www.w3.org/2000/svg" xmlns:xlink="http://www.w3.org/1999/xlink" x="0px" y="0px"
	 width="64px" height="64px" viewBox="0 0 64 64" enable-background="new 0 0 64 64" xml:space="preserve">
<path d="M10.897,52.5c1.111,1.467,2.865,2.275,4.938,2.275h30.598c3.984,0,7.934-3.009,8.991-6.849L59.87,31.79
	c0.55-1.997,0.237-3.904-0.88-5.371c-1.118-1.467-2.873-2.274-4.945-2.274h-3.044l-0.667-2.65c-0.692-2.759-4.368-4.919-8.367-4.919
	H30.727c-2.932,0-4.935-0.6-5.413-0.94c-1.259-2.292-6.867-2.41-8-2.41h-7.27c-2.036,0-3.845,0.798-5.093,2.249
	c-1.248,1.45-1.769,3.356-1.448,5.467l6.338,29.047C9.982,50.906,10.336,51.76,10.897,52.5z M56.603,28.237
	c0.537,0.705,0.669,1.684,0.374,2.756L52.532,47.13c-0.693,2.518-3.486,4.646-6.099,4.646H15.835c-1.112,0-2.016-0.386-2.547-1.086
	c-0.531-0.701-0.657-1.676-0.356-2.746l3.057-10.858c0.709-2.518,3.518-4.646,6.133-4.646h9.751c3.51,0,7.461-1.271,8.219-3.695
	c0.196-0.479,2.256-1.6,5.359-1.6h8.593C55.159,27.145,56.067,27.533,56.603,28.237z M7.225,17.43
	c0.669-0.777,1.671-1.206,2.82-1.206h7.27c2.932,0,4.935,0.6,5.413,0.941c1.26,2.292,6.866,2.41,7.999,2.41h11.241
	c2.743,0,5.144,1.399,5.458,2.65l0.482,1.919h-2.456c-3.511,0-7.461,1.271-8.219,3.695c-0.197,0.479-2.257,1.6-5.359,1.6h-9.751
	c-3.979,0-7.942,3.001-9.021,6.832l-1.793,6.371L6.452,20.396C6.281,19.261,6.556,18.207,7.225,17.43z"/>
</svg>
