<?xml version="1.0" encoding="utf-8"?>
<!-- Generator: Adobe Illustrator 17.0.0, SVG Export Plug-In . SVG Version: 6.00 Build 0)  -->
<!DOCTYPE svg PUBLIC "-//W3C//DTD SVG 1.1//EN" "http://www.w3.org/Graphics/SVG/1.1/DTD/svg11.dtd">
<svg version="1.1" id="Capa_1" xmlns="http://www.w3.org/2000/svg" xmlns:xlink="http://www.w3.org/1999/xlink" x="0px" y="0px"
	 width="64px" height="64px" viewBox="0 0 64 64" enable-background="new 0 0 64 64" xml:space="preserve">
<g>
	<path d="M31.744,25.692c-3.519,0-6.381,2.862-6.381,6.381c0,3.519,2.862,6.381,6.381,6.381c3.519,0,6.381-2.862,6.381-6.381
		C38.125,28.555,35.263,25.692,31.744,25.692z M31.744,35.454c-1.864,0-3.381-1.517-3.381-3.381c0-1.864,1.517-3.381,3.381-3.381
		c1.864,0,3.381,1.517,3.381,3.381C35.125,33.938,33.608,35.454,31.744,35.454z"/>
	<path d="M51.242,21.578c-2.774-0.294-5.382-1.244-6.487-2.363c-0.809-0.817-1.6-1.499-2.177-1.996
		c-0.092-0.079-0.178-0.152-0.257-0.22c0.968-4.861-0.637-9.219-3.749-10.025c-0.338-0.087-0.688-0.132-1.041-0.132
		c-2.838,0-5.669,2.796-7.037,6.877c-0.8,0.112-2.087,0.298-3.474,0.668c-1.399,0.374-2.586,0.855-3.356,1.177
		c-2.173-1.839-4.701-2.921-6.877-2.921c-1.421,0-2.624,0.46-3.477,1.328c-2.215,2.252-1.418,6.692,1.77,10.331
		c-0.301,0.759-0.75,1.927-1.093,3.292c-0.29,1.149-0.468,2.331-0.529,3.525c-4.645,1.606-7.573,5.149-6.72,8.229
		c0.668,2.413,3.375,3.912,7.066,3.912c1,0,2.023-0.113,3.046-0.337c0.086,0.095,0.175,0.193,0.258,0.285
		c0.5,0.558,1.186,1.319,1.994,2.092c1.13,1.078,2.112,3.663,2.444,6.432c0.394,3.275,1.808,5.461,3.882,5.998
		c0.312,0.081,0.637,0.122,0.964,0.122c2.834,0,5.826-3.062,7.494-7.598c0.719-0.093,1.766-0.264,2.905-0.586
		c1.142-0.322,2.115-0.72,2.776-1.015c2.584,2.094,5.449,3.324,7.8,3.324c1.374,0,2.523-0.431,3.326-1.246
		c2.225-2.265,1.229-6.938-2.262-11.086c0.286-0.667,0.67-1.645,0.977-2.792c0.245-0.916,0.425-1.884,0.539-2.92
		c5.054-1.948,8.161-5.533,7.316-8.581C56.693,23.298,54.499,21.922,51.242,21.578z M48.13,31.401
		c-0.305,0.087-1.021,0.402-1.096,1.456c-0.08,1.136-0.256,2.219-0.524,3.221c-0.366,1.372-0.878,2.492-1.097,2.971
		c-0.154,0.338-0.517,1.131,0.2,1.935c3.086,3.353,3.803,6.768,2.94,7.645c-0.284,0.289-0.802,0.35-1.186,0.35
		c-1.796,0-4.35-1.24-6.554-3.202c-0.274-0.245-0.633-0.382-1.001-0.382c-0.352,0-0.58,0.108-0.895,0.257
		c-0.475,0.224-1.586,0.748-2.94,1.131c-1.453,0.41-2.752,0.533-3.18,0.574c-0.966,0.092-1.327,0.639-1.467,1.102
		c-1.384,4.427-3.978,6.675-5.15,6.368c-0.617-0.16-1.398-1.308-1.655-3.451c-0.16-1.337-0.876-5.882-3.352-8.244
		c-0.726-0.693-1.341-1.377-1.834-1.927c-0.879-0.977-1.28-1.424-2.063-1.424c-0.123,0-0.256,0.016-0.375,0.046l-0.361,0.09
		c-0.924,0.229-1.845,0.345-2.735,0.345c-2.144,0-3.9-0.721-4.176-1.713c-0.376-1.359,1.775-3.669,5.218-4.726l0.266-0.082
		c1.041-0.317,1.365-1.085,1.321-1.666c0-1.271,0.155-2.53,0.463-3.746c0.324-1.29,0.774-2.424,1.044-3.101
		c0.325-0.819,0.633-1.593-0.068-2.325l-0.151-0.158c-2.499-2.598-3.26-5.664-2.271-6.669c0.351-0.356,0.922-0.432,1.339-0.432
		c1.593,0,3.648,0.992,5.362,2.587l0.167,0.155c0.276,0.256,0.66,0.403,1.038,0.403c0.376,0,0.641-0.111,1.281-0.38
		c0.688-0.288,1.838-0.771,3.158-1.123c1.255-0.335,2.421-0.498,3.191-0.605c0.986-0.138,1.838-0.257,2.12-1.241l0.075-0.258
		c1.023-3.541,3.303-5.648,4.64-5.303c1.364,0.353,2.289,3.373,1.484,6.885l-0.081,0.354c-0.225,0.981,0.386,1.506,1.396,2.376
		c0.539,0.464,1.277,1.1,2.001,1.832c2.415,2.442,6.967,3.095,8.305,3.236c2.127,0.226,3.278,0.984,3.447,1.594
		C54.702,27.341,52.419,29.979,48.13,31.401z"/>
</g>
</svg>
