<?xml version="1.0" encoding="utf-8"?>
<!-- Generator: Adobe Illustrator 16.0.4, SVG Export Plug-In . SVG Version: 6.00 Build 0)  -->
<!DOCTYPE svg PUBLIC "-//W3C//DTD SVG 1.1//EN" "http://www.w3.org/Graphics/SVG/1.1/DTD/svg11.dtd">
<svg version="1.1" id="Capa_1" xmlns="http://www.w3.org/2000/svg" xmlns:xlink="http://www.w3.org/1999/xlink" x="0px" y="0px"
	 width="64px" height="64px" viewBox="0 0 64 64" enable-background="new 0 0 64 64" xml:space="preserve">
<path d="M52.667,29.758H10.333c-0.829,0-1.5,0.672-1.5,1.5v17.333c0,6.341,5.159,11.5,11.5,11.5h22.334
	c6.341,0,11.5-5.159,11.5-11.5V31.258C54.167,30.43,53.496,29.758,52.667,29.758z M33.62,32.758v24.333h-5.075V32.758H33.62z
	 M11.833,48.591V32.758h13.711v24.333h-5.211C15.646,57.091,11.833,53.277,11.833,48.591z M51.167,48.591c0,4.687-3.813,8.5-8.5,8.5
	H36.62V32.758h14.547V48.591z"/>
<path d="M50.75,14.924h-7.729c0.151-0.336,0.291-0.68,0.416-1.031c1.814-5.073,0.408-10.059-3.201-11.35
	c-0.553-0.198-1.137-0.298-1.733-0.298c-2.631,0-5.312,1.967-7.003,4.979c-1.692-3.013-4.373-4.979-7.003-4.979
	c-0.597,0-1.18,0.1-1.733,0.298c-3.609,1.291-5.016,6.276-3.201,11.351c0.125,0.35,0.265,0.694,0.416,1.03H12.25
	c-3.584,0-6.5,2.879-6.5,6.417v4.917c0,0.828,0.671,1.5,1.5,1.5h48.5c0.829,0,1.5-0.672,1.5-1.5v-4.917
	C57.25,17.803,54.334,14.924,50.75,14.924z M54.25,24.758H8.75v-3.417c0-1.884,1.57-3.417,3.5-3.417h10.339
	c0.567,0,1.086-0.319,1.34-0.826c0.254-0.507,0.202-1.114-0.137-1.569c-0.586-0.788-1.06-1.679-1.406-2.646
	c-1.186-3.315-0.537-6.827,1.387-7.516c0.228-0.081,0.471-0.122,0.723-0.122c1.604,0,3.942,1.771,5.117,5.053
	c0.172,0.48,0.312,0.988,0.416,1.511c0.14,0.701,0.755,1.207,1.471,1.207s1.331-0.506,1.471-1.207
	c0.104-0.523,0.244-1.03,0.416-1.511c1.176-3.282,3.514-5.053,5.117-5.053c0.252,0,0.495,0.041,0.723,0.122
	c1.924,0.688,2.573,4.2,1.389,7.515c-0.348,0.968-0.82,1.858-1.406,2.647c-0.338,0.455-0.391,1.062-0.137,1.569
	c0.254,0.507,0.773,0.826,1.34,0.826H50.75c1.93,0,3.5,1.533,3.5,3.417V24.758z"/>
<path d="M23.477,12.236c-0.763-2.195-0.271-4.361,1.099-4.836c1.369-0.476,3.098,0.918,3.86,3.113s0.271,4.36-1.098,4.836
	C25.968,15.825,24.24,14.431,23.477,12.236z M34.48,10.514c0.762-2.195,2.49-3.589,3.859-3.113c1.37,0.476,1.861,2.641,1.1,4.836
	c-0.764,2.195-2.492,3.589-3.861,3.113C34.209,14.875,33.717,12.709,34.48,10.514z"/>
</svg>
