<?xml version="1.0" encoding="utf-8"?>
<!-- Generator: Adobe Illustrator 17.0.0, SVG Export Plug-In . SVG Version: 6.00 Build 0)  -->
<!DOCTYPE svg PUBLIC "-//W3C//DTD SVG 1.1//EN" "http://www.w3.org/Graphics/SVG/1.1/DTD/svg11.dtd">
<svg version="1.1" id="Capa_1" xmlns="http://www.w3.org/2000/svg" xmlns:xlink="http://www.w3.org/1999/xlink" x="0px" y="0px"
	 width="64px" height="64px" viewBox="0 0 64 64" enable-background="new 0 0 64 64" xml:space="preserve">
<g>
	<path d="M48.391,19.088C48.265,19.055,48.136,19.03,48,19.03c-0.086,0-0.169,0.012-0.251,0.025
		c-0.167-0.007-0.331-0.025-0.499-0.025h-2.567c0.058-0.415,0.087-0.832,0.087-1.25c0-5.652-5.159-10.25-11.5-10.25H31.73
		c-6.341,0-11.5,4.598-11.5,10.25c0,0.418,0.029,0.835,0.087,1.25H17.75c-6.341,0-11.5,5.159-11.5,11.5v9
		c0,6.341,5.159,11.5,11.5,11.5h29.5c0.169,0,0.333-0.019,0.499-0.025c0.082,0.014,0.165,0.025,0.251,0.025
		c0.136,0,0.265-0.024,0.39-0.058c5.808-0.574,10.36-5.486,10.36-11.442v-9C58.75,24.574,54.197,19.663,48.391,19.088z M31.73,10.53
		h1.539c4.687,0,8.5,3.252,8.5,7.25c0,0.397-0.046,0.794-0.124,1.188H23.354c-0.078-0.394-0.124-0.79-0.124-1.188
		C23.23,13.782,27.044,10.53,31.73,10.53z M22.242,22.03c0.141,0,0.277-0.024,0.41-0.062h19.695c0.133,0.038,0.27,0.062,0.41,0.062
		H46.5v26H19.25v-26H22.242z M9.25,39.53v-9c0-4.174,3.027-7.648,7-8.359V47.89C12.277,47.178,9.25,43.704,9.25,39.53z M55.75,39.53
		c0,3.906-2.653,7.198-6.25,8.188V22.342c3.597,0.99,6.25,4.282,6.25,8.188V39.53z"/>
	<path d="M31.308,17.068h2.385c2.762,0,4.99-2.189,3.18-3.673c-1.028-0.843-2.41-1.358-3.93-1.358h-0.885
		c-1.519,0-2.901,0.516-3.93,1.358C26.317,14.879,28.546,17.068,31.308,17.068z"/>
</g>
</svg>
