<?xml version="1.0" encoding="utf-8"?>
<!-- Generator: Adobe Illustrator 17.0.0, SVG Export Plug-In . SVG Version: 6.00 Build 0)  -->
<!DOCTYPE svg PUBLIC "-//W3C//DTD SVG 1.1//EN" "http://www.w3.org/Graphics/SVG/1.1/DTD/svg11.dtd">
<svg version="1.1" id="Capa_1" xmlns="http://www.w3.org/2000/svg" xmlns:xlink="http://www.w3.org/1999/xlink" x="0px" y="0px"
	 width="64px" height="64px" viewBox="0 0 64 64" enable-background="new 0 0 64 64" xml:space="preserve">
<g>
	<path d="M51.862,23.812c-0.451-4.733-4.686-8.584-9.441-8.584h-2.995v-2.801c0-3.732-3.037-6.768-6.769-6.768H29.01
		c-3.733,0-6.769,3.036-6.769,6.768v2.801h-2.643c-4.769,0-8.944,3.869-9.307,8.624l-1.8,23.636
		c-0.18,2.355,0.578,4.575,2.131,6.252c1.554,1.677,3.71,2.601,6.072,2.601h29.356c2.367,0,4.513-0.926,6.042-2.607
		c1.529-1.682,2.247-3.905,2.022-6.262L51.862,23.812z M25.242,12.428c0-2.078,1.69-3.769,3.769-3.769h3.647
		c2.078,0,3.769,1.69,3.769,3.769v2.801H25.242V12.428z M49.873,51.715c-0.953,1.049-2.311,1.626-3.822,1.626H16.695
		c-1.517,0-2.892-0.582-3.871-1.64c-0.98-1.057-1.456-2.473-1.341-3.984l1.8-23.636c0.246-3.228,3.079-5.853,6.315-5.853h2.643
		v3.383c-0.729,0.486-1.21,1.316-1.21,2.256c0,1.493,1.215,2.71,2.71,2.71c1.495,0,2.71-1.217,2.71-2.71
		c0-0.941-0.481-1.77-1.21-2.256v-3.383h11.185v3.243c-0.729,0.486-1.21,1.314-1.21,2.256c0,1.493,1.215,2.71,2.71,2.71
		c1.495,0,2.71-1.217,2.71-2.71c0-0.94-0.481-1.77-1.21-2.255v-3.244h2.995c3.25,0,6.146,2.633,6.455,5.869l2.253,23.659
		C51.272,49.261,50.826,50.667,49.873,51.715z"/>
</g>
</svg>
