<?xml version="1.0" encoding="utf-8"?>
<!-- Generator: Adobe Illustrator 17.0.0, SVG Export Plug-In . SVG Version: 6.00 Build 0)  -->
<!DOCTYPE svg PUBLIC "-//W3C//DTD SVG 1.1//EN" "http://www.w3.org/Graphics/SVG/1.1/DTD/svg11.dtd">
<svg version="1.1" id="Capa_1" xmlns="http://www.w3.org/2000/svg" xmlns:xlink="http://www.w3.org/1999/xlink" x="0px" y="0px"
	 width="64px" height="64px" viewBox="0 0 64 64" enable-background="new 0 0 64 64" xml:space="preserve">
<g>
	<path d="M53.604,44.115L52.9,43.589c-0.106-0.461-0.369-0.888-0.785-1.182l-4.114-2.906c-0.342-0.241-0.733-0.358-1.122-0.364
		c-3.602-2.453-8.102-3.936-12.941-4.248v-2.788c0-0.521,1.201-1.68,2.078-2.525c0.653-0.631,1.329-1.282,1.961-2.016
		c1.398-1.621,2.168-3.643,2.168-5.691c0-6.311-4.123-10.389-10.504-10.389c-4.824,0-8.86,3.198-10.042,7.958
		c-0.199,0.804,0.291,1.617,1.095,1.817c0.806,0.201,1.617-0.291,1.817-1.095c0.843-3.397,3.709-5.681,7.13-5.681
		c4.698,0,7.504,2.762,7.504,7.389c0,1.329-0.512,2.654-1.439,3.731c-0.543,0.629-1.168,1.232-1.773,1.815
		c-1.54,1.486-2.995,2.891-2.995,4.685v2.754c-5.164,0.182-10.021,1.683-13.793,4.301c-0.469-0.052-0.955,0.054-1.37,0.346
		l-4.114,2.906c-0.411,0.291-0.671,0.71-0.781,1.163l-1.3,0.919c-5.737,4.052-6.239,7.112-5.65,8.967
		c0.588,1.854,2.765,4.064,9.788,4.064h35.426c7.01,0,9.235-2.263,9.867-4.162C59.641,51.46,59.217,48.315,53.604,44.115z
		 M56.163,52.411c-0.324,0.974-2.357,2.109-7.021,2.109H13.717c-4.652,0-6.641-1.062-6.929-1.973
		c-0.289-0.91,0.722-2.925,4.522-5.608l1.307-0.923c0.067,0.007,0.133,0.023,0.2,0.023c0.398,0,0.802-0.119,1.152-0.366l4.114-2.906
		c0.408-0.288,0.667-0.704,0.778-1.153c3.528-2.447,8.18-3.798,13.125-3.798c4.826,0,9.343,1.272,12.884,3.579
		c0.07,0.533,0.349,1.037,0.822,1.372l4.114,2.906c0.351,0.247,0.754,0.366,1.152,0.366c0.061,0,0.122-0.016,0.184-0.021
		l0.665,0.498C55.54,49.312,56.486,51.438,56.163,52.411z"/>
</g>
</svg>
