<?xml version="1.0" encoding="utf-8"?>
<!-- Generator: Adobe Illustrator 17.0.0, SVG Export Plug-In . SVG Version: 6.00 Build 0)  -->
<!DOCTYPE svg PUBLIC "-//W3C//DTD SVG 1.1//EN" "http://www.w3.org/Graphics/SVG/1.1/DTD/svg11.dtd">
<svg version="1.1" id="Capa_1" xmlns="http://www.w3.org/2000/svg" xmlns:xlink="http://www.w3.org/1999/xlink" x="0px" y="0px"
	 width="64px" height="64px" viewBox="0 0 64 64" enable-background="new 0 0 64 64" xml:space="preserve">
<g>
	<path d="M23.451,45.318c2.003,2.441,4.842,3.841,7.788,3.841c2.824,0,5.496-1.239,7.522-3.488l12.507-13.888
		c1.8-2.167,3.866-5.144,3.866-8.97c0-6.844-5.567-12.411-12.41-12.411c-2.902,0-5.724,1.024-7.946,2.883
		C33.365,14.468,32.56,14.95,32,14.95c-0.56,0-1.365-0.482-2.78-1.665c-2.222-1.859-5.044-2.883-7.946-2.883
		c-6.843,0-12.41,5.567-12.41,12.411c0,3.869,1.836,6.796,3.473,8.962L23.451,45.318z M21.274,13.402
		c2.199,0,4.337,0.775,6.021,2.184c1.79,1.498,3.134,2.364,4.705,2.364c1.57,0,2.914-0.866,4.704-2.364
		c1.684-1.408,3.822-2.184,6.021-2.184c5.189,0,9.41,4.222,9.41,9.411c0,2.849-1.604,5.163-3.135,7.007L36.532,43.663
		c-1.45,1.609-3.329,2.496-5.292,2.496c-2.075,0-4.017-0.975-5.469-2.743L14.694,29.92c-1.318-1.744-2.83-4.129-2.83-7.106
		C11.864,17.624,16.085,13.402,21.274,13.402z"/>
</g>
</svg>
