<?xml version="1.0" encoding="utf-8"?>
<!-- Generator: Adobe Illustrator 17.0.0, SVG Export Plug-In . SVG Version: 6.00 Build 0)  -->
<!DOCTYPE svg PUBLIC "-//W3C//DTD SVG 1.1//EN" "http://www.w3.org/Graphics/SVG/1.1/DTD/svg11.dtd">
<svg version="1.1" id="Capa_1" xmlns="http://www.w3.org/2000/svg" xmlns:xlink="http://www.w3.org/1999/xlink" x="0px" y="0px"
	 width="64px" height="64px" viewBox="0 0 64 64" enable-background="new 0 0 64 64" xml:space="preserve">
<path d="M23.719,51.287c0,4.903,3.88,8.892,8.648,8.892c4.768,0,8.648-3.989,8.648-8.892c0-4.195,2.225-9.21,2.907-10.648
	c0.814-1.717,1.228-3.559,1.228-5.473c0-7.049-5.734-12.784-12.783-12.784c-7.049,0-12.784,5.735-12.784,12.784
	c0,1.915,0.413,3.757,1.228,5.473C21.494,42.077,23.719,47.092,23.719,51.287z M32.367,25.382c5.394,0,9.783,4.389,9.783,9.784
	c0,1.466-0.315,2.875-0.938,4.187c-0.961,2.026-3.196,7.244-3.196,11.934c0,3.248-2.534,5.892-5.648,5.892
	c-3.114,0-5.648-2.643-5.648-5.892c0-4.69-2.235-9.908-3.197-11.935c-0.623-1.312-0.938-2.72-0.938-4.187
	C22.583,29.771,26.972,25.382,32.367,25.382z"/>
<path d="M33.867,16.729V3.833c0-0.829-0.672-1.5-1.5-1.5c-0.828,0-1.5,0.671-1.5,1.5v12.896c0,0.829,0.672,1.5,1.5,1.5
	C33.195,18.229,33.867,17.557,33.867,16.729z"/>
<path d="M22.144,23.259c0.586-0.586,0.586-1.536,0-2.121l-9.118-9.118c-0.586-0.586-1.535-0.586-2.121,0
	c-0.586,0.586-0.586,1.536,0,2.121l9.118,9.118c0.293,0.293,0.677,0.439,1.061,0.439C21.467,23.698,21.851,23.552,22.144,23.259z"/>
<path d="M54.102,12.02c-0.586-0.586-1.535-0.586-2.121,0l-9.118,9.118c-0.586,0.585-0.586,1.535,0,2.121
	c0.293,0.293,0.677,0.439,1.061,0.439c0.384,0,0.768-0.146,1.061-0.439l9.118-9.118C54.687,13.556,54.687,12.606,54.102,12.02z"/>
</svg>
