<?xml version="1.0" encoding="utf-8"?>
<!-- Generator: Adobe Illustrator 17.0.0, SVG Export Plug-In . SVG Version: 6.00 Build 0)  -->
<!DOCTYPE svg PUBLIC "-//W3C//DTD SVG 1.1//EN" "http://www.w3.org/Graphics/SVG/1.1/DTD/svg11.dtd">
<svg version="1.1" id="Capa_1" xmlns="http://www.w3.org/2000/svg" xmlns:xlink="http://www.w3.org/1999/xlink" x="0px" y="0px"
	 width="64px" height="64px" viewBox="0 0 64 64" enable-background="new 0 0 64 64" xml:space="preserve">
<g>
	<path d="M20.427,56.646h20.794c6.341,0,11.5-5.159,11.5-11.5V24.354c0-6.341-5.159-11.5-11.5-11.5H20.427
		c-6.341,0-11.5,5.159-11.5,11.5v20.793C8.927,51.487,14.086,56.646,20.427,56.646z M11.927,24.354c0-4.687,3.813-8.5,8.5-8.5
		h20.794c4.687,0,8.5,3.813,8.5,8.5v20.793c0,4.687-3.813,8.5-8.5,8.5H20.427c-4.687,0-8.5-3.813-8.5-8.5V24.354z"/>
	<path d="M21.156,47.75h19.512c3.584,0,6.5-2.785,6.5-6.209c0-3.543-0.988-6.344-2.939-8.326l-3.821-3.869
		c-2.468-2.51-5.684-2.569-8.227-0.128l-4.113,3.988c-0.665,0.639-1.278,1.362-1.82,2.002c-0.421,0.496-1.015,1.197-1.4,1.527
		c-0.09-0.068-0.187-0.143-0.287-0.22c-1.757-1.348-3.468-2.558-5.098-2.558c-0.659,0-1.263,0.207-1.745,0.598
		C15.973,35.97,14.656,39.17,14.656,42C14.656,45.171,17.572,47.75,21.156,47.75z M19.519,36.961
		c0.778,0.066,2.541,1.418,3.215,1.935c0.285,0.219,0.535,0.41,0.734,0.551c0.396,0.279,0.854,0.427,1.326,0.427
		c1.433-0.001,2.503-1.264,3.742-2.726c0.519-0.612,1.055-1.245,1.614-1.782l4.113-3.988c1.388-1.332,2.645-1.311,4.007,0.074
		l3.821,3.869c1.377,1.4,2.075,3.493,2.075,6.221c0,1.77-1.57,3.209-3.5,3.209H21.156c-1.93,0-3.5-1.233-3.5-2.75
		C17.656,39.982,18.621,37.776,19.519,36.961z"/>
	<circle cx="23.667" cy="27.985" r="3.593"/>
</g>
</svg>
