<?xml version="1.0" encoding="utf-8"?>
<!-- Generator: Adobe Illustrator 17.0.0, SVG Export Plug-In . SVG Version: 6.00 Build 0)  -->
<!DOCTYPE svg PUBLIC "-//W3C//DTD SVG 1.1//EN" "http://www.w3.org/Graphics/SVG/1.1/DTD/svg11.dtd">
<svg version="1.1" id="Capa_1" xmlns="http://www.w3.org/2000/svg" xmlns:xlink="http://www.w3.org/1999/xlink" x="0px" y="0px"
	 width="64px" height="64px" viewBox="0 0 64 64" enable-background="new 0 0 64 64" xml:space="preserve">
<g>
	<path d="M21.059,59.709h24c6.341,0,11.5-5.159,11.5-11.5V15.792c0-6.341-5.159-11.5-11.5-11.5h-24c-6.341,0-11.5,5.159-11.5,11.5
		v32.417C9.559,54.55,14.718,59.709,21.059,59.709z M12.559,15.792c0-4.686,3.813-8.5,8.5-8.5h9.633c-2.224,0.606-3.79,2.5-3.79,5.5
		c0,3.682,2.335,5.739,5.377,5.739c3.045,0,5.38-2.058,5.38-5.739c0-3-1.565-4.894-3.791-5.5h11.189c4.687,0,8.5,3.814,8.5,8.5
		v32.417c0,4.687-3.813,8.5-8.5,8.5h-1.218c1.191-0.78,1.975-2.095,1.975-3.587c0-2.394-2.016-4.334-4.502-4.334
		c-2.487,0-4.502-2.687-4.502-6.002V29.062c0-3.314-2.028-6.002-4.53-6.002h-4.53c0,0-1.694,0-3.783,0
		c-2.089,0-3.783,0.971-3.783,2.168c0,1.195,1.694,2.166,3.783,2.166c2.089,0,3.783,2.688,3.783,6.002v15.393c0,0,0,1.94,0,4.334
		c0,1.492,0.789,2.807,1.987,3.587h-8.679c-4.687,0-8.5-3.813-8.5-8.5V15.792z"/>
</g>
</svg>
