<?xml version="1.0" encoding="utf-8"?>
<!-- Generator: Adobe Illustrator 17.0.0, SVG Export Plug-In . SVG Version: 6.00 Build 0)  -->
<!DOCTYPE svg PUBLIC "-//W3C//DTD SVG 1.1//EN" "http://www.w3.org/Graphics/SVG/1.1/DTD/svg11.dtd">
<svg version="1.1" id="Capa_1" xmlns="http://www.w3.org/2000/svg" xmlns:xlink="http://www.w3.org/1999/xlink" x="0px" y="0px"
	 width="64px" height="64px" viewBox="0 0 64 64" enable-background="new 0 0 64 64" xml:space="preserve">
<g>
	<path d="M17.602,56.095l3.834,2.053c1.666,0.892,3.54,1.363,5.419,1.363c4.254,0,8.142-2.327,10.147-6.074l8.911-16.646
		c2.435-4.548,4.524-10.908,3.602-13.739c-0.443-1.361-1.658-2.983-3.264-4.485c0.871-2.069,3.139-8.229,0.947-11.713
		c-0.663-1.056-2.024-2.322-4.738-2.363c-1.524-0.017-2.866,0.576-3.882,1.733c-1.445,1.645-2.102,4.327-2.356,7.063
		c-1.931-0.438-3.732-0.562-4.949-0.246c-2.794,0.723-6.786,5.828-9.285,10.497l-9.097,16.991
		C9.898,46.119,12.012,53.103,17.602,56.095z M40.833,8.202c0.441-0.502,0.926-0.704,1.583-0.712c1.483,0.023,1.99,0.559,2.243,0.96
		c1.057,1.677,0.178,5.439-0.849,8.143c-0.657-0.458-1.34-0.882-2.034-1.253c-0.816-0.438-1.7-0.826-2.602-1.164
		C39.348,11.635,39.832,9.341,40.833,8.202z M38.299,27.184c-0.61,1.145-2.128,1.613-3.284,0.994
		c-0.571-0.306-0.989-0.816-1.178-1.437c-0.188-0.621-0.122-1.277,0.184-1.849c0.424-0.792,1.245-1.283,2.145-1.283
		c0.4,0,0.784,0.097,1.141,0.287C38.485,24.528,38.931,26.003,38.299,27.184z M15.536,41.944l9.097-16.991
		c2.732-5.104,6.146-8.687,7.392-9.009c0.161-0.041,0.45-0.091,0.917-0.091c0.896,0,1.996,0.179,3.144,0.479
		c-0.004,1.623,0.091,3.125,0.196,4.284c-0.039-0.001-0.077-0.007-0.116-0.007c-2.008,0-3.843,1.099-4.789,2.867
		c-0.685,1.277-0.83,2.745-0.41,4.133c0.42,1.388,1.354,2.529,2.633,3.213c0.786,0.421,1.671,0.643,2.558,0.643
		c2.007,0,3.842-1.099,4.787-2.866c0.684-1.277,0.831-2.746,0.411-4.134c-0.339-1.118-1.023-2.063-1.941-2.752
		c-0.158-1.274-0.273-2.777-0.306-4.33c0.431,0.189,0.854,0.387,1.253,0.601c3.104,1.661,5.813,4.494,6.304,5.997
		c0.427,1.312-0.657,6.28-3.395,11.394l-8.911,16.646c-1.482,2.77-4.357,4.49-7.503,4.49c-1.387,0-2.77-0.349-4.003-1.008
		l-3.834-2.053C14.887,51.238,13.324,46.076,15.536,41.944z"/>
</g>
</svg>
