<?xml version="1.0" encoding="utf-8"?>
<!-- Generator: Adobe Illustrator 17.0.0, SVG Export Plug-In . SVG Version: 6.00 Build 0)  -->
<!DOCTYPE svg PUBLIC "-//W3C//DTD SVG 1.1//EN" "http://www.w3.org/Graphics/SVG/1.1/DTD/svg11.dtd">
<svg version="1.1" id="Capa_1" xmlns="http://www.w3.org/2000/svg" xmlns:xlink="http://www.w3.org/1999/xlink" x="0px" y="0px"
	 width="64px" height="64px" viewBox="0 0 64 64" enable-background="new 0 0 64 64" xml:space="preserve">
<g>
	<path d="M56.923,22.035L37.208,9.731c-1.487-0.928-3.422-1.438-5.449-1.438c-2.188,0-4.256,0.582-5.822,1.64L8.209,21.893
		c-2.391,1.612-2.56,3.04-2.281,3.953c0.28,0.914,1.218,2.003,4.103,2.003h5.866v22.405c0,3.995,3.25,7.246,7.246,7.246h18.962
		c3.996,0,7.246-3.251,7.246-7.246V27.849h5.906c2.33,0,3.702-0.665,4.078-1.978C59.711,24.559,58.899,23.268,56.923,22.035z
		 M46.352,50.254c0,2.341-1.905,4.246-4.246,4.246H23.144c-2.341,0-4.246-1.905-4.246-4.246V27.849h27.454V50.254z M55.258,24.849
		h-7.406H17.397h-7.366c-0.293,0-0.533-0.014-0.726-0.035c0.148-0.125,0.338-0.271,0.582-0.435l17.728-11.96
		c1.061-0.716,2.571-1.126,4.144-1.126c1.473,0,2.844,0.349,3.861,0.983L55.335,24.58c0.146,0.092,0.275,0.177,0.387,0.256
		C55.585,24.844,55.431,24.849,55.258,24.849z"/>
	<path d="M31.132,49.167h2.985c3.584,0,6.5-2.916,6.5-6.5v-2.986c0-3.584-2.916-6.5-6.5-6.5h-2.985c-3.584,0-6.5,2.916-6.5,6.5
		v2.986C24.632,46.251,27.548,49.167,31.132,49.167z M27.632,39.681c0-1.93,1.57-3.5,3.5-3.5h2.985c1.93,0,3.5,1.57,3.5,3.5v2.986
		c0,1.93-1.57,3.5-3.5,3.5h-2.985c-1.93,0-3.5-1.57-3.5-3.5V39.681z"/>
</g>
</svg>
