<?xml version="1.0" encoding="utf-8"?>
<!-- Generator: Adobe Illustrator 17.0.0, SVG Export Plug-In . SVG Version: 6.00 Build 0)  -->
<!DOCTYPE svg PUBLIC "-//W3C//DTD SVG 1.1//EN" "http://www.w3.org/Graphics/SVG/1.1/DTD/svg11.dtd">
<svg version="1.1" id="Capa_1" xmlns="http://www.w3.org/2000/svg" xmlns:xlink="http://www.w3.org/1999/xlink" x="0px" y="0px"
	 width="64px" height="64px" viewBox="0 0 64 64" enable-background="new 0 0 64 64" xml:space="preserve">
<g>
	<path d="M47.686,10.768H15.813c-5.778,0-10.478,4.701-10.478,10.478v14.066c0,5.778,4.701,10.479,10.478,10.479h31.873
		c5.778,0,10.479-4.701,10.479-10.479V21.247C58.165,15.469,53.464,10.768,47.686,10.768z M55.165,35.312
		c0,4.124-3.355,7.479-7.479,7.479H15.813c-4.124,0-7.478-3.355-7.478-7.479V21.247c0-4.124,3.355-7.478,7.478-7.478h31.873
		c4.124,0,7.479,3.355,7.479,7.478V35.312z"/>
	<path d="M42.019,16.381H21.593c-5.778,0-10.479,4.701-10.479,10.479v1.347c0,5.778,4.701,10.478,10.479,10.478h20.426
		c5.778,0,10.478-4.7,10.478-10.478v-1.347C52.497,21.081,47.797,16.381,42.019,16.381z M49.497,28.206
		c0,4.124-3.354,7.478-7.478,7.478H21.593c-4.124,0-7.479-3.354-7.479-7.478v-1.347c0-4.124,3.355-7.479,7.479-7.479h20.426
		c4.124,0,7.478,3.355,7.478,7.479V28.206z"/>
	<path d="M52.176,48.686H11.324c-3.358,0-5.989,1.981-5.989,4.511c0,2.53,2.631,4.511,5.989,4.511h40.852
		c3.358,0,5.989-1.981,5.989-4.511C58.165,50.667,55.534,48.686,52.176,48.686z M52.176,54.708H11.324
		c-1.825,0-2.989-0.895-2.989-1.511s1.164-1.511,2.989-1.511h40.852c1.825,0,2.989,0.895,2.989,1.511S54,54.708,52.176,54.708z"/>
</g>
</svg>
