<?xml version="1.0" encoding="utf-8"?>
<!-- Generator: Adobe Illustrator 17.0.0, SVG Export Plug-In . SVG Version: 6.00 Build 0)  -->
<!DOCTYPE svg PUBLIC "-//W3C//DTD SVG 1.1//EN" "http://www.w3.org/Graphics/SVG/1.1/DTD/svg11.dtd">
<svg version="1.1" id="Capa_1" xmlns="http://www.w3.org/2000/svg" xmlns:xlink="http://www.w3.org/1999/xlink" x="0px" y="0px"
	 width="64px" height="64px" viewBox="0 0 64 64" enable-background="new 0 0 64 64" xml:space="preserve">
<g>
	<path d="M16.896,52.027c0.206,0.097,0.423,0.143,0.637,0.143c0.563,0,1.103-0.318,1.358-0.862l8.728-18.587l6.581,7.894
		c0.328,0.393,0.836,0.595,1.344,0.526c0.509-0.065,0.948-0.386,1.166-0.85l8.432-17.957c0.352-0.75,0.03-1.644-0.72-1.995
		c-0.75-0.353-1.645-0.031-1.995,0.72l-7.431,15.825l-6.581-7.894c-0.328-0.393-0.839-0.597-1.344-0.526
		c-0.509,0.065-0.948,0.386-1.166,0.85l-9.729,20.719C15.824,50.782,16.146,51.676,16.896,52.027z"/>
</g>
</svg>
