<?xml version="1.0" encoding="utf-8"?>
<!-- Generator: Adobe Illustrator 17.0.0, SVG Export Plug-In . SVG Version: 6.00 Build 0)  -->
<!DOCTYPE svg PUBLIC "-//W3C//DTD SVG 1.1//EN" "http://www.w3.org/Graphics/SVG/1.1/DTD/svg11.dtd">
<svg version="1.1" id="Capa_1" xmlns="http://www.w3.org/2000/svg" xmlns:xlink="http://www.w3.org/1999/xlink" x="0px" y="0px"
	 width="64px" height="64px" viewBox="0 0 64 64" enable-background="new 0 0 64 64" xml:space="preserve">
<path d="M21.083,56.388c0,0.829,0.672,1.5,1.5,1.5c0.828,0,1.5-0.671,1.5-1.5v-7.17h-3V56.388z"/>
<path d="M38.917,56.388c0,0.829,0.672,1.5,1.5,1.5c0.828,0,1.5-0.671,1.5-1.5v-7.17h-3V56.388z"/>
<path d="M30,56.388c0,0.829,0.672,1.5,1.5,1.5c0.828,0,1.5-0.671,1.5-1.5v-7.17h-3V56.388z"/>
<rect x="21.083" y="35.884" width="3" height="3.667"/>
<rect x="38.917" y="42.551" width="3" height="3.667"/>
<rect x="30" y="42.551" width="3" height="3.667"/>
<rect x="21.083" y="42.551" width="3" height="3.667"/>
<path d="M24.083,25.714c0-0.829-0.672-1.5-1.5-1.5c-0.828,0-1.5,0.671-1.5,1.5v0.503h3V25.714z"/>
<rect x="21.083" y="29.217" width="3" height="3.667"/>
<rect x="38.917" y="35.884" width="3" height="3.667"/>
<rect x="30" y="35.884" width="3" height="3.667"/>
<rect x="38.917" y="29.217" width="3" height="3.667"/>
<rect x="30" y="29.217" width="3" height="3.667"/>
<path d="M40.417,17.65c-0.828,0-1.5,0.671-1.5,1.5v0.4h3v-0.4C41.917,18.321,41.245,17.65,40.417,17.65z"/>
<rect x="38.917" y="22.55" width="3" height="3.667"/>
<rect x="30" y="22.55" width="3" height="3.667"/>
<rect x="30" y="15.883" width="3" height="3.667"/>
<path d="M33,9c0-0.829-0.672-1.5-1.5-1.5c-0.828,0-1.5,0.671-1.5,1.5v3.882h3V9z"/>
</svg>
