<?xml version="1.0" encoding="utf-8"?>
<!-- Generator: Adobe Illustrator 17.0.0, SVG Export Plug-In . SVG Version: 6.00 Build 0)  -->
<!DOCTYPE svg PUBLIC "-//W3C//DTD SVG 1.1//EN" "http://www.w3.org/Graphics/SVG/1.1/DTD/svg11.dtd">
<svg version="1.1" id="Capa_1" xmlns="http://www.w3.org/2000/svg" xmlns:xlink="http://www.w3.org/1999/xlink" x="0px" y="0px"
	 width="64px" height="64px" viewBox="0 0 64 64" enable-background="new 0 0 64 64" xml:space="preserve">
<g>
	<path d="M29.667,16.833c-4.319,0-7.833,3.514-7.833,7.833c0,4.319,3.514,7.833,7.833,7.833s7.833-3.514,7.833-7.833
		C37.5,20.347,33.986,16.833,29.667,16.833z M29.667,29.5c-2.665,0-4.833-2.168-4.833-4.833c0-2.665,2.169-4.833,4.833-4.833
		s4.833,2.168,4.833,4.833C34.5,27.331,32.332,29.5,29.667,29.5z"/>
	<path d="M29.667,2.833c-12.039,0-21.833,9.794-21.833,21.833c0,1.667,0.189,3.329,0.562,4.938
		c0.666,2.875,4.462,8.695,7.529,13.071l6.774,9.664c1.822,2.6,4.297,4.031,6.968,4.031s5.146-1.432,6.969-4.031l6.774-9.664
		c3.067-4.375,6.863-10.195,7.529-13.071c0.373-1.609,0.562-3.271,0.562-4.938C51.5,12.627,41.706,2.833,29.667,2.833z
		 M48.016,28.928c-0.422,1.823-3.062,6.318-7.063,12.026l-6.773,9.664c-1.245,1.775-2.847,2.753-4.512,2.753
		c-1.665,0-3.268-0.978-4.512-2.753l-6.774-9.664c-4-5.708-6.641-10.203-7.063-12.026c-0.321-1.388-0.484-2.821-0.484-4.262
		c0-10.385,8.448-18.833,18.833-18.833S48.5,14.281,48.5,24.666C48.5,26.106,48.337,27.54,48.016,28.928z"/>
</g>
</svg>
