<?xml version="1.0" encoding="utf-8"?>
<!-- Generator: Adobe Illustrator 17.0.0, SVG Export Plug-In . SVG Version: 6.00 Build 0)  -->
<!DOCTYPE svg PUBLIC "-//W3C//DTD SVG 1.1//EN" "http://www.w3.org/Graphics/SVG/1.1/DTD/svg11.dtd">
<svg version="1.1" id="Capa_1" xmlns="http://www.w3.org/2000/svg" xmlns:xlink="http://www.w3.org/1999/xlink" x="0px" y="0px"
	 width="64px" height="64px" viewBox="0 0 64 64" enable-background="new 0 0 64 64" xml:space="preserve">
<g>
	<path d="M38.016,7.62c-10.136,0-18.383,8.246-18.383,18.382c0,3.126,0.789,6.07,2.172,8.651l-10.364,9.615
		C7.107,48.29,5.623,53.5,8.064,56.131c0.882,0.95,2.153,1.452,3.678,1.452c2.608,0,5.75-1.47,8.404-3.933l11.271-10.457
		c0.013-0.012,0.018-0.03,0.031-0.042c2.043,0.785,4.251,1.234,6.568,1.234c10.136,0,18.382-8.247,18.382-18.383
		C56.398,15.866,48.152,7.62,38.016,7.62z M18.106,51.451c-2.083,1.932-4.521,3.132-6.364,3.132c-0.466,0-1.101-0.085-1.479-0.493
		c-1.091-1.176,0.053-4.687,3.218-7.624l9.988-9.268c1.051,1.362,2.286,2.568,3.67,3.589l1.137,1.226L18.106,51.451z M38.016,41.385
		c-3.293,0-6.34-1.049-8.845-2.818l-4.333-4.67c-1.39-2.311-2.205-5.006-2.205-7.894c0-8.482,6.901-15.382,15.383-15.382
		c8.482,0,15.382,6.9,15.382,15.382C53.398,34.484,46.498,41.385,38.016,41.385z"/>
</g>
</svg>
