<?xml version="1.0" encoding="utf-8"?>
<!-- Generator: Adobe Illustrator 17.0.0, SVG Export Plug-In . SVG Version: 6.00 Build 0)  -->
<!DOCTYPE svg PUBLIC "-//W3C//DTD SVG 1.1//EN" "http://www.w3.org/Graphics/SVG/1.1/DTD/svg11.dtd">
<svg version="1.1" id="Capa_1" xmlns="http://www.w3.org/2000/svg" xmlns:xlink="http://www.w3.org/1999/xlink" x="0px" y="0px"
	 width="64px" height="64px" viewBox="0 0 64 64" enable-background="new 0 0 64 64" xml:space="preserve">
<path d="M58.951,53.863h-49v-49c0-0.829-0.671-1.5-1.5-1.5s-1.5,0.671-1.5,1.5v50.5c0,0.829,0.671,1.5,1.5,1.5h50.5
	c0.829,0,1.5-0.671,1.5-1.5C60.451,54.535,59.779,53.863,58.951,53.863z"/>
<path d="M19.059,39.78l-4.375,8c-0.398,0.727-0.131,1.638,0.596,2.036C15.509,49.941,15.755,50,15.998,50
	c0.531,0,1.045-0.282,1.317-0.781l4.375-8c0.712-1.302,1.616-2.337,2.585-3.004c0.155,0.027,0.312,0.048,0.474,0.048
	c0.792,0,1.501-0.337,2.005-0.871c0.719,0.024,1.374,0.296,1.949,0.831c1.379,1.282,3.05,1.744,4.707,1.299
	c2.452-0.658,4.512-3.172,5.651-6.896l1.445-4.719c0.515-1.681,1.047-2.754,1.489-3.432c0.312,0.122,0.649,0.195,1.004,0.195
	c0.177,0,0.349-0.021,0.517-0.052l2.377,5.023c0.354,0.748,1.248,1.068,1.998,0.714c0.749-0.355,1.069-1.249,0.714-1.998
	l-2.625-5.546c-0.083-0.176-0.173-0.319-0.261-0.47c0.023-0.143,0.044-0.286,0.044-0.435c0-1.526-1.237-2.764-2.764-2.764
	c-1.516,0-2.745,1.222-2.761,2.734c-1.003,1.11-1.892,2.838-2.601,5.152l-1.445,4.719c-0.964,3.149-2.472,4.583-3.562,4.876
	c-0.647,0.176-1.265-0.021-1.886-0.599c-0.99-0.921-2.181-1.459-3.449-1.598c-0.419-0.994-1.402-1.692-2.548-1.692
	c-1.526,0-2.764,1.237-2.764,2.764c0,0.215,0.03,0.421,0.076,0.622C20.913,37.034,19.884,38.272,19.059,39.78z"/>
</svg>
