<?xml version="1.0" encoding="utf-8"?>
<!-- Generator: Adobe Illustrator 17.0.0, SVG Export Plug-In . SVG Version: 6.00 Build 0)  -->
<!DOCTYPE svg PUBLIC "-//W3C//DTD SVG 1.1//EN" "http://www.w3.org/Graphics/SVG/1.1/DTD/svg11.dtd">
<svg version="1.1" id="Capa_1" xmlns="http://www.w3.org/2000/svg" xmlns:xlink="http://www.w3.org/1999/xlink" x="0px" y="0px"
	 width="64px" height="64px" viewBox="0 0 64 64" enable-background="new 0 0 64 64" xml:space="preserve">
<g>
	<path d="M50.25,25.421h-3.7c-0.828,0-1.5,0.672-1.5,1.5c0,7.398-5.631,13.417-12.553,13.417c-6.923,0-12.555-6.019-12.555-13.417
		c0-0.828-0.672-1.5-1.5-1.5H14.25c-0.828,0-1.5,0.672-1.5,1.5s0.672,1.5,1.5,1.5h2.757c0.675,7.831,6.582,14.09,13.99,14.841
		l-0.001,6.988h-1.871c-3.235,0-6.5,1.044-6.5,3.375S25.89,57,29.125,57H36c3.235,0,6.5-1.044,6.5-3.375S39.235,50.25,36,50.25
		h-2.004l0.001-6.988c7.407-0.751,13.313-7.01,13.988-14.841h2.265c0.828,0,1.5-0.672,1.5-1.5S51.078,25.421,50.25,25.421z
		 M38.781,53.625C38.171,53.819,37.242,54,36,54h-6.875c-1.242,0-2.171-0.181-2.781-0.375c0.61-0.194,1.539-0.375,2.781-0.375H36
		C37.242,53.25,38.171,53.431,38.781,53.625z"/>
	<path d="M21.642,28.837c0.594,5.755,5.233,10.251,10.855,10.251c5.62,0,10.26-4.496,10.853-10.25
		c0.039-0.135,0.067-0.274,0.067-0.422c0-0.092-0.011-0.181-0.027-0.268c0.009-0.188,0.027-0.371,0.027-0.56V14.029
		c0-6.341-4.899-11.5-10.921-11.5c-6.023,0-10.922,5.159-10.922,11.5v13.559c0,0.189,0.019,0.374,0.027,0.56
		c-0.016,0.087-0.027,0.176-0.027,0.268C21.574,28.563,21.602,28.703,21.642,28.837z M32.496,5.529c4.279,0,7.768,3.664,7.908,8.221
		h-3.663c-0.828,0-1.5,0.672-1.5,1.5s0.672,1.5,1.5,1.5h3.676v3.583h-3.676c-0.828,0-1.5,0.672-1.5,1.5s0.672,1.5,1.5,1.5h3.676
		v3.583h-3.676c-0.828,0-1.5,0.672-1.5,1.5s0.672,1.5,1.5,1.5h3.366c-0.946,3.557-3.997,6.172-7.611,6.172
		c-3.615,0-6.666-2.615-7.612-6.172h3.366c0.828,0,1.5-0.672,1.5-1.5s-0.672-1.5-1.5-1.5h-3.676v-3.583h3.676
		c0.828,0,1.5-0.672,1.5-1.5s-0.672-1.5-1.5-1.5h-3.676V16.75h3.676c0.828,0,1.5-0.672,1.5-1.5s-0.672-1.5-1.5-1.5h-3.662
		C24.727,9.193,28.216,5.529,32.496,5.529z"/>
</g>
</svg>
