<?xml version="1.0" encoding="utf-8"?>
<!-- Generator: Adobe Illustrator 17.0.0, SVG Export Plug-In . SVG Version: 6.00 Build 0)  -->
<!DOCTYPE svg PUBLIC "-//W3C//DTD SVG 1.1//EN" "http://www.w3.org/Graphics/SVG/1.1/DTD/svg11.dtd">
<svg version="1.1" id="Capa_1" xmlns="http://www.w3.org/2000/svg" xmlns:xlink="http://www.w3.org/1999/xlink" x="0px" y="0px"
	 width="64px" height="64px" viewBox="0 0 64 64" enable-background="new 0 0 64 64" xml:space="preserve">
<g>
	<path d="M37.049,17.75H26.264c-3.369,0-6.395,1.466-8.5,3.781V8.342c0-0.828-0.672-1.5-1.5-1.5c-0.828,0-1.5,0.672-1.5,1.5V27.41
		c0,0.171,0.035,0.332,0.087,0.484c-0.053,0.445-0.087,0.896-0.087,1.355v19.441c0,6.341,5.159,11.5,11.5,11.5h10.785
		c6.341,0,11.5-5.159,11.5-11.5V29.25C48.549,22.909,43.39,17.75,37.049,17.75z M45.549,48.691c0,4.687-3.813,8.5-8.5,8.5H26.264
		c-4.687,0-8.5-3.813-8.5-8.5V29.25c0-4.687,3.813-8.5,8.5-8.5h10.785c4.687,0,8.5,3.813,8.5,8.5V48.691z"/>
	<path d="M35.098,23.145h-6.883c-4.351,0-7.758,2.27-7.758,5.166c0,2.898,3.407,5.167,7.758,5.167h6.883
		c4.35,0,7.757-2.27,7.757-5.167C42.854,25.414,39.447,23.145,35.098,23.145z M35.098,30.478h-6.883
		c-2.904,0-4.758-1.283-4.758-2.167c0-0.883,1.853-2.166,4.758-2.166h6.883c2.903,0,4.757,1.283,4.757,2.166
		C39.854,29.194,38.001,30.478,35.098,30.478z"/>
</g>
</svg>
