<?xml version="1.0" encoding="utf-8"?>
<!-- Generator: Adobe Illustrator 17.0.0, SVG Export Plug-In . SVG Version: 6.00 Build 0)  -->
<!DOCTYPE svg PUBLIC "-//W3C//DTD SVG 1.1//EN" "http://www.w3.org/Graphics/SVG/1.1/DTD/svg11.dtd">
<svg version="1.1" id="Capa_1" xmlns="http://www.w3.org/2000/svg" xmlns:xlink="http://www.w3.org/1999/xlink" x="0px" y="0px"
	 width="64px" height="64px" viewBox="0 0 64 64" enable-background="new 0 0 64 64" xml:space="preserve">
<g>
	<path d="M46.414,4.292h-24c-6.341,0-11.5,5.159-11.5,11.5v32.417c0,6.341,5.159,11.5,11.5,11.5h24c6.341,0,11.5-5.159,11.5-11.5
		V15.792C57.914,9.451,52.755,4.292,46.414,4.292z M13.914,48.209V15.792c0-4.686,3.813-8.5,8.5-8.5h10.108
		c-0.003,0.07-0.011,0.135-0.011,0.209v2.768c-3.605,0.312-6.359,1.427-8.267,3.342c-1.906,1.915-2.859,4.37-2.859,7.364
		c0,2.298,0.488,4.179,1.464,5.641c0.975,1.462,2.245,2.59,3.812,3.382c1.566,0.792,3.517,1.511,5.85,2.154v12.144
		c-1.167-0.331-2.103-0.81-2.808-1.436c-0.706-0.627-1.232-1.318-1.58-2.076c-0.349-0.758-0.758-1.85-1.228-3.277
		c-0.209-0.661-0.584-1.175-1.123-1.541c-0.54-0.365-1.201-0.548-1.984-0.548c-0.976,0-1.789,0.336-2.441,1.006
		c-0.654,0.67-0.979,1.422-0.979,2.258c0,1.133,0.243,2.285,0.731,3.461c0.486,1.175,1.239,2.307,2.259,3.394
		c1.018,1.089,2.289,1.998,3.812,2.729c1.523,0.731,3.304,1.21,5.341,1.436v7.008H22.414C17.727,56.709,13.914,52.896,13.914,48.209
		z M32.512,25.362c-1.567-0.573-2.733-1.214-3.5-1.919c-0.766-0.705-1.148-1.745-1.148-3.121c0-1.444,0.408-2.524,1.227-3.238
		c0.817-0.713,1.958-1.287,3.421-1.723V25.362z M54.914,48.209c0,4.687-3.813,8.5-8.5,8.5H35.813
		c0.008-0.178,0.015-0.357,0.015-0.557v-6.504c2.489-0.208,4.639-0.86,6.45-1.958c1.81-1.097,3.181-2.511,4.112-4.243
		c0.932-1.732,1.397-3.591,1.397-5.576c0-1.583-0.292-3.041-0.875-4.374c-0.583-1.332-1.414-2.476-2.493-3.434
		c-1.011-0.922-2.154-1.627-3.435-2.115c-1.279-0.487-2.999-1.027-5.157-1.619V15.465c2.193,0.715,3.577,2.159,4.152,4.335
		c0.505,1.847,1.61,2.769,3.316,2.769c0.904,0,1.676-0.317,2.311-0.953c0.635-0.635,0.953-1.388,0.953-2.259
		c0-0.784-0.213-1.644-0.64-2.585c-0.427-0.94-1.031-1.854-1.815-2.742c-0.993-1.167-2.155-2.037-3.486-2.611
		c-1.332-0.575-2.93-0.958-4.792-1.149V7.448c0-0.056-0.007-0.103-0.008-0.156h10.594c4.687,0,8.5,3.814,8.5,8.5V48.209z
		 M35.828,44.557V33.118c1.811,0.575,3.182,1.276,4.113,2.104c0.931,0.827,1.396,1.997,1.396,3.512c0,1.411-0.479,2.647-1.437,3.709
		C38.943,43.504,37.586,44.209,35.828,44.557z"/>
</g>
</svg>
