<?xml version="1.0" encoding="utf-8"?>
<!-- Generator: Adobe Illustrator 17.0.0, SVG Export Plug-In . SVG Version: 6.00 Build 0)  -->
<!DOCTYPE svg PUBLIC "-//W3C//DTD SVG 1.1//EN" "http://www.w3.org/Graphics/SVG/1.1/DTD/svg11.dtd">
<svg version="1.1" id="Capa_1" xmlns="http://www.w3.org/2000/svg" xmlns:xlink="http://www.w3.org/1999/xlink" x="0px" y="0px"
	 width="64px" height="64px" viewBox="0 0 64 64" enable-background="new 0 0 64 64" xml:space="preserve">
<path d="M49.79,7.498h-35.5c-6.341,0-11.5,5.159-11.5,11.5v15.667c0,6.341,5.159,11.5,11.5,11.5h10.593l0.093,1.348
	c-4.006,0.383-7.828,2.521-8.004,2.62c-0.471,0.266-0.762,0.765-0.762,1.306v3c0,0.829,0.671,1.5,1.5,1.5h28.657
	c0.829,0,1.5-0.671,1.5-1.5v-3c0-0.541-0.291-1.04-0.762-1.306c-0.175-0.099-3.969-2.221-7.959-2.616
	c0.044-0.445,0.091-0.923,0.133-1.353H49.79c6.341,0,11.5-5.159,11.5-11.5V18.999C61.29,12.657,56.131,7.498,49.79,7.498z
	 M36.388,49.962c0.284,0.314,0.688,0.493,1.111,0.493h0.414c2.673,0,5.602,1.247,6.955,1.9v0.584H19.211v-0.585
	c1.349-0.654,4.27-1.899,6.955-1.899h0.414c0.416,0,0.813-0.172,1.097-0.477c0.284-0.304,0.428-0.712,0.4-1.127l-0.186-2.686h7.013
	h1.363c-0.016,0.157-0.032,0.323-0.049,0.498l-0.211,2.145C35.965,49.229,36.103,49.649,36.388,49.962z M58.29,34.666
	c0,4.687-3.813,8.5-8.5,8.5H37.912H26.283H14.29c-4.687,0-8.5-3.813-8.5-8.5V18.999c0-4.687,3.813-8.5,8.5-8.5h35.5
	c4.687,0,8.5,3.813,8.5,8.5V34.666z"/>
<path d="M43.477,13.75h-22.75c-6.341,0-11.5,5.159-11.5,11.5v1.5c0,6.341,5.159,11.5,11.5,11.5h22.75c6.341,0,11.5-5.159,11.5-11.5
	v-1.5C54.977,18.909,49.819,13.75,43.477,13.75z M51.977,26.75c0,4.687-3.813,8.5-8.5,8.5h-22.75c-4.687,0-8.5-3.813-8.5-8.5v-1.5
	c0-4.687,3.813-8.5,8.5-8.5h22.75c4.687,0,8.5,3.813,8.5,8.5V26.75z"/>
</svg>
