<?xml version="1.0" encoding="utf-8"?>
<!-- Generator: Adobe Illustrator 17.0.0, SVG Export Plug-In . SVG Version: 6.00 Build 0)  -->
<!DOCTYPE svg PUBLIC "-//W3C//DTD SVG 1.1//EN" "http://www.w3.org/Graphics/SVG/1.1/DTD/svg11.dtd">
<svg version="1.1" id="Capa_1" xmlns="http://www.w3.org/2000/svg" xmlns:xlink="http://www.w3.org/1999/xlink" x="0px" y="0px"
	 width="64px" height="64px" viewBox="0 0 64 64" enable-background="new 0 0 64 64" xml:space="preserve">
<path d="M41.626,12.543h-4.479c-0.153-1.212-0.634-2.89-2.006-4.457c-2.445-2.794-6.709-4.181-12.716-4.124
	c-4.205,0.04-7.521,1.304-9.854,3.756c-4.402,4.628-4.095,12.234-3.93,16.32c0.025,0.622,0.048,1.163,0.048,1.595
	c0,0.829,0.672,1.5,1.5,1.5c0.828,0,1.5-0.671,1.5-1.5c0-0.465-0.023-1.046-0.05-1.716c-0.147-3.643-0.422-10.423,3.105-14.131
	c1.776-1.868,4.298-2.791,7.709-2.824c4.929-0.043,8.561,1.009,10.389,3.054c0.786,0.879,1.129,1.805,1.274,2.527h-4.449
	c-6.341,0-11.5,5.159-11.5,11.5V52.89c0,3.584,2.916,6.5,6.5,6.5h21.957c3.584,0,6.5-2.916,6.5-6.5V24.043
	C53.126,17.702,47.967,12.543,41.626,12.543z M21.169,52.89v-8.256H34.19V56.39h-9.522C22.739,56.39,21.169,54.819,21.169,52.89z
	 M46.626,56.39H37.19V44.633h12.936v8.256C50.126,54.819,48.556,56.39,46.626,56.39z M50.126,41.633H21.169v-17.59
	c0-4.687,3.813-8.5,8.5-8.5h11.957c4.686,0,8.5,3.813,8.5,8.5V41.633z"/>
</svg>
