<?xml version="1.0" encoding="utf-8"?>
<!-- Generator: Adobe Illustrator 17.0.0, SVG Export Plug-In . SVG Version: 6.00 Build 0)  -->
<!DOCTYPE svg PUBLIC "-//W3C//DTD SVG 1.1//EN" "http://www.w3.org/Graphics/SVG/1.1/DTD/svg11.dtd">
<svg version="1.1" id="Capa_1" xmlns="http://www.w3.org/2000/svg" xmlns:xlink="http://www.w3.org/1999/xlink" x="0px" y="0px"
	 width="64px" height="64px" viewBox="0 0 64 64" enable-background="new 0 0 64 64" xml:space="preserve">
<g>
	<path d="M17.242,58.533c4.833,0,10.008-4.132,10.008-10.283c0-1.387-0.023-2.951-0.302-3.967
		c-0.364-1.327-1.073-7.087-1.073-12.908c0-5.364,3.121-9.734,7.421-10.392c0.483-0.073,0.966-0.11,1.435-0.11
		c3.705,0,6.393,2.308,6.393,5.487c0,3.547-2.545,6.765-4.589,9.35c-0.288,0.364-0.566,0.716-0.828,1.056
		c-1.52,1.972-2.357,4.52-2.357,7.175c0,5.934,4.161,10.761,9.274,10.761c4.885,0,9.938-3.676,9.938-9.826
		c0-2.166-0.256-3.821-0.782-5.059c-0.85-1.998-2.367-9.126-2.367-16.237L49.375,20.5c0-7.047-5.621-12.36-13.074-12.36
		c-0.884,0-1.782,0.077-2.667,0.229l-1.561,0.267c-7.965,1.369-14.445,8.979-14.445,16.965c0,5.758-0.251,9.718-0.484,11.412
		c-5.068,0.062-9.175,4.866-9.175,10.762C7.968,53.707,12.128,58.533,17.242,58.533z M17.242,40.012
		c0.227,0,0.455,0.021,0.703,0.063l0.261,0.021c1.405,0,2.421,0,2.421-14.496c0-6.591,5.362-12.875,11.951-14.008l1.562-0.267
		c0.72-0.124,1.447-0.187,2.161-0.187c5.006,0,10.074,3.215,10.074,9.379l0.039,3.079c0,7.35,1.513,14.823,2.606,17.392
		c0.248,0.583,0.543,1.729,0.543,3.885c0,4.272-3.527,6.826-6.938,6.826c-3.46,0-6.274-3.481-6.274-7.761
		c0-1.996,0.616-3.893,1.734-5.344c0.255-0.331,0.525-0.673,0.804-1.025c2.333-2.95,5.236-6.621,5.236-11.211
		c0-4.839-4.038-8.487-9.393-8.487c-0.62,0-1.255,0.049-1.888,0.146c-5.776,0.882-9.968,6.499-9.968,13.356
		c0,5.824,0.687,11.905,1.18,13.702c0.195,0.711,0.195,2.5,0.195,3.173c0,4.356-3.624,7.283-7.008,7.283
		c-3.46,0-6.274-3.48-6.274-7.759C10.968,43.494,13.782,40.012,17.242,40.012z"/>
</g>
</svg>
