<?xml version="1.0" encoding="utf-8"?>
<!-- Generator: Adobe Illustrator 17.0.0, SVG Export Plug-In . SVG Version: 6.00 Build 0)  -->
<!DOCTYPE svg PUBLIC "-//W3C//DTD SVG 1.1//EN" "http://www.w3.org/Graphics/SVG/1.1/DTD/svg11.dtd">
<svg version="1.1" id="Capa_1" xmlns="http://www.w3.org/2000/svg" xmlns:xlink="http://www.w3.org/1999/xlink" x="0px" y="0px"
	 width="64px" height="64px" viewBox="0 0 64 64" enable-background="new 0 0 64 64" xml:space="preserve">
<g>
	<path d="M41.75,22.77v-5.094c0-4.491-5.051-8.009-11.5-8.009h-1c-6.037,0-12.5,3.22-12.5,8.013v10.509
		c0,0.109,0.013,0.216,0.036,0.319c-0.023,0.223-0.036,0.448-0.036,0.677v13.648c0,6.341,5.159,11.5,11.5,11.5h7.5
		c6.341,0,11.5-5.159,11.5-11.5V29.185C47.25,25.941,44.86,23.253,41.75,22.77z M29.25,12.667h1c4.607,0,8.5,2.294,8.5,5.009v5.009
		h-15.5c-1.289,0-2.488,0.382-3.5,1.031V17.68C19.75,15.15,24.456,12.667,29.25,12.667z M44.25,42.833c0,4.687-3.813,8.5-8.5,8.5
		h-7.5c-4.687,0-8.5-3.813-8.5-8.5V29.185c0-1.93,1.57-3.5,3.5-3.5h17.5c1.93,0,3.5,1.57,3.5,3.5V42.833z"/>
	<circle cx="32" cy="37.342" r="3.444"/>
</g>
</svg>
