<?xml version="1.0" encoding="utf-8"?>
<!-- Generator: Adobe Illustrator 17.0.0, SVG Export Plug-In . SVG Version: 6.00 Build 0)  -->
<!DOCTYPE svg PUBLIC "-//W3C//DTD SVG 1.1//EN" "http://www.w3.org/Graphics/SVG/1.1/DTD/svg11.dtd">
<svg version="1.1" id="Capa_1" xmlns="http://www.w3.org/2000/svg" xmlns:xlink="http://www.w3.org/1999/xlink" x="0px" y="0px"
	 width="64px" height="64px" viewBox="0 0 64 64" enable-background="new 0 0 64 64" xml:space="preserve">
<g>
	<path d="M38.709,4.607c-0.28-0.269-0.654-0.421-1.042-0.421H19.75c-6.341,0-11.5,5.159-11.5,11.5v31.624
		c0,6.341,5.159,11.5,11.5,11.5h19c6.341,0,11.5-5.159,11.5-11.5V16.396c0-0.407-0.165-0.796-0.458-1.079L38.709,4.607z
		 M39.167,9.222l5.872,5.674h-1.83c-2.228,0-4.041-1.729-4.041-3.854V9.222z M38.75,55.811h-19c-4.687,0-8.5-3.813-8.5-8.5V15.686
		c0-4.686,3.813-8.5,8.5-8.5h16.417v3.855c0,3.779,3.159,6.854,7.041,6.854h4.042v29.415C47.25,51.997,43.437,55.811,38.75,55.811z"
		/>
	<path d="M41.421,21.428c-0.716-0.415-1.634-0.174-2.051,0.542l-2.333,4.01c-0.117,0.201-0.414,0.706-0.751,0.661
		c-0.373-0.007-1.04-0.514-1.623-1.61c-0.967-1.819-2.383-2.839-3.989-2.871c-1.609,0.007-3.151,0.995-4.214,2.819
		c-0.959,1.644-1.874,2.489-2.337,2.768c-1.409-1.202-3.667-1.157-5.253,0.172l-2,1.677c-0.635,0.532-0.718,1.479-0.185,2.113
		c0.297,0.354,0.722,0.536,1.15,0.536c0.34,0,0.682-0.115,0.963-0.35l1.999-1.677c0.507-0.426,1.167-0.429,1.419-0.149
		c0.51,0.57,1.224,0.846,2.008,0.761c2.203-0.223,4.109-3.107,4.828-4.338c0.487-0.835,1.065-1.331,1.55-1.331
		c0.005,0,0.009,0,0.014,0c0.455,0.009,0.978,0.487,1.399,1.279c1.065,2.004,2.602,3.171,4.215,3.202
		c1.407,0.03,2.579-0.738,3.401-2.151l2.333-4.01C42.379,22.763,42.137,21.845,41.421,21.428z"/>
	<path d="M41.421,36.703c-0.716-0.415-1.634-0.174-2.051,0.542l-2.333,4.01c-0.117,0.201-0.414,0.695-0.751,0.661
		c-0.373-0.007-1.04-0.514-1.623-1.61c-0.967-1.819-2.383-2.839-3.989-2.871c-0.024,0-0.049-0.001-0.073-0.001
		c-1.588,0-3.094,1.024-4.141,2.82c-0.959,1.645-1.874,2.489-2.337,2.768c-1.409-1.202-3.667-1.158-5.253,0.172l-2,1.677
		c-0.635,0.532-0.718,1.479-0.185,2.113c0.297,0.354,0.722,0.536,1.15,0.536c0.34,0,0.682-0.115,0.963-0.351l1.999-1.677
		c0.507-0.426,1.167-0.429,1.419-0.149c0.51,0.57,1.224,0.846,2.008,0.761c2.203-0.223,4.109-3.107,4.828-4.338
		c0.487-0.835,1.065-1.331,1.55-1.331c0.005,0,0.009,0,0.014,0c0.455,0.009,0.978,0.487,1.399,1.279
		c1.065,2.004,2.602,3.171,4.215,3.202c1.407,0.004,2.579-0.738,3.401-2.151l2.333-4.01C42.379,38.038,42.137,37.12,41.421,36.703z"
		/>
</g>
</svg>
