<?xml version="1.0" encoding="utf-8"?>
<!-- Generator: Adobe Illustrator 17.0.0, SVG Export Plug-In . SVG Version: 6.00 Build 0)  -->
<!DOCTYPE svg PUBLIC "-//W3C//DTD SVG 1.1//EN" "http://www.w3.org/Graphics/SVG/1.1/DTD/svg11.dtd">
<svg version="1.1" id="Capa_1" xmlns="http://www.w3.org/2000/svg" xmlns:xlink="http://www.w3.org/1999/xlink" x="0px" y="0px"
	 width="64px" height="64px" viewBox="0 0 64 64" enable-background="new 0 0 64 64" xml:space="preserve">
<path d="M13.07,44.444c1.627,0,3.196-0.547,4.478-1.535c1.899,1.582,4.096,2.882,6.466,3.829c-0.212,0.689-0.321,1.4-0.321,2.112
	c0,4.083,3.322,7.405,7.406,7.405c2.521,0,15.61-3.918,22.988-12.634c4.12-4.868,5.71-10.319,4.725-16.202
	C56.885,15.915,45.5,5.96,32.893,4.757C32.09,4.68,31.29,4.641,30.515,4.641c-20.53,0-24.85,27.068-24.85,32.397
	C5.665,41.122,8.987,44.444,13.07,44.444z M30.515,7.641c0.681,0,1.385,0.035,2.093,0.102C43.74,8.806,54.168,17.854,55.853,27.915
	c0.833,4.972-0.531,9.604-4.056,13.768C44.95,49.773,32.594,53.255,31.1,53.255c-2.43,0-4.406-1.976-4.406-4.405
	c0-0.767,0.211-1.512,0.626-2.216c0.232-0.392,0.272-0.868,0.11-1.293c-0.161-0.425-0.507-0.755-0.939-0.896
	c-3.009-0.977-5.753-2.586-7.938-4.654c-0.279-0.264-0.648-0.411-1.031-0.411c-0.025,0-0.051,0-0.075,0.002
	c-0.41,0.021-0.793,0.208-1.061,0.518c-0.858,0.996-2.036,1.544-3.315,1.544c-2.429,0-4.405-1.977-4.405-4.406
	C8.665,36.744,10.638,7.641,30.515,7.641z"/>
<path d="M17.418,36.198c3.171,0,5.75-2.58,5.75-5.75c0-3.17-2.579-5.75-5.75-5.75c-3.171,0-5.75,2.58-5.75,5.75
	C11.668,33.619,14.247,36.198,17.418,36.198z M17.418,27.698c1.517,0,2.75,1.233,2.75,2.75s-1.233,2.75-2.75,2.75
	c-1.517,0-2.75-1.233-2.75-2.75S15.901,27.698,17.418,27.698z"/>
<path d="M25.918,23.573c3.171,0,5.75-2.58,5.75-5.75c0-3.17-2.579-5.75-5.75-5.75c-3.171,0-5.75,2.58-5.75,5.75
	C20.168,20.994,22.747,23.573,25.918,23.573z M25.918,15.073c1.517,0,2.75,1.233,2.75,2.75s-1.233,2.75-2.75,2.75
	c-1.517,0-2.75-1.233-2.75-2.75S24.401,15.073,25.918,15.073z"/>
<path d="M40.543,24.948c3.171,0,5.75-2.58,5.75-5.75c0-3.17-2.579-5.75-5.75-5.75c-3.171,0-5.75,2.58-5.75,5.75
	C34.793,22.369,37.372,24.948,40.543,24.948z M40.543,16.448c1.517,0,2.75,1.233,2.75,2.75s-1.233,2.75-2.75,2.75
	c-1.517,0-2.75-1.233-2.75-2.75S39.026,16.448,40.543,16.448z"/>
<path d="M41.085,32c0,3.17,2.579,5.75,5.75,5.75c3.171,0,5.75-2.58,5.75-5.75s-2.579-5.75-5.75-5.75
	C43.664,26.25,41.085,28.83,41.085,32z M46.835,29.25c1.517,0,2.75,1.233,2.75,2.75c0,1.517-1.233,2.75-2.75,2.75
	c-1.517,0-2.75-1.233-2.75-2.75C44.085,30.483,45.318,29.25,46.835,29.25z"/>
<path d="M37.293,48.917c3.171,0,5.75-2.58,5.75-5.75s-2.579-5.75-5.75-5.75c-3.171,0-5.75,2.58-5.75,5.75
	S34.122,48.917,37.293,48.917z M37.293,40.417c1.517,0,2.75,1.233,2.75,2.75s-1.233,2.75-2.75,2.75c-1.517,0-2.75-1.233-2.75-2.75
	S35.776,40.417,37.293,40.417z"/>
</svg>
