<?xml version="1.0" encoding="utf-8"?>
<!-- Generator: Adobe Illustrator 17.0.0, SVG Export Plug-In . SVG Version: 6.00 Build 0)  -->
<!DOCTYPE svg PUBLIC "-//W3C//DTD SVG 1.1//EN" "http://www.w3.org/Graphics/SVG/1.1/DTD/svg11.dtd">
<svg version="1.1" id="Capa_1" xmlns="http://www.w3.org/2000/svg" xmlns:xlink="http://www.w3.org/1999/xlink" x="0px" y="0px"
	 width="64px" height="64px" viewBox="0 0 64 64" enable-background="new 0 0 64 64" xml:space="preserve">
<path d="M36.018,5.158c-2.364-0.209-4.03-0.169-4.518-0.146c-0.487-0.022-2.153-0.062-4.517,0.146
	C17.527,5.995,12.14,9.961,9.285,13.141c-1.213,1.351-1.593,2.56-1.131,3.596c0.179,0.402,0.773,1.338,2.398,1.338
	c0.612,0,1.329-0.132,2.131-0.392c1.253-0.407,2.518-0.683,3.761-0.819c0.154-0.017,0.298-0.026,0.432-0.026
	c0.003,0,0.007,0,0.011,0c-0.126,0.166-0.316,0.377-0.604,0.627C9.79,23.103,8.72,28.398,8.965,31.849
	c0.213,3,1.83,3.324,2.516,3.324c1.147,0,2.25-0.837,3.37-2.558c2.148-3.303,6.259-5.437,9.328-6.644
	c0.765-0.303,1.419-0.236,1.813,0.199c0.34,0.375,0.493,1.007,0.422,1.735l-2.233,22.79c-0.172,1.756,0.361,3.416,1.501,4.673
	c1.141,1.257,2.739,1.95,4.504,1.95h4.261c1.778,0,3.361-0.699,4.457-1.969c1.096-1.269,1.556-2.938,1.295-4.697l-3.379-22.85
	c-0.105-0.717,0.008-1.332,0.312-1.684c0.341-0.396,0.947-0.44,1.69-0.147c3.07,1.208,7.181,3.341,9.329,6.644
	c1.119,1.722,2.222,2.559,3.369,2.559c0.686,0,2.303-0.324,2.516-3.324c0.245-3.451-0.825-8.748-7.318-14.385
	c-0.288-0.25-0.478-0.461-0.603-0.626c0.114,0.011,0.284,0.008,0.443,0.026c1.242,0.136,2.508,0.412,3.76,0.819
	c0.802,0.26,1.519,0.392,2.131,0.392c1.626,0,2.219-0.936,2.398-1.338c0.462-1.036,0.081-2.246-1.132-3.597
	C50.86,9.961,45.473,5.995,36.018,5.158z M46.885,13.882c-2.816-0.31-3.629,1.121-3.847,1.701c-0.477,1.276,0.147,2.788,1.712,4.147
	c4.357,3.783,6.533,7.858,6.3,11.794c-0.116-0.151-0.245-0.331-0.384-0.544c-2.581-3.968-7.269-6.432-10.747-7.801
	c-1.941-0.764-3.893-0.372-5.058,0.979c-0.889,1.029-1.247,2.479-1.009,4.083l3.379,22.85c0.13,0.883-0.082,1.699-0.599,2.298
	c-0.518,0.599-1.294,0.929-2.187,0.929h-4.261c-0.907,0-1.717-0.343-2.281-0.965c-0.564-0.623-0.826-1.462-0.737-2.365l2.233-22.79
	c0.156-1.592-0.266-3.028-1.187-4.043c-0.801-0.884-1.921-1.371-3.154-1.371c-0.647,0-1.313,0.133-1.978,0.394
	c-3.478,1.368-8.165,3.832-10.746,7.8c-0.139,0.214-0.268,0.394-0.385,0.545c-0.234-3.936,1.942-8.011,6.299-11.794
	c1.566-1.36,2.19-2.872,1.714-4.148c-0.217-0.58-1.028-2.005-3.846-1.701c-1.421,0.156-2.863,0.467-4.287,0.924
	c2.571-2.714,7.277-5.939,15.418-6.659c2.05-0.181,3.576-0.159,4.038-0.142c0.141,0.019,0.287,0.019,0.428,0
	c0.461-0.018,1.987-0.04,4.039,0.142c8.14,0.72,12.846,3.945,15.417,6.659C49.747,14.348,48.306,14.038,46.885,13.882z"/>
</svg>
