<?xml version="1.0" encoding="utf-8"?>
<!-- Generator: Adobe Illustrator 17.0.0, SVG Export Plug-In . SVG Version: 6.00 Build 0)  -->
<!DOCTYPE svg PUBLIC "-//W3C//DTD SVG 1.1//EN" "http://www.w3.org/Graphics/SVG/1.1/DTD/svg11.dtd">
<svg version="1.1" id="Capa_1" xmlns="http://www.w3.org/2000/svg" xmlns:xlink="http://www.w3.org/1999/xlink" x="0px" y="0px"
	 width="64px" height="64px" viewBox="0 0 64 64" enable-background="new 0 0 64 64" xml:space="preserve">
<g>
	<path d="M51.77,13.947c-0.57-2.783-2.119-4.892-4.36-5.941c-4.466-2.09-10.287,0.883-12.974,6.627L24.344,36.209
		c-2.778,5.938-2.44,11.555,0.786,13.063c1.698,0.795,3.787,0.288,5.873-1.432c1.78-1.47,3.436-3.72,4.659-6.337L46.03,19.341
		c0.351-0.75,0.027-1.643-0.723-1.995c-0.753-0.352-1.643-0.027-1.994,0.723L32.945,40.232c-1.024,2.19-2.429,4.12-3.852,5.295
		c-1.09,0.901-2.123,1.296-2.691,1.028c-1.199-0.561-1.539-4.375,0.659-9.075l10.093-21.575c1.986-4.245,6.018-6.574,8.985-5.181
		c1.361,0.637,2.318,1.995,2.693,3.826c0.408,1.992,0.085,4.262-0.911,6.392L37.456,43.313c-2.158,4.611-7.162,9.707-10.928,11.128
		c-1.621,0.611-3.304,0.542-4.738-0.194c-1.409-0.724-2.425-2.017-2.859-3.642c-1.038-3.881-0.081-11.082,2.09-15.724l10.648-22.763
		c0.352-0.75,0.027-1.644-0.723-1.995c-0.753-0.351-1.644-0.027-1.994,0.723L18.304,33.61c-2.506,5.357-3.504,13.162-2.271,17.77
		c0.656,2.454,2.215,4.42,4.388,5.536c1.22,0.626,2.546,0.941,3.9,0.941c1.085,0,2.188-0.202,3.267-0.609
		c4.536-1.711,10.064-7.274,12.586-12.663l10.465-22.372C51.906,19.503,52.309,16.567,51.77,13.947z"/>
</g>
</svg>
