<?xml version="1.0" encoding="utf-8"?>
<!-- Generator: Adobe Illustrator 17.0.0, SVG Export Plug-In . SVG Version: 6.00 Build 0)  -->
<!DOCTYPE svg PUBLIC "-//W3C//DTD SVG 1.1//EN" "http://www.w3.org/Graphics/SVG/1.1/DTD/svg11.dtd">
<svg version="1.1" id="Capa_1" xmlns="http://www.w3.org/2000/svg" xmlns:xlink="http://www.w3.org/1999/xlink" x="0px" y="0px"
	 width="64px" height="64px" viewBox="0 0 64 64" enable-background="new 0 0 64 64" xml:space="preserve">
<g>
	<path d="M53.417,22.584c-0.7-0.176-2.1-0.32-3.115-0.408l-0.477-2.607c-0.51-2.79-3.866-4.976-7.64-4.976H20.357
		c-3.782,0-7.12,2.193-7.598,4.993l-0.445,2.607l-2.87,0.261l-0.157,0.024c-1.683,0.335-3.813,2.613-5.079,4.588
		c-0.716,1.116-0.793,2.365-0.212,3.428c0.662,1.211,2.154,2.057,3.627,2.057c0.19,0,0.375-0.015,0.551-0.043l0.433-0.07
		L8.062,35.21c-0.327,1.667,0.062,3.274,1.093,4.528c0.321,0.391,0.702,0.727,1.121,1.018c0.156,1.332,0.513,4.312,0.923,7.407
		c0.659,4.981,6.567,8.884,13.45,8.884h13.516c6.896,0,12.745-3.914,13.318-8.921l0.792-7.372c0.419-0.289,0.801-0.625,1.125-1.015
		c1.038-1.249,1.438-2.854,1.127-4.517l-0.547-2.925l2.713,0.261c0.182,0.028,0.351,0.042,0.509,0.042
		c0.899-0.001,1.644-0.421,2.041-1.153c0.578-1.066,0.294-2.536-0.822-4.254C57.165,25.262,55.063,22.995,53.417,22.584z
		 M51.577,35.774c0.146,0.781-0.021,1.49-0.486,2.049c-0.561,0.675-1.51,1.062-2.605,1.062h-34.43c-1.091,0-2.032-0.384-2.584-1.055
		c-0.457-0.556-0.618-1.263-0.465-2.043l0.721-3.674h39.165L51.577,35.774z M48.056,25.081l1.78,4.033h-37.04l1.781-4.033H48.056z
		 M20.357,17.593h21.827c2.42,0,4.472,1.328,4.689,2.516l0.361,1.973H15.377l0.34-1.99C15.918,18.911,17.945,17.593,20.357,17.593z
		 M7.623,29.549c-0.365,0-0.858-0.246-0.995-0.496c-0.017-0.03-0.061-0.11,0.105-0.369c1.187-1.851,2.627-3.075,3.105-3.254
		l1.358-0.124l-1.745,3.952L7.623,29.549z M48.502,47.795c-0.388,3.389-5.121,6.252-10.336,6.252H24.65
		c-5.229,0-10.026-2.875-10.477-6.278c-0.295-2.225-0.561-4.385-0.745-5.914c0.207,0.018,0.416,0.031,0.628,0.031h34.43
		c0.221,0,0.438-0.013,0.654-0.032L48.502,47.795z M53.156,29.205l-1.722-3.902c0.535,0.062,0.998,0.128,1.248,0.191
		c0.447,0.137,1.989,1.438,3.222,3.335c0.169,0.26,0.294,0.486,0.387,0.678L53.156,29.205z"/>
</g>
</svg>
