<?xml version="1.0" encoding="utf-8"?>
<!-- Generator: Adobe Illustrator 17.0.0, SVG Export Plug-In . SVG Version: 6.00 Build 0)  -->
<!DOCTYPE svg PUBLIC "-//W3C//DTD SVG 1.1//EN" "http://www.w3.org/Graphics/SVG/1.1/DTD/svg11.dtd">
<svg version="1.1" id="Capa_1" xmlns="http://www.w3.org/2000/svg" xmlns:xlink="http://www.w3.org/1999/xlink" x="0px" y="0px"
	 width="64px" height="64px" viewBox="0 0 64 64" enable-background="new 0 0 64 64" xml:space="preserve">
<g>
	<path d="M49.649,23.328L22.206,10.651c-2.111-1.175-4.175-1.795-5.972-1.795c-2.009,0-3.704,0.779-4.772,2.195
		c-0.98,1.299-1.896,3.727-0.689,7.95l9.959,32.139c1.301,4.198,3.167,5.079,4.503,5.079c1.317,0,3.175-0.864,4.548-4.983l0.78-2.34
		c1.627-4.884,11.002-13.661,15.922-14.907l1.814-0.461c4.394-1.113,5.314-3.275,5.472-4.466
		C53.928,27.873,53.602,25.545,49.649,23.328z M47.562,30.62l-1.814,0.461c-5.827,1.476-16.106,11.092-18.03,16.866l-0.78,2.34
		c-0.752,2.258-1.514,2.875-1.702,2.931c-0.186-0.06-0.934-0.692-1.639-2.966l-9.95-32.106c-0.669-2.343-0.595-4.221,0.209-5.287
		c0.502-0.665,1.301-1.002,2.377-1.002c1.299,0,2.875,0.498,4.557,1.442l27.44,12.676c1.877,1.063,2.642,2.118,2.566,2.695
		C50.72,29.252,49.69,30.081,47.562,30.62z"/>
</g>
</svg>
