<?xml version="1.0" encoding="utf-8"?>
<!-- Generator: Adobe Illustrator 17.0.0, SVG Export Plug-In . SVG Version: 6.00 Build 0)  -->
<!DOCTYPE svg PUBLIC "-//W3C//DTD SVG 1.1//EN" "http://www.w3.org/Graphics/SVG/1.1/DTD/svg11.dtd">
<svg version="1.1" id="Capa_1" xmlns="http://www.w3.org/2000/svg" xmlns:xlink="http://www.w3.org/1999/xlink" x="0px" y="0px"
	 width="64px" height="64px" viewBox="0 0 64 64" enable-background="new 0 0 64 64" xml:space="preserve">
<g>
	<path d="M53.009,22.002c-0.086-0.067-0.18-0.123-0.28-0.171c-1.753-1.083-3.811-1.719-6.018-1.719h-2.567
		c0.058-0.415,0.087-0.832,0.087-1.25c0-5.652-5.159-10.25-11.5-10.25h-1.539c-6.341,0-11.5,4.598-11.5,10.25
		c0,0.418,0.029,0.835,0.087,1.25h-2.567c-6.341,0-11.5,5.159-11.5,11.5v9c0,6.341,5.159,11.5,11.5,11.5h29.5
		c6.341,0,11.5-5.159,11.5-11.5v-9C58.211,27.596,56.138,24.059,53.009,22.002z M31.191,11.612h1.539c4.687,0,8.5,3.252,8.5,7.25
		c0,0.418-0.055,0.835-0.142,1.25H22.833c-0.087-0.415-0.142-0.832-0.142-1.25C22.691,14.864,26.504,11.612,31.191,11.612z
		 M21.703,23.112c0.013,0,0.026-0.005,0.039-0.005c0.016,0.001,0.031,0.005,0.047,0.005h20.343c0.016,0,0.031-0.004,0.047-0.005
		c0.013,0,0.026,0.005,0.039,0.005h4.492c1.356,0,2.635,0.327,3.774,0.895l-0.609,5.191c-0.218,1.97-2.075,3.634-4.057,3.634h-0.485
		v-1.751c0-0.828-0.671-1.5-1.5-1.5c-0.829,0-1.5,0.672-1.5,1.5v1.751H23.29v-1.335c0-0.828-0.671-1.5-1.5-1.5
		c-0.829,0-1.5,0.672-1.5,1.5v1.335h-0.304c-2.103,0-4.385-1.704-4.982-3.72l-1.519-5.129c1.127-0.553,2.389-0.872,3.727-0.872
		H21.703z M55.211,40.612c0,4.687-3.813,8.5-8.5,8.5h-29.5c-4.687,0-8.5-3.813-8.5-8.5v-9c0-2.195,0.844-4.192,2.215-5.702
		l1.201,4.055c0.975,3.291,4.427,5.868,7.858,5.868h0.304V38c0,0.828,0.671,1.5,1.5,1.5c0.829,0,1.5-0.672,1.5-1.5v-2.167h19.044
		v1.751c0,0.828,0.671,1.5,1.5,1.5c0.829,0,1.5-0.672,1.5-1.5v-1.751h0.485c3.498,0,6.655-2.828,7.038-6.295l0.393-3.349
		c1.224,1.473,1.961,3.363,1.961,5.423V40.612z"/>
	<path d="M30.769,18.15h2.385c2.761,0,4.99-2.189,3.18-3.673c-1.028-0.843-2.41-1.358-3.93-1.358h-0.885
		c-1.52,0-2.901,0.516-3.93,1.358C25.778,15.961,28.007,18.15,30.769,18.15z"/>
</g>
</svg>
