<?xml version="1.0" encoding="utf-8"?>
<!-- Generator: Adobe Illustrator 17.0.0, SVG Export Plug-In . SVG Version: 6.00 Build 0)  -->
<!DOCTYPE svg PUBLIC "-//W3C//DTD SVG 1.1//EN" "http://www.w3.org/Graphics/SVG/1.1/DTD/svg11.dtd">
<svg version="1.1" id="Capa_1" xmlns="http://www.w3.org/2000/svg" xmlns:xlink="http://www.w3.org/1999/xlink" x="0px" y="0px"
	 width="64px" height="64px" viewBox="0 0 64 64" enable-background="new 0 0 64 64" xml:space="preserve">
<g>
	<path d="M23.862,25.481c0.773-0.297,1.161-1.164,0.865-1.938c-0.296-0.774-1.163-1.16-1.937-0.865
		c-4.971,1.902-8.311,6.757-8.311,12.081v6.828c0,7.131,5.801,12.932,12.932,12.932h6.825c7.131,0,12.932-5.801,12.932-12.932V34.76
		c0-5.27-3.15-9.968-8.025-11.968c-0.768-0.312-1.643,0.053-1.957,0.818c-0.314,0.767,0.052,1.642,0.818,1.957
		c3.744,1.536,6.164,5.145,6.164,9.192v6.828c0,5.477-4.455,9.932-9.932,9.932h-6.825c-5.477,0-9.932-4.455-9.932-9.932V34.76
		C17.479,30.671,20.045,26.941,23.862,25.481z"/>
	<path d="M32.324,33.878V16.723c0-0.828-0.672-1.5-1.5-1.5s-1.5,0.672-1.5,1.5v17.155c0,0.828,0.672,1.5,1.5,1.5
		S32.324,34.706,32.324,33.878z"/>
</g>
</svg>
