<?xml version="1.0" encoding="utf-8"?>
<!-- Generator: Adobe Illustrator 17.0.0, SVG Export Plug-In . SVG Version: 6.00 Build 0)  -->
<!DOCTYPE svg PUBLIC "-//W3C//DTD SVG 1.1//EN" "http://www.w3.org/Graphics/SVG/1.1/DTD/svg11.dtd">
<svg version="1.1" id="Capa_1" xmlns="http://www.w3.org/2000/svg" xmlns:xlink="http://www.w3.org/1999/xlink" x="0px" y="0px"
	 width="64px" height="64px" viewBox="0 0 64 64" enable-background="new 0 0 64 64" xml:space="preserve">
<circle cx="53.256" cy="40.632" r="3.086"/>
<circle cx="43.778" cy="40.632" r="2.239"/>
<path d="M51.602,29.916h-3.767V11.765c0-0.407-0.165-0.796-0.458-1.079l-8.123-7.848c-0.279-0.27-0.653-0.421-1.042-0.421H25.08
	c-4.868,0-8.829,3.961-8.829,8.829v18.67h-3.768c-6.341,0-11.5,5.159-11.5,11.5v5.734c0,5.313,3.613,9.851,8.628,11.134
	c0.26,2.191,2.799,3.8,6.108,3.8c3.122,0,5.559-1.432,6.042-3.434h20.823c0.483,2.002,2.92,3.434,6.042,3.434
	c3.351,0,5.91-1.649,6.116-3.882c4.861-1.382,8.359-5.884,8.359-11.052v-5.734C63.102,35.075,57.942,29.916,51.602,29.916z
	 M39.712,7.452l2.912,2.814h-0.352c-1.412,0-2.561-1.087-2.561-2.424V7.452z M19.251,11.246c0-3.214,2.615-5.829,5.829-5.829h11.632
	v2.424c0,2.991,2.494,5.424,5.561,5.424h2.563v16.65l-25.584,0V11.246z M60.102,47.15c0,4.214-3.148,7.828-7.322,8.407
	c-0.498,0.069-0.929,0.383-1.146,0.837c-0.218,0.453-0.193,0.985,0.064,1.417c0.04,0.068,0.055,0.107,0.059,0.107
	c-0.021,0.3-1.129,1.165-3.13,1.165c-2.02,0-3.13-0.881-3.134-1.131c0.001-0.001,0.009-0.036,0.05-0.116
	c0.24-0.465,0.22-1.021-0.053-1.468c-0.271-0.447-0.757-0.719-1.28-0.719H20.136c-0.523,0-1.009,0.273-1.28,0.719
	c-0.272,0.446-0.293,1.003-0.053,1.468c0.027,0.054,0.04,0.087,0.045,0.09c-0.04,0.308-1.146,1.157-3.129,1.157
	c-2.02,0-3.129-0.881-3.132-1.139c0-0.001,0.01-0.039,0.058-0.124c0.249-0.438,0.262-0.972,0.033-1.421
	c-0.227-0.449-0.666-0.753-1.167-0.811c-4.291-0.489-7.527-4.118-7.527-8.44v-5.734c0-4.687,3.813-8.5,8.5-8.5h39.118
	c4.687,0,8.5,3.813,8.5,8.5V47.15z"/>
</svg>
