<?xml version="1.0" encoding="utf-8"?>
<!-- Generator: Adobe Illustrator 17.0.0, SVG Export Plug-In . SVG Version: 6.00 Build 0)  -->
<!DOCTYPE svg PUBLIC "-//W3C//DTD SVG 1.1//EN" "http://www.w3.org/Graphics/SVG/1.1/DTD/svg11.dtd">
<svg version="1.1" id="Capa_1" xmlns="http://www.w3.org/2000/svg" xmlns:xlink="http://www.w3.org/1999/xlink" x="0px" y="0px"
	 width="64px" height="64px" viewBox="0 0 64 64" enable-background="new 0 0 64 64" xml:space="preserve">
<path d="M58.296,14c1.491-0.388,2.488-2.295,2.488-4.902c0-2.789-3.275-4.974-7.456-4.974H10.446c-4.181,0-7.456,2.185-7.456,4.974
	c0,2.606,0.998,4.514,2.488,4.902c0.268,0.596,0.639,2.208,0.639,4.528V35.8c0,2.314-0.369,3.924-0.637,4.524
	c-1.454,0.354-2.49,2.046-2.49,4.211c0,2.479,3.136,4.279,7.456,4.279H29.19v4.464c-1.006,0.951-1.587,2.279-1.587,3.687
	c0,2.798,2.276,5.074,5.074,5.074c2.797,0,5.073-2.276,5.073-5.074c0-1.497-0.622-2.869-1.699-3.815v-4.335h17.277
	c4.32,0,7.456-1.8,7.456-4.279c0-2.165-1.037-3.857-2.49-4.211c-0.267-0.6-0.637-2.21-0.637-4.524V18.528
	C57.657,16.208,58.028,14.595,58.296,14z M33.777,55.189c0.609,0.367,0.973,1.031,0.973,1.777c0,1.144-0.93,2.074-2.073,2.074
	c-1.144,0-2.074-0.93-2.074-2.074c0-0.69,0.342-1.333,0.843-1.675l0.744-0.435v-6.042h0.861v5.937L33.777,55.189z M57.481,43.242
	c0.118,0.178,0.304,0.619,0.309,1.249c-0.135,0.365-1.712,1.324-4.462,1.324H10.446c-2.75,0-4.327-0.959-4.456-1.279
	c0-0.667,0.186-1.115,0.303-1.293c2.543-0.293,2.824-5.267,2.824-7.442V18.528c0-2.145-0.273-7.011-2.72-7.427
	C6.241,10.832,5.99,10.142,5.99,9.098c0-0.786,1.777-1.974,4.456-1.974h42.883c2.679,0,4.456,1.188,4.456,1.974
	c0,1.044-0.251,1.734-0.407,2.003c-2.446,0.416-2.72,5.282-2.72,7.427V35.8C54.657,37.976,54.938,42.949,57.481,43.242z"/>
<path d="M40.5,14.75H23c-6.341,0-11.5,5.159-11.5,11.5v2c0,6.341,5.159,11.5,11.5,11.5h17.5c6.341,0,11.5-5.159,11.5-11.5v-2
	C52,19.909,46.841,14.75,40.5,14.75z M49,28.25c0,4.687-3.813,8.5-8.5,8.5H23c-4.687,0-8.5-3.813-8.5-8.5v-2
	c0-4.687,3.813-8.5,8.5-8.5h17.5c4.687,0,8.5,3.813,8.5,8.5V28.25z"/>
<path d="M43.421,22.037c-0.715-0.417-1.634-0.174-2.051,0.542l-2.333,4.01c-0.117,0.201-0.457,0.676-0.751,0.662
	c-0.373-0.007-1.04-0.515-1.623-1.611c-0.967-1.819-2.383-2.838-3.989-2.87c-1.64-0.058-3.151,0.995-4.215,2.818
	c-0.959,1.644-1.874,2.49-2.337,2.768c-1.409-1.202-3.666-1.158-5.253,0.172l-2,1.676c-0.635,0.532-0.718,1.478-0.186,2.113
	c0.296,0.354,0.722,0.537,1.15,0.537c0.34,0,0.682-0.115,0.962-0.351l2-1.676c0.507-0.425,1.167-0.431,1.419-0.149
	c0.51,0.57,1.228,0.844,2.008,0.76c2.203-0.223,4.11-3.108,4.828-4.338c0.491-0.844,1.039-1.35,1.564-1.33
	c0.455,0.009,0.979,0.487,1.399,1.279c1.065,2.004,2.601,3.171,4.214,3.203c1.385,0.029,2.579-0.738,3.401-2.152l2.333-4.01
	C44.379,23.372,44.137,22.454,43.421,22.037z"/>
</svg>
