<?xml version="1.0" encoding="utf-8"?>
<!-- Generator: Adobe Illustrator 17.0.0, SVG Export Plug-In . SVG Version: 6.00 Build 0)  -->
<!DOCTYPE svg PUBLIC "-//W3C//DTD SVG 1.1//EN" "http://www.w3.org/Graphics/SVG/1.1/DTD/svg11.dtd">
<svg version="1.1" id="Capa_1" xmlns="http://www.w3.org/2000/svg" xmlns:xlink="http://www.w3.org/1999/xlink" x="0px" y="0px"
	 width="64px" height="64px" viewBox="0 0 64 64" enable-background="new 0 0 64 64" xml:space="preserve">
<g>
	<path d="M47.222,15.319H34.727c-0.291-0.532-0.726-0.968-1.26-1.258c0.158-0.751,0.254-1.62,0.254-2.56v-0.833
		c0-0.866-0.084-1.669-0.22-2.379c0.01-0.24,0.133-2.215,1.396-3.108c1.217-0.857,3.173-0.437,4.601,0.068
		c0.782,0.276,1.638-0.133,1.915-0.913c0.276-0.781-0.132-1.639-0.914-1.915c-3.048-1.078-5.514-0.975-7.333,0.31
		c-2.1,1.484-2.545,4.056-2.641,5.121c-0.192,0.803-0.305,1.771-0.305,2.816v0.833c0,0.94,0.096,1.809,0.254,2.56
		c-0.533,0.29-0.969,0.726-1.26,1.258H16.722c-6.341,0-11.5,5.159-11.5,11.5v19.362c0,6.341,5.159,11.5,11.5,11.5h30.5
		c6.341,0,11.5-5.159,11.5-11.5V26.819C58.722,20.479,53.563,15.319,47.222,15.319z M55.722,46.182c0,4.687-3.813,8.5-8.5,8.5h-30.5
		c-4.687,0-8.5-3.813-8.5-8.5V26.819c0-4.687,3.813-8.5,8.5-8.5h12.495c0.535,0.979,1.562,1.651,2.755,1.651
		c1.194,0,2.221-0.672,2.755-1.651h12.495c4.687,0,8.5,3.813,8.5,8.5V46.182z"/>
	<path d="M32,39.688c3.994,0,7.243-4.014,7.243-8.946c0-5.687-2.64-8.947-7.243-8.947c-4.535,0-7.242,3.345-7.242,8.947
		C24.758,35.675,28.007,39.688,32,39.688z M32,24.795c1.049,0,4.243,0,4.243,5.947c0,3.224-1.943,5.946-4.243,5.946
		c-2.299,0-4.242-2.723-4.242-5.946C27.758,28.029,28.494,24.795,32,24.795z"/>
	<path d="M42.543,39.913c-1.781-1.277-4.69-1.078-7.438,0.429c-1.081,0.592-2.107,0.892-3.051,0.892h-0.108
		c-0.944,0-1.971-0.3-3.051-0.892c-2.748-1.506-5.655-1.709-7.439-0.428c-1.974,1.419-2.933,4.653-2.184,7.364
		c0.776,2.81,4.579,4.928,8.846,4.928h7.764c4.267,0,8.07-2.118,8.846-4.928C45.477,44.568,44.518,41.333,42.543,39.913z
		 M41.836,46.479c-0.355,1.287-2.977,2.727-5.954,2.727h-7.764c-2.977,0-5.599-1.439-5.954-2.727
		c-0.459-1.661,0.182-3.51,1.042-4.129c0.277-0.199,0.668-0.3,1.163-0.3c0.892,0,2.016,0.336,3.084,0.922
		c1.528,0.837,3.04,1.261,4.493,1.261l0-1.5l0.108,1.5c1.454,0,2.965-0.424,4.493-1.261c1.661-0.911,3.469-1.179,4.245-0.623
		C41.655,42.97,42.295,44.818,41.836,46.479z"/>
</g>
</svg>
