<?xml version="1.0" encoding="utf-8"?>
<!-- Generator: Adobe Illustrator 17.0.0, SVG Export Plug-In . SVG Version: 6.00 Build 0)  -->
<!DOCTYPE svg PUBLIC "-//W3C//DTD SVG 1.1//EN" "http://www.w3.org/Graphics/SVG/1.1/DTD/svg11.dtd">
<svg version="1.1" id="Capa_1" xmlns="http://www.w3.org/2000/svg" xmlns:xlink="http://www.w3.org/1999/xlink" x="0px" y="0px"
	 width="64px" height="64px" viewBox="0 0 64 64" enable-background="new 0 0 64 64" xml:space="preserve">
<g>
	<path d="M58.188,23.362c0-4.778-5.159-8.666-11.5-8.666h-1.626c-1.164,0-1.902,0.892-2.838,2.019
		c-0.647,0.782-1.383,1.669-2.321,2.379c-1.859,1.407-4.61,2.214-7.548,2.214c-2.937,0-5.688-0.807-7.549-2.214
		c-0.938-0.71-1.673-1.597-2.321-2.379c-0.935-1.128-1.674-2.019-2.838-2.019h-1.626c-6.341,0-11.5,3.888-11.5,8.666
		c0,3.917,3.467,7.23,8.208,8.301v3.203c-4.741,1.07-8.208,4.384-8.208,8.3c0,4.123,3.844,7.576,8.97,8.448
		c-0.087,0.26-0.137,0.544-0.137,0.845c0,1.174,0.737,2.126,1.646,2.126c0.909,0,1.646-0.952,1.646-2.126
		c0-0.22-0.033-0.427-0.081-0.626h28.123c0.344,0,0.682-0.017,1.017-0.039c-0.054,0.211-0.09,0.432-0.09,0.665
		c0,1.174,0.737,2.126,1.646,2.126c0.908,0,1.646-0.952,1.646-2.126c0-0.43-0.101-0.829-0.271-1.163
		c4.399-1.218,7.552-4.397,7.552-8.13c0-3.832-3.321-7.086-7.906-8.227v-3.35C54.867,30.449,58.188,27.195,58.188,23.362z
		 M9.521,23.362c0-3.071,3.893-5.666,8.5-5.666h1.336c0.21,0.2,0.555,0.616,0.818,0.935c0.716,0.862,1.605,1.937,2.821,2.856
		c2.37,1.793,5.781,2.821,9.358,2.821c3.577,0,6.988-1.028,9.357-2.821c1.217-0.92,2.107-1.994,2.822-2.857
		c0.264-0.318,0.607-0.733,0.817-0.934h1.336c4.607,0,8.5,2.595,8.5,5.666c0,3.072-3.893,5.667-8.5,5.667H18.021
		C13.414,29.029,9.521,26.435,9.521,23.362z M55.188,43.166c0,3.072-3.893,5.667-8.5,5.667H18.021c-4.607,0-8.5-2.595-8.5-5.667
		c0-3.071,3.893-5.666,8.5-5.666h1.336c0.21,0.2,0.555,0.616,0.818,0.935c0.716,0.862,1.605,1.937,2.821,2.856
		c2.37,1.793,5.781,2.821,9.358,2.821c3.577,0,6.988-1.028,9.357-2.821c1.217-0.92,2.107-1.994,2.822-2.857
		c0.264-0.318,0.607-0.733,0.817-0.934h1.336C51.296,37.5,55.188,40.095,55.188,43.166z M46.99,34.512
		c-0.101-0.002-0.2-0.012-0.302-0.012h-1.626c-1.164,0-1.902,0.892-2.838,2.02c-0.647,0.782-1.383,1.669-2.321,2.379
		c-1.859,1.407-4.61,2.214-7.548,2.214c-2.937,0-5.688-0.807-7.549-2.214c-0.938-0.71-1.673-1.597-2.321-2.379
		c-0.935-1.128-1.674-2.02-2.838-2.02h-1.626v-2.471h28.667c0.102,0,0.2-0.01,0.302-0.012V34.512z"/>
</g>
</svg>
