<?xml version="1.0" encoding="utf-8"?>
<!-- Generator: Adobe Illustrator 17.0.0, SVG Export Plug-In . SVG Version: 6.00 Build 0)  -->
<!DOCTYPE svg PUBLIC "-//W3C//DTD SVG 1.1//EN" "http://www.w3.org/Graphics/SVG/1.1/DTD/svg11.dtd">
<svg version="1.1" id="Capa_1" xmlns="http://www.w3.org/2000/svg" xmlns:xlink="http://www.w3.org/1999/xlink" x="0px" y="0px"
	 width="64px" height="64px" viewBox="0 0 64 64" enable-background="new 0 0 64 64" xml:space="preserve">
<path d="M55.943,28.189c-1.949-2.411-4.911-3.738-8.339-3.738h-0.938l-9.474-12.045c0.172-0.392,0.272-0.824,0.272-1.28
	c0-1.761-1.427-3.188-3.188-3.188c-1.459,0-2.675,0.985-3.054,2.322c-0.379-1.337-1.595-2.322-3.054-2.322
	c-1.761,0-3.188,1.427-3.188,3.188c0,0.456,0.099,0.888,0.272,1.28l-9.474,12.045h-0.382c-3.428,0-6.39,1.327-8.34,3.738
	c-1.95,2.41-2.629,5.583-1.913,8.935l0.913,4.274c1.419,6.644,8.1,12.048,14.893,12.048H42.05c6.793,0,13.474-5.404,14.893-12.048
	l0.913-4.274C58.572,33.771,57.893,30.599,55.943,28.189z M27.613,14.258c0.181,0.032,0.365,0.056,0.555,0.056
	c1.459,0,2.675-0.985,3.054-2.323c0.379,1.337,1.595,2.323,3.054,2.323c0.191,0,0.375-0.024,0.556-0.056l8.017,10.193H19.596
	L27.613,14.258z M54.923,36.498l-0.913,4.274c-1.14,5.335-6.505,9.675-11.959,9.675H20.95c-5.455,0-10.819-4.34-11.96-9.675
	l-0.913-4.274c-0.523-2.449-0.058-4.729,1.311-6.422c1.369-1.692,3.503-2.625,6.008-2.625h32.208c2.505,0,4.639,0.933,6.008,2.625
	C54.98,31.769,55.446,34.049,54.923,36.498z M20.089,31.395v14.854c0,0.828-0.671,1.5-1.5,1.5c-0.829,0-1.5-0.672-1.5-1.5V31.395
	c0-0.828,0.671-1.5,1.5-1.5C19.418,29.895,20.089,30.566,20.089,31.395z M32.589,31.395v14.854c0,0.828-0.671,1.5-1.5,1.5
	c-0.829,0-1.5-0.672-1.5-1.5V31.395c0-0.828,0.671-1.5,1.5-1.5C31.917,29.895,32.589,30.566,32.589,31.395z M45.088,31.395v14.854
	c0,0.828-0.671,1.5-1.5,1.5s-1.5-0.672-1.5-1.5V31.395c0-0.828,0.671-1.5,1.5-1.5S45.088,30.566,45.088,31.395z"/>
</svg>
