<?xml version="1.0" encoding="utf-8"?>
<!-- Generator: Adobe Illustrator 17.0.0, SVG Export Plug-In . SVG Version: 6.00 Build 0)  -->
<!DOCTYPE svg PUBLIC "-//W3C//DTD SVG 1.1//EN" "http://www.w3.org/Graphics/SVG/1.1/DTD/svg11.dtd">
<svg version="1.1" id="Capa_1" xmlns="http://www.w3.org/2000/svg" xmlns:xlink="http://www.w3.org/1999/xlink" x="0px" y="0px"
	 width="64px" height="64px" viewBox="0 0 64 64" enable-background="new 0 0 64 64" xml:space="preserve">
<g>
	<path d="M55.936,25.021c-0.384,0-0.839,0.032-1.352,0.096l-14.26,1.769c-1.971,0.232-3.76-1.159-4.052-3.066L34.24,10.558
		c-0.178-1.16-0.509-3.319-2.24-3.319c-1.731,0-2.062,2.159-2.24,3.319L27.728,23.82c-0.292,1.907-2.089,3.299-4.052,3.066
		l-14.26-1.769c-0.549-0.068-1.029-0.103-1.425-0.103c-1.728,0-2.26,0.788-2.401,1.45c-0.343,1.607,1.592,2.471,2.631,2.936
		l12.009,5.369c0.852,0.381,1.504,1.07,1.835,1.941c0.331,0.871,0.302,1.819-0.083,2.671l-5.432,12.032
		c-0.781,1.731-0.894,2.757-0.388,3.54c0.323,0.499,0.875,0.798,1.479,0.797c0.801,0,1.635-0.503,2.792-1.681l9.135-9.313
		c1.302-1.328,3.56-1.328,4.861,0l9.135,9.313c1.177,1.199,1.982,1.689,2.779,1.689c0,0,0,0,0,0c0.602,0,1.149-0.3,1.466-0.8
		c0.493-0.78,0.36-1.804-0.459-3.532l-5.264-11.11c-0.832-1.756-0.092-3.886,1.651-4.747l12.174-6.02
		c0.94-0.465,2.896-1.432,2.515-3.061C58.271,25.82,57.712,25.021,55.936,25.021z M42.41,32.881
		c-3.201,1.582-4.561,5.495-3.032,8.722l3.587,7.569l-6.392-6.517c-1.22-1.243-2.844-1.928-4.572-1.928
		c-1.729,0-3.353,0.685-4.572,1.928l-6.726,6.857l4.016-8.896c0.715-1.584,0.769-3.35,0.152-4.972
		c-0.616-1.621-1.829-2.904-3.415-3.613l-7.422-3.318l9.273,1.15c0.272,0.034,0.542,0.051,0.81,0.051h0
		c3.256,0,6.083-2.425,6.577-5.639L32,15.747l1.306,8.528c0.533,3.477,3.81,6.034,7.387,5.588l10.439-1.295L42.41,32.881z"/>
</g>
</svg>
