<?xml version="1.0" encoding="utf-8"?>
<!-- Generator: Adobe Illustrator 17.0.0, SVG Export Plug-In . SVG Version: 6.00 Build 0)  -->
<!DOCTYPE svg PUBLIC "-//W3C//DTD SVG 1.1//EN" "http://www.w3.org/Graphics/SVG/1.1/DTD/svg11.dtd">
<svg version="1.1" id="Capa_1" xmlns="http://www.w3.org/2000/svg" xmlns:xlink="http://www.w3.org/1999/xlink" x="0px" y="0px"
	 width="64px" height="64px" viewBox="0 0 64 64" enable-background="new 0 0 64 64" xml:space="preserve">
<path d="M51.831,23.015h-1.516c-4.913,0-10.146-3.802-11.663-8.474L38.184,13.1c-1.337-4.113-3.194-4.977-4.517-4.977
	c-1.323,0-3.18,0.864-4.517,4.977l-0.468,1.441c-1.518,4.672-6.75,8.474-11.664,8.474h-1.516c-4.324,0-5.719,1.5-6.128,2.758
	c-0.409,1.258-0.162,3.292,3.336,5.833l1.226,0.891c3.975,2.888,5.974,9.039,4.455,13.712l-0.468,1.441
	c-0.882,2.716-0.86,4.74,0.068,6.017c0.586,0.807,1.499,1.25,2.571,1.25c1.31,0,2.881-0.659,4.669-1.958l1.226-0.891
	c1.907-1.385,4.467-2.148,7.208-2.148s5.302,0.763,7.208,2.148l1.226,0.891c1.788,1.299,3.36,1.958,4.67,1.958
	c1.072,0,1.985-0.444,2.571-1.251c0.927-1.277,0.95-3.301,0.068-6.017l-0.468-1.441c-1.518-4.673,0.48-10.824,4.455-13.712
	l1.226-0.891c3.499-2.542,3.746-4.575,3.336-5.833C57.55,24.515,56.155,23.015,51.831,23.015z M52.859,29.18l-1.226,0.891
	c-5.031,3.655-7.467,11.151-5.545,17.065l0.468,1.441c0.743,2.286,0.468,3.21,0.369,3.322c-0.012,0.005-0.061,0.019-0.154,0.019
	c-0.234,0-1.137-0.1-2.906-1.385l-1.226-0.891c-2.416-1.755-5.602-2.721-8.972-2.721s-6.557,0.966-8.972,2.721l-1.226,0.891
	c-1.769,1.285-2.671,1.385-2.906,1.385c-0.09,0-0.143-0.014-0.139-0.008c-0.114-0.123-0.389-1.046,0.354-3.333l0.468-1.441
	c1.922-5.914-0.514-13.411-5.545-17.065l-1.226-0.891c-1.945-1.413-2.266-2.322-2.25-2.471c0.081-0.146,0.874-0.693,3.278-0.693
	h1.516c6.218,0,12.595-4.633,14.517-10.547l0.468-1.441c0.743-2.286,1.508-2.872,1.654-2.904c0.165,0.032,0.93,0.618,1.673,2.904
	l0.468,1.441c1.922,5.914,8.299,10.547,14.517,10.547h1.516c2.404,0,3.197,0.547,3.273,0.676
	C55.125,26.857,54.804,27.767,52.859,29.18z"/>
</svg>
