<?xml version="1.0" encoding="utf-8"?>
<!-- Generator: Adobe Illustrator 17.0.0, SVG Export Plug-In . SVG Version: 6.00 Build 0)  -->
<!DOCTYPE svg PUBLIC "-//W3C//DTD SVG 1.1//EN" "http://www.w3.org/Graphics/SVG/1.1/DTD/svg11.dtd">
<svg version="1.1" id="Capa_1" xmlns="http://www.w3.org/2000/svg" xmlns:xlink="http://www.w3.org/1999/xlink" x="0px" y="0px"
	 width="64px" height="64px" viewBox="0 0 64 64" enable-background="new 0 0 64 64" xml:space="preserve">
<path d="M20.727,60.208h22.75c6.341,0,11.5-5.159,11.5-11.5V15.292c0-6.341-5.159-11.5-11.5-11.5h-22.75
	c-6.341,0-11.5,5.159-11.5,11.5v33.415C9.227,55.049,14.386,60.208,20.727,60.208z M12.227,15.292c0-4.687,3.813-8.5,8.5-8.5h22.75
	c4.687,0,8.5,3.813,8.5,8.5v33.415c0,4.687-3.813,8.5-8.5,8.5h-22.75c-4.687,0-8.5-3.813-8.5-8.5V15.292z"/>
<path d="M27.71,48.734h8.785c7.114,0,12.902-5.788,12.902-12.902V21.387c0-7.114-5.788-12.902-12.902-12.902H27.71
	c-7.114,0-12.902,5.788-12.902,12.902v14.445C14.808,42.947,20.596,48.734,27.71,48.734z M17.808,21.387
	c0-5.46,4.442-9.902,9.902-9.902h8.785c5.46,0,9.902,4.442,9.902,9.902v14.445c0,5.46-4.442,9.902-9.902,9.902H27.71
	c-5.46,0-9.902-4.442-9.902-9.902V21.387z"/>
<circle cx="32.102" cy="53.25" r="2"/>
</svg>
