<?xml version="1.0" encoding="utf-8"?>
<!-- Generator: Adobe Illustrator 17.0.0, SVG Export Plug-In . SVG Version: 6.00 Build 0)  -->
<!DOCTYPE svg PUBLIC "-//W3C//DTD SVG 1.1//EN" "http://www.w3.org/Graphics/SVG/1.1/DTD/svg11.dtd">
<svg version="1.1" id="Capa_1" xmlns="http://www.w3.org/2000/svg" xmlns:xlink="http://www.w3.org/1999/xlink" x="0px" y="0px"
	 width="64px" height="64px" viewBox="0 0 64 64" enable-background="new 0 0 64 64" xml:space="preserve">
<g>
	<path d="M41.609,11.5H22.234c-0.829,0-1.5-0.671-1.5-1.5s0.671-1.5,1.5-1.5h19.375c0.829,0,1.5,0.671,1.5,1.5
		S42.438,11.5,41.609,11.5z"/>
</g>
<g>
	<path d="M43.297,3.793h-22.75c-6.341,0-11.5,5.159-11.5,11.5v33.415c0,6.341,5.159,11.5,11.5,11.5h22.75
		c6.341,0,11.5-5.159,11.5-11.5V15.292C54.797,8.951,49.638,3.793,43.297,3.793z M51.797,48.708c0,4.687-3.813,8.5-8.5,8.5h-22.75
		c-4.687,0-8.5-3.813-8.5-8.5V15.292c0-4.687,3.813-8.5,8.5-8.5h22.75c4.687,0,8.5,3.813,8.5,8.5V48.708z"/>
	<path d="M36.314,13.485h-8.785c-7.114,0-12.902,5.787-12.902,12.902v9.445c0,7.114,5.788,12.902,12.902,12.902h8.785
		c7.114,0,12.902-5.788,12.902-12.902v-9.445C49.216,19.273,43.429,13.485,36.314,13.485z M46.216,35.833
		c0,5.46-4.442,9.902-9.902,9.902h-8.785c-5.46,0-9.902-4.442-9.902-9.902v-9.445c0-5.46,4.442-9.902,9.902-9.902h8.785
		c5.46,0,9.902,4.442,9.902,9.902V35.833z"/>
	<circle cx="31.922" cy="53.25" r="2"/>
</g>
</svg>
