<?xml version="1.0" encoding="utf-8"?>
<!-- Generator: Adobe Illustrator 17.0.0, SVG Export Plug-In . SVG Version: 6.00 Build 0)  -->
<!DOCTYPE svg PUBLIC "-//W3C//DTD SVG 1.1//EN" "http://www.w3.org/Graphics/SVG/1.1/DTD/svg11.dtd">
<svg version="1.1" id="Capa_1" xmlns="http://www.w3.org/2000/svg" xmlns:xlink="http://www.w3.org/1999/xlink" x="0px" y="0px"
	 width="64px" height="64px" viewBox="0 0 64 64" enable-background="new 0 0 64 64" xml:space="preserve">
<path d="M51.534,21.167c2.125,0,3.381-0.626,3.735-1.862c0.354-1.236-0.381-2.433-2.183-3.557L35.931,5.042
	c-1.324-0.827-3.044-1.282-4.844-1.282c-1.942,0-3.78,0.518-5.176,1.46L10.486,15.627c-2.18,1.471-2.324,2.802-2.062,3.66
	s1.127,1.88,3.756,1.88h2.32v22.695c-3.539,0.107-6.17,1.919-6.17,4.305c0,2.46,2.794,4.315,6.5,4.315h34.019
	c3.706,0,6.5-1.855,6.5-4.315c0-2.389-2.637-4.202-6.182-4.306V21.167H51.534z M12.087,18.167c0.025-0.017,0.05-0.035,0.077-0.052
	L27.589,7.707c0.892-0.602,2.167-0.947,3.498-0.947c1.245,0,2.401,0.293,3.256,0.827l16.954,10.581h-3.63h-7.333h-17H16h-3.82
	C12.148,18.167,12.117,18.167,12.087,18.167z M24.833,43.852V21.167h14v22.685H24.833z M21.833,21.167v22.667H17.5V21.167H21.833z
	 M52.349,48.167c0,0.338-1.204,1.315-3.5,1.315H14.83c-2.296,0-3.5-0.977-3.5-1.315c0-0.338,1.204-1.315,3.5-1.315h34.019
	C51.146,46.852,52.349,47.829,52.349,48.167z M46.167,43.833h-4.333V21.167h4.333V43.833z"/>
</svg>
