<?xml version="1.0" encoding="utf-8"?>
<!-- Generator: Adobe Illustrator 17.0.0, SVG Export Plug-In . SVG Version: 6.00 Build 0)  -->
<!DOCTYPE svg PUBLIC "-//W3C//DTD SVG 1.1//EN" "http://www.w3.org/Graphics/SVG/1.1/DTD/svg11.dtd">
<svg version="1.1" id="Capa_1" xmlns="http://www.w3.org/2000/svg" xmlns:xlink="http://www.w3.org/1999/xlink" x="0px" y="0px"
	 width="64px" height="64px" viewBox="0 0 64 64" enable-background="new 0 0 64 64" xml:space="preserve">
<path d="M33.375,60.083c7.354,0,13.338-5.983,13.338-13.338c0-2.231-0.563-4.438-1.629-6.382c-1.356-2.477-2.797-8.07-2.797-13.559
	V11.835c0-4.091-3.328-7.419-7.419-7.419h-2.986c-4.091,0-7.419,3.328-7.419,7.419v14.968c0,5.489-1.441,11.083-2.797,13.559
	c-1.065,1.945-1.629,4.152-1.629,6.383C20.037,54.1,26.02,60.083,33.375,60.083z M24.297,41.803c1.835-3.35,3.166-9.658,3.166-15
	V11.835c0-2.436,1.982-4.419,4.419-4.419h2.986c2.437,0,4.419,1.982,4.419,4.419v14.968c0,5.341,1.331,11.649,3.166,15
	c0.824,1.504,1.26,3.213,1.26,4.941c0,5.7-4.638,10.338-10.338,10.338c-5.7,0-10.338-4.638-10.338-10.338
	C23.037,45.017,23.473,43.308,24.297,41.803z"/>
<path d="M33.312,55.125c4.687,0,8.5-3.813,8.5-8.5c0-3.112-1.675-5.922-4.342-7.413V17.454c0-2.18-1.773-3.953-3.953-3.953h-0.408
	c-2.18,0-3.953,1.773-3.953,3.953v21.758c-2.669,1.491-4.344,4.301-4.344,7.414C24.812,51.312,28.626,55.125,33.312,55.125z
	 M31.227,41.538c0.562-0.232,0.93-0.779,0.93-1.388V17.454c0-0.525,0.428-0.953,0.953-0.953h0.408c0.525,0,0.953,0.428,0.953,0.953
	V40.15c0,0.608,0.367,1.156,0.93,1.387c2.073,0.852,3.412,2.849,3.412,5.087c0,3.033-2.468,5.5-5.5,5.5s-5.5-2.467-5.5-5.5
	C27.812,44.386,29.152,42.39,31.227,41.538z"/>
</svg>
