<?xml version="1.0" encoding="utf-8"?>
<!-- Generator: Adobe Illustrator 17.0.0, SVG Export Plug-In . SVG Version: 6.00 Build 0)  -->
<!DOCTYPE svg PUBLIC "-//W3C//DTD SVG 1.1//EN" "http://www.w3.org/Graphics/SVG/1.1/DTD/svg11.dtd">
<svg version="1.1" id="Capa_1" xmlns="http://www.w3.org/2000/svg" xmlns:xlink="http://www.w3.org/1999/xlink" x="0px" y="0px"
	 width="64px" height="64px" viewBox="0 0 64 64" enable-background="new 0 0 64 64" xml:space="preserve">
<g>
	<path d="M54.575,21.73c-0.785-3.31-4.095-5.663-7.467-5.382v-0.642c0-0.575-0.251-1.118-0.708-1.527
		c-1.41-1.266-4.614-1.068-5.925-0.927l-19.072,2.08l-2.603-1.465l21.055-2.187c0.824-0.086,1.423-0.823,1.337-1.647
		c-0.085-0.824-0.82-1.416-1.647-1.337l-24.272,2.521c-0.124-0.32-0.344-0.6-0.653-0.774l-0.564-0.317L35.62,7.782
		c0.824-0.09,1.419-0.83,1.329-1.653C36.86,5.306,36.116,4.711,35.296,4.8L8.657,7.696c-0.33,0.036-0.62,0.18-0.847,0.388
		c-1.398,0.522-2.56,2.007-2.56,4.655v27.45c0,3.296,1.903,6.947,4.331,8.313l3.567,2.007c0.229,0.128,0.482,0.192,0.735,0.192
		c0.04,0,0.078-0.013,0.118-0.016c0.75,1.271,1.708,2.337,2.783,2.941l3.566,2.006c0.228,0.128,0.482,0.192,0.735,0.192
		c0.262,0,0.524-0.068,0.757-0.205c0.46-0.27,0.743-0.762,0.743-1.295V27.764l5.291,25.796c0.649,3.166,3.207,5.553,5.949,5.553
		c0.23,0,0.461-0.017,0.692-0.05l3.951-0.577c0.016-0.002,0.03-0.009,0.045-0.012c0.014-0.002,0.028-0.001,0.042-0.004l17.173-3.556
		c1.708-0.354,3.158-1.35,4.084-2.804c0.927-1.456,1.215-3.192,0.812-4.891L54.575,21.73z M12.384,46.637l-1.332-0.749
		C9.56,45.049,8.25,42.386,8.25,40.189v-27.45c0-1.056,0.325-1.883,0.739-1.883c0.157,0,0.367,0.07,0.593,0.197l2.802,1.575V46.637z
		 M19.586,51.762l-1.331-0.749c-1.493-0.84-2.802-3.503-2.802-5.699v-27.45c0-1.056,0.325-1.883,0.739-1.883
		c0.157,0,0.368,0.069,0.592,0.196l2.802,1.576V51.762z M22.586,23.953v-5.731l18.213-1.986c1.626-0.175,2.759-0.05,3.309,0.091
		v0.398L30.422,18.51c-0.043,0.006-0.083,0.02-0.125,0.029c-0.034,0.008-0.068,0.009-0.102,0.018l-3.817,1.113
		C24.484,20.224,23.107,21.886,22.586,23.953z M34.083,56.094c-1.415,0.202-2.882-1.252-3.269-3.138l-5.36-26.134
		c-0.394-1.921,0.414-3.877,1.764-4.271l2.256-0.658l6.985,33.854L34.083,56.094z M57.282,50.499
		c-0.487,0.765-1.255,1.29-2.162,1.478l-15.703,3.251l-7.005-33.952l14.785-1.929c1.957-0.256,4.003,1.152,4.459,3.077l6.05,25.489
		C57.919,48.815,57.769,49.733,57.282,50.499z"/>
	<path d="M49.179,23.418c-0.193-0.761-0.942-1.246-1.712-1.108l-11.48,2.006c-0.398,0.069-0.751,0.297-0.979,0.63
		c-0.229,0.334-0.312,0.745-0.233,1.142l1.561,7.802c0.142,0.711,0.766,1.206,1.469,1.206c0.078,0,0.157-0.006,0.237-0.019
		l11.926-1.895c0.416-0.066,0.786-0.305,1.017-0.656c0.232-0.352,0.305-0.785,0.202-1.194L49.179,23.418z M38.993,31.887
		l-0.976-4.881l8.596-1.502l1.261,4.973L38.993,31.887z"/>
</g>
</svg>
