<?xml version="1.0" encoding="utf-8"?>
<!-- Generator: Adobe Illustrator 17.0.0, SVG Export Plug-In . SVG Version: 6.00 Build 0)  -->
<!DOCTYPE svg PUBLIC "-//W3C//DTD SVG 1.1//EN" "http://www.w3.org/Graphics/SVG/1.1/DTD/svg11.dtd">
<svg version="1.1" id="Capa_1" xmlns="http://www.w3.org/2000/svg" xmlns:xlink="http://www.w3.org/1999/xlink" x="0px" y="0px"
	 width="64px" height="64px" viewBox="0 0 64 64" enable-background="new 0 0 64 64" xml:space="preserve">
<path d="M51.225,9.75h-8.041V8.179c0-3.609-7.229-4.572-11.5-4.572h-0.918c-4.271,0-11.5,0.963-11.5,4.572V9.75h-8.041
	c-3.645,0-6.5,1.953-6.5,4.447c0,2.494,2.856,4.447,6.5,4.447h2.521V47.99c0,6.341,5.159,11.5,11.5,11.5h11.957
	c6.341,0,11.5-5.159,11.5-11.5V18.644h2.521c3.645,0,6.5-1.953,6.5-4.447C57.725,11.703,54.869,9.75,51.225,9.75z M22.266,8.33
	c0.514-0.555,3.431-1.723,8.5-1.723h0.918c5.069,0,7.986,1.168,8.5,1.723v1.42H22.266V8.33z M45.703,47.99
	c0,4.687-3.813,8.5-8.5,8.5H25.246c-4.686,0-8.5-3.813-8.5-8.5V18.644h28.957V47.99z M51.225,15.644h-2.521H13.746h-2.521
	c-2.137,0-3.5-0.95-3.5-1.447s1.363-1.447,3.5-1.447h9.541h20.918h9.541c2.137,0,3.5,0.95,3.5,1.447S53.361,15.644,51.225,15.644z"
	/>
<path d="M22.083,50.5c0.828,0,1.5-0.671,1.5-1.5V23.5c0-0.829-0.672-1.5-1.5-1.5c-0.828,0-1.5,0.671-1.5,1.5V49
	C20.583,49.829,21.255,50.5,22.083,50.5z"/>
<path d="M31,50.5c0.828,0,1.5-0.671,1.5-1.5V23.5c0-0.829-0.672-1.5-1.5-1.5c-0.828,0-1.5,0.671-1.5,1.5V49
	C29.5,49.829,30.172,50.5,31,50.5z"/>
<path d="M39.917,50.5c0.828,0,1.5-0.671,1.5-1.5V23.5c0-0.829-0.672-1.5-1.5-1.5c-0.828,0-1.5,0.671-1.5,1.5V49
	C38.417,49.829,39.089,50.5,39.917,50.5z"/>
</svg>
