<?xml version="1.0" encoding="utf-8"?>
<!-- Generator: Adobe Illustrator 17.0.0, SVG Export Plug-In . SVG Version: 6.00 Build 0)  -->
<!DOCTYPE svg PUBLIC "-//W3C//DTD SVG 1.1//EN" "http://www.w3.org/Graphics/SVG/1.1/DTD/svg11.dtd">
<svg version="1.1" id="Capa_1" xmlns="http://www.w3.org/2000/svg" xmlns:xlink="http://www.w3.org/1999/xlink" x="0px" y="0px"
	 width="64px" height="64px" viewBox="0 0 64 64" enable-background="new 0 0 64 64" xml:space="preserve">
<g>
	<path d="M31.546,46.998c1.399,0,2.534-1.134,2.534-2.533V22.79c0-2.332,1.302-2.852,2.908-1.16l5.951,6.268
		c0.521,0.548,1.221,0.824,1.921,0.824c0.654,0,1.312-0.242,1.823-0.728c1.062-1.009,1.104-2.684,0.098-3.745L33.692,10.468
		c-0.494-0.523-1.181-0.819-1.899-0.825c-0.719,0.001-1.406,0.279-1.909,0.792L16.343,24.217c-1.026,1.042-1.011,2.72,0.031,3.745
		c1.043,1.024,2.72,1.009,3.744-0.033l5.934-6.038c1.635-1.663,2.96-1.121,2.96,1.211v21.363
		C29.012,45.864,30.146,46.998,31.546,46.998z"/>
	<path d="M46.75,41.594h-7.096c-1.143,0-2.072,1.002-2.072,2.233v0.733c0,3.327-2.707,6.033-6.034,6.033
		c-3.327,0-6.034-2.706-6.034-6.033v-0.733c0-1.231-0.988-2.233-2.203-2.233H16.34c-5.483,0-9.945,4.083-9.945,9.103
		s4.462,9.103,9.945,9.103h30.41c5.485,0,9.947-4.083,9.947-9.103S52.235,41.594,46.75,41.594z M46.75,56.799H16.34
		c-3.83,0-6.945-2.737-6.945-6.103s3.115-6.103,6.945-6.103h6.174c0.018,4.966,4.063,9,9.034,9c4.971,0,9.017-4.034,9.034-9h6.168
		c3.831,0,6.947,2.737,6.947,6.103S50.581,56.799,46.75,56.799z"/>
</g>
</svg>
