<?xml version="1.0" encoding="utf-8"?>
<!-- Generator: Adobe Illustrator 17.0.0, SVG Export Plug-In . SVG Version: 6.00 Build 0)  -->
<!DOCTYPE svg PUBLIC "-//W3C//DTD SVG 1.1//EN" "http://www.w3.org/Graphics/SVG/1.1/DTD/svg11.dtd">
<svg version="1.1" id="Capa_1" xmlns="http://www.w3.org/2000/svg" xmlns:xlink="http://www.w3.org/1999/xlink" x="0px" y="0px"
	 width="64px" height="64px" viewBox="0 0 64 64" enable-background="new 0 0 64 64" xml:space="preserve">
<path d="M44.249,20.562c0-10.263-4.48-15.915-12.614-15.915c-7.899,0-12.614,5.949-12.614,15.915
	c0,8.774,5.659,15.913,12.614,15.913C38.591,36.475,44.249,29.336,44.249,20.562z M22.021,20.562c0-4.823,1.249-12.915,9.614-12.915
	c6.379,0,9.614,4.345,9.614,12.915c0,7.12-4.313,12.913-9.614,12.913C26.334,33.475,22.021,27.682,22.021,20.562z"/>
<path d="M51.223,37.518c-1.3-0.934-2.921-1.407-4.819-1.407c-2.479,0-5.35,0.826-8.084,2.325c-2.298,1.26-4.511,1.899-6.668,1.899
	c-0.001,0-0.002,0-0.003,0l-0.12,0c-2.066,0-4.28-0.639-6.579-1.899c-2.735-1.5-5.606-2.325-8.084-2.325
	c-1.898,0-3.519,0.474-4.819,1.408C8.673,39.944,7.05,45.54,8.352,50.259c1.318,4.771,8.245,8.508,15.768,8.508h15.029
	c7.524,0,14.451-3.737,15.768-8.508C56.221,45.541,54.598,39.944,51.223,37.518z M52.026,49.46
	c-0.944,3.419-6.841,6.307-12.877,6.307H24.121c-6.036,0-11.932-2.888-12.877-6.307c-0.957-3.47,0.212-7.823,2.554-9.506
	c0.779-0.56,1.812-0.844,3.069-0.844c1.954,0,4.375,0.713,6.642,1.956c2.746,1.505,5.445,2.269,8.021,2.269l0.092,0l0.12,0
	c2.576,0,5.274-0.763,8.021-2.269c2.267-1.243,4.688-1.956,6.642-1.956c1.257,0,2.289,0.284,3.068,0.843
	C51.815,41.638,52.984,45.992,52.026,49.46z"/>
</svg>
