<?xml version="1.0" encoding="utf-8"?>
<!-- Generator: Adobe Illustrator 17.0.0, SVG Export Plug-In . SVG Version: 6.00 Build 0)  -->
<!DOCTYPE svg PUBLIC "-//W3C//DTD SVG 1.1//EN" "http://www.w3.org/Graphics/SVG/1.1/DTD/svg11.dtd">
<svg version="1.1" id="Capa_1" xmlns="http://www.w3.org/2000/svg" xmlns:xlink="http://www.w3.org/1999/xlink" x="0px" y="0px"
	 width="64px" height="64px" viewBox="0 0 64 64" enable-background="new 0 0 64 64" xml:space="preserve">
<path d="M13,54.262c4.486,0,8-5.051,8-11.5V15.75c0-6.449-3.514-11.5-8-11.5c-4.486,0-8,5.051-8,11.5v27.012
	C5,49.211,8.514,54.262,13,54.262z M8,15.75c0-4.607,2.29-8.5,5-8.5c2.71,0,5,3.893,5,8.5v27.012c0,4.607-2.29,8.5-5,8.5
	c-2.71,0-5-3.893-5-8.5V15.75z"/>
<path d="M39.75,42.762V41.64c0-6.449-3.514-11.5-8-11.5c-4.486,0-8,5.051-8,11.5v1.123c0,6.449,3.514,11.5,8,11.5
	C36.236,54.262,39.75,49.211,39.75,42.762z M26.75,42.762V41.64c0-4.607,2.29-8.5,5-8.5c2.71,0,5,3.893,5,8.5v1.123
	c0,4.607-2.29,8.5-5,8.5C29.04,51.262,26.75,47.37,26.75,42.762z"/>
<path d="M50.5,13.167c-4.486,0-8,5.051-8,11.5v18.095c0,6.449,3.514,11.5,8,11.5c4.486,0,8-5.051,8-11.5V24.667
	C58.5,18.218,54.986,13.167,50.5,13.167z M55.5,42.762c0,4.607-2.29,8.5-5,8.5c-2.71,0-5-3.893-5-8.5V24.667c0-4.607,2.29-8.5,5-8.5
	c2.71,0,5,3.893,5,8.5V42.762z"/>
<path d="M57,56.562H6.5c-0.829,0-1.5,0.671-1.5,1.5c0,0.829,0.671,1.5,1.5,1.5H57c0.829,0,1.5-0.671,1.5-1.5
	C58.5,57.233,57.829,56.562,57,56.562z"/>
</svg>
