<?xml version="1.0" encoding="utf-8"?>
<!-- Generator: Adobe Illustrator 17.0.0, SVG Export Plug-In . SVG Version: 6.00 Build 0)  -->
<!DOCTYPE svg PUBLIC "-//W3C//DTD SVG 1.1//EN" "http://www.w3.org/Graphics/SVG/1.1/DTD/svg11.dtd">
<svg version="1.1" id="Capa_1" xmlns="http://www.w3.org/2000/svg" xmlns:xlink="http://www.w3.org/1999/xlink" x="0px" y="0px"
	 width="64px" height="64px" viewBox="0 0 64 64" enable-background="new 0 0 64 64" xml:space="preserve">
<path d="M50.077,12.872c-0.927,0-1.819,0.209-2.651,0.622c-10.119,4.997-16.997,14.53-20.585,20.624l-6.626-4.694
	c-1.019-0.723-2.218-1.105-3.465-1.105c-1.944,0-3.776,0.947-4.899,2.532c-1.913,2.699-1.273,6.452,1.427,8.364l8.174,5.791
	c1.797,1.273,3.86,1.946,5.967,1.946c0.74,0,1.484-0.084,2.214-0.25c2.853-0.649,5.348-2.567,6.845-5.262
	c2.614-4.71,8.204-13.207,16.262-17.187c1.438-0.709,2.512-1.936,3.026-3.454c0.515-1.518,0.407-3.146-0.303-4.583
	C54.444,14.153,52.381,12.872,50.077,12.872z M52.924,19.835c-0.258,0.759-0.795,1.373-1.514,1.728
	c-8.789,4.34-14.772,13.404-17.557,18.42c-1.083,1.951-2.864,3.333-4.888,3.794c-1.976,0.448-4.045,0.011-5.78-1.219l-8.174-5.79
	c-1.35-0.956-1.67-2.832-0.714-4.182c0.562-0.793,1.479-1.267,2.452-1.267c0.622,0,1.221,0.191,1.73,0.553l9.34,6.616l0.812-1.462
	c3.122-5.615,9.887-15.789,20.122-20.843c0.417-0.206,0.861-0.311,1.322-0.311c1.153,0,2.186,0.641,2.695,1.672
	C53.127,18.263,53.181,19.077,52.924,19.835z"/>
</svg>
