<?xml version="1.0" encoding="utf-8"?>
<!-- Generator: Adobe Illustrator 17.0.0, SVG Export Plug-In . SVG Version: 6.00 Build 0)  -->
<!DOCTYPE svg PUBLIC "-//W3C//DTD SVG 1.1//EN" "http://www.w3.org/Graphics/SVG/1.1/DTD/svg11.dtd">
<svg version="1.1" id="Capa_1" xmlns="http://www.w3.org/2000/svg" xmlns:xlink="http://www.w3.org/1999/xlink" x="0px" y="0px"
	 width="64px" height="64px" viewBox="0 0 64 64" enable-background="new 0 0 64 64" xml:space="preserve">
<g>
	<path d="M44.66,15.308c-1.036-0.998-2.562-2.189-3.955-2.189c-1.287,0-2.185,0.954-2.176,2.263
		c-0.126,0.307-1.356,1.076-3.509,1.076h-7.122c-2.153,0-3.382-0.77-3.5-1.02c0-1.372-0.91-2.33-2.212-2.33
		c-1.396,0-2.927,1.157-3.965,2.128L7.676,25.091c-2.583,2.414-2.851,6.595-0.596,9.318l0.921,1.111
		c1.303,1.575,3.179,2.479,5.147,2.479c1.375,0,2.651-0.444,3.691-1.284c0.422-0.341,0.716-0.433,0.794-0.447
		c0.067,0.051,0.316,0.439,0.316,1.412v9.765c0,3.584,2.916,6.5,6.5,6.5h12.652c3.584,0,6.5-2.916,6.5-6.5V37.68
		c0-0.468,0.101-1.354,0.483-1.354c0.106,0,0.505,0.037,1.167,0.523l0.174,0.126c1.154,0.846,2.536,1.293,3.995,1.293h0
		c2.062,0,3.981-0.892,5.265-2.445l0.917-1.11c2.244-2.716,2.006-6.914-0.529-9.36L44.66,15.308z M53.291,32.802l-0.917,1.11
		c-0.713,0.862-1.789,1.357-2.953,1.356c-0.817,0-1.585-0.246-2.226-0.717l-0.174-0.126c-0.995-0.729-1.983-1.1-2.936-1.1
		c-1.734,0-3.483,1.346-3.483,4.354v9.765c0,1.93-1.57,3.5-3.5,3.5H24.449c-1.93,0-3.5-1.57-3.5-3.5V37.68
		c0-3.245-1.771-4.397-3.287-4.397c-0.894,0-1.805,0.37-2.708,1.099c-0.5,0.404-1.125,0.618-1.807,0.618
		c-1.055,0-2.115-0.521-2.836-1.392l-0.921-1.111c-1.261-1.524-1.111-3.863,0.334-5.214l10.545-9.855
		c0.531-0.496,0.97-0.818,1.295-1.021c0.647,1.814,3.112,3.051,6.333,3.051h7.122c3.191,0,5.641-1.214,6.315-3.007
		c0.319,0.208,0.739,0.531,1.242,1.018l10.415,10.045C54.424,28.895,54.559,31.268,53.291,32.802z"/>
</g>
</svg>
