<?xml version="1.0" encoding="utf-8"?>
<!-- Generator: Adobe Illustrator 17.0.0, SVG Export Plug-In . SVG Version: 6.00 Build 0)  -->
<!DOCTYPE svg PUBLIC "-//W3C//DTD SVG 1.1//EN" "http://www.w3.org/Graphics/SVG/1.1/DTD/svg11.dtd">
<svg version="1.1" id="Capa_1" xmlns="http://www.w3.org/2000/svg" xmlns:xlink="http://www.w3.org/1999/xlink" x="0px" y="0px"
	 width="64px" height="64px" viewBox="0 0 64 64" enable-background="new 0 0 64 64" xml:space="preserve">
<g>
	<path d="M15.758,57.74c2.523,0,4.5-2.416,4.5-5.5V33.76H47.99c1.89,0,3.362-0.732,4.039-2.009c0.678-1.277,0.458-2.907-0.601-4.473
		l-1.392-2.054c-1.208-1.784-1.194-4.788,0.031-6.56l1.315-1.902c1.474-2.131,1.034-3.708,0.641-4.458
		c-0.394-0.75-1.44-2.008-4.032-2.008H20.083C19.569,7.95,17.863,6.26,15.758,6.26c-2.523,0-4.499,2.416-4.499,5.5v40.48
		C11.259,55.324,13.235,57.74,15.758,57.74z M49.364,13.698c0.073,0.139,0.072,0.602-0.451,1.359l-1.315,1.902
		c-1.921,2.778-1.942,7.147-0.047,9.947l1.392,2.054c0.45,0.665,0.541,1.184,0.435,1.384c-0.106,0.2-0.586,0.415-1.389,0.415H20.258
		V13.297H47.99C48.911,13.297,49.292,13.56,49.364,13.698z M14.259,11.76c0-1.431,0.792-2.5,1.499-2.5c0.708,0,1.5,1.069,1.5,2.5
		v40.48c0,1.431-0.792,2.5-1.5,2.5c-0.707,0-1.499-1.069-1.499-2.5V11.76z"/>
</g>
</svg>
