<?xml version="1.0" encoding="utf-8"?>
<!-- Generator: Adobe Illustrator 17.0.0, SVG Export Plug-In . SVG Version: 6.00 Build 0)  -->
<!DOCTYPE svg PUBLIC "-//W3C//DTD SVG 1.1//EN" "http://www.w3.org/Graphics/SVG/1.1/DTD/svg11.dtd">
<svg version="1.1" id="Capa_1" xmlns="http://www.w3.org/2000/svg" xmlns:xlink="http://www.w3.org/1999/xlink" x="0px" y="0px"
	 width="64px" height="64px" viewBox="0 0 64 64" enable-background="new 0 0 64 64" xml:space="preserve">
<g>
	<circle cx="31.813" cy="42.342" r="4.396"/>
	<path d="M41.077,42.342c0,0.828,0.672,1.5,1.5,1.5c0.828,0,1.5-0.672,1.5-1.5c0-6.763-5.501-12.264-12.264-12.264
		S19.55,35.579,19.55,42.342c0,0.828,0.672,1.5,1.5,1.5c0.828,0,1.5-0.672,1.5-1.5c0-5.108,4.155-9.264,9.264-9.264
		S41.077,37.233,41.077,42.342z"/>
	<path d="M48.793,43.842c0.828,0,1.5-0.672,1.5-1.5c0-10.189-8.29-18.479-18.48-18.479c-10.189,0-18.479,8.29-18.479,18.479
		c0,0.828,0.672,1.5,1.5,1.5c0.828,0,1.5-0.672,1.5-1.5c0-8.535,6.944-15.479,15.479-15.479c8.535,0,15.48,6.944,15.48,15.479
		C47.293,43.17,47.965,43.842,48.793,43.842z"/>
	<path d="M8.515,43.842c0.828,0,1.5-0.672,1.5-1.5c0-12.02,9.779-21.799,21.799-21.799c12.02,0,21.799,9.779,21.799,21.799
		c0,0.828,0.672,1.5,1.5,1.5c0.828,0,1.5-0.672,1.5-1.5c0-13.674-11.125-24.799-24.799-24.799
		c-13.674,0-24.799,11.125-24.799,24.799C7.015,43.17,7.686,43.842,8.515,43.842z"/>
</g>
</svg>
